<svg width="24" height="24" viewBox="0 0 24 24" fill="none" xmlns="http://www.w3.org/2000/svg">
<path d="M7.93967 21.546C7.65847 21.2647 7.50049 20.8832 7.50049 20.4855C7.50049 20.0877 7.65847 19.7063 7.93967 19.425L15.3647 12L7.93967 4.575C7.66644 4.29209 7.51524 3.91319 7.51866 3.5199C7.52208 3.1266 7.67983 2.75038 7.95794 2.47227C8.23606 2.19416 8.61228 2.03641 9.00557 2.03299C9.39887 2.02957 9.77777 2.18076 10.0607 2.454L18.5462 10.9395C18.8274 11.2208 18.9854 11.6022 18.9854 12C18.9854 12.3977 18.8274 12.7792 18.5462 13.0605L10.0607 21.546C9.77938 21.8272 9.39792 21.9852 9.00017 21.9852C8.60243 21.9852 8.22096 21.8272 7.93967 21.546Z" fill="#A1A4D3"/>
</svg>
