<svg width="192" height="25" viewBox="0 0 192 25" fill="none" xmlns="http://www.w3.org/2000/svg">
<path d="M7.33945 10.6423C7.33945 11.7661 6.42837 12.6772 5.30449 12.6772C4.18061 12.6772 3.26953 11.7661 3.26953 10.6423C3.26953 9.51838 4.18061 8.6073 5.30449 8.6073C6.42837 8.6073 7.33945 9.51838 7.33945 10.6423Z" fill="#D9DAE6"/>
<path d="M6.757 10.6424C6.757 10.732 6.75116 10.8216 6.73947 10.9112C6.74726 10.8586 6.75311 10.808 6.7609 10.7554C6.73558 10.9384 6.6869 11.1137 6.61679 11.2831C6.63626 11.2364 6.65574 11.1896 6.67521 11.1429C6.62458 11.2597 6.56421 11.3727 6.49216 11.4798C6.48437 11.4915 6.44542 11.5616 6.43374 11.5635C6.44737 11.5616 6.5389 11.433 6.46295 11.5246C6.42206 11.5732 6.37921 11.62 6.33443 11.6648C6.28964 11.7096 6.2429 11.7524 6.19422 11.7933C6.15722 11.8225 6.08127 11.8673 6.23317 11.7641C6.2059 11.7836 6.17864 11.805 6.14943 11.8225C6.04232 11.8946 5.92938 11.9549 5.81254 12.0056L5.95275 11.9471C5.78333 12.0192 5.60612 12.0659 5.42503 12.0912C5.47761 12.0834 5.52824 12.0776 5.58082 12.0698C5.40166 12.0932 5.22056 12.0932 5.04142 12.0698C5.094 12.0776 5.14462 12.0834 5.1972 12.0912C5.01415 12.0659 4.83891 12.0172 4.66948 11.9471L4.80969 12.0056C4.69285 11.9549 4.57991 11.8946 4.4728 11.8225C4.46112 11.8147 4.39101 11.7758 4.38907 11.7641C4.39101 11.7777 4.51954 11.8692 4.42801 11.7933C4.37933 11.7524 4.33259 11.7096 4.28781 11.6648C4.24302 11.62 4.20018 11.5732 4.15928 11.5246C4.13007 11.4876 4.08528 11.4116 4.18849 11.5635C4.16902 11.5362 4.1476 11.509 4.13007 11.4798C4.05802 11.3727 3.99765 11.2597 3.94702 11.1429L4.00544 11.2831C3.93339 11.1137 3.88665 10.9365 3.86134 10.7554C3.86913 10.808 3.87497 10.8586 3.88276 10.9112C3.85939 10.732 3.85939 10.5509 3.88276 10.3718C3.87497 10.4243 3.86913 10.475 3.86134 10.5275C3.88665 10.3445 3.93533 10.1693 4.00544 9.99983L3.94702 10.14C3.99765 10.0232 4.05802 9.91025 4.13007 9.80315C4.13786 9.79146 4.17681 9.72136 4.18849 9.71941C4.17486 9.72136 4.08334 9.84988 4.15928 9.75836C4.20017 9.70967 4.24302 9.66294 4.28781 9.61815C4.33259 9.57336 4.37933 9.53052 4.42801 9.48962C4.46502 9.46041 4.54096 9.41563 4.38907 9.51883C4.41633 9.49936 4.44359 9.47794 4.4728 9.46041C4.57991 9.38836 4.69285 9.32799 4.80969 9.27737C4.76296 9.29684 4.71622 9.31631 4.66948 9.33578C4.8389 9.26373 5.01611 9.217 5.1972 9.19168C5.14462 9.19947 5.094 9.20531 5.04142 9.2131C5.22057 9.18973 5.40167 9.18973 5.58082 9.2131C5.52824 9.20531 5.47761 9.19947 5.42503 9.19168C5.60808 9.217 5.78332 9.26568 5.95275 9.33578C5.90601 9.31631 5.85928 9.29684 5.81254 9.27737C5.92938 9.328 6.04232 9.38836 6.14943 9.46041C6.16111 9.4682 6.23122 9.50715 6.23317 9.51883C6.23122 9.5052 6.10269 9.41368 6.19422 9.48962C6.2429 9.53052 6.28964 9.57336 6.33443 9.61815C6.37921 9.66294 6.42205 9.70967 6.46295 9.75836C6.49216 9.79536 6.53695 9.87131 6.43374 9.71941C6.45321 9.74667 6.47463 9.77393 6.49216 9.80315C6.56421 9.91025 6.62458 10.0232 6.67521 10.14C6.65574 10.0933 6.63626 10.0466 6.61679 9.99983C6.68884 10.1692 6.73558 10.3465 6.7609 10.5275C6.75311 10.475 6.74726 10.4243 6.73947 10.3718C6.74921 10.4633 6.75505 10.5529 6.757 10.6424C6.75895 10.9482 7.02379 11.2403 7.3412 11.2266C7.65667 11.213 7.92735 10.9696 7.92539 10.6424C7.9215 10.1225 7.7696 9.58504 7.46387 9.16052C7.13477 8.70288 6.70441 8.37186 6.17669 8.1732C5.19328 7.80515 3.98398 8.12841 3.31799 8.94242C2.95382 9.38642 2.74352 9.89466 2.69484 10.4672C2.65005 10.9891 2.78831 11.5402 3.05705 11.9881C3.318 12.4223 3.71524 12.7962 4.17677 13.0065C4.71032 13.248 5.27312 13.3181 5.84759 13.2071C6.85827 13.0124 7.72484 12.1302 7.88063 11.1098C7.904 10.956 7.92347 10.8022 7.92542 10.6444C7.92737 10.3387 7.65474 10.0466 7.34122 10.0602C7.02186 10.0739 6.75895 10.3153 6.75703 10.6425L6.757 10.6424Z" fill="#D9DAE6"/>
<path d="M12.9065 16.3558C12.9065 17.8066 11.7303 18.9828 10.2795 18.9828C8.82878 18.9828 7.65259 17.8066 7.65259 16.3558C7.65259 14.9051 8.82878 13.7289 10.2795 13.7289C11.7303 13.7289 12.9065 14.9051 12.9065 16.3558Z" fill="#D9DAE6"/>
<path d="M12.3204 16.3558C12.3204 16.4726 12.3126 16.5894 12.297 16.7063C12.3048 16.6537 12.3106 16.6031 12.3184 16.5505C12.2853 16.7842 12.2249 17.012 12.1334 17.2282L12.1918 17.088C12.1276 17.236 12.0516 17.3801 11.9601 17.5144C11.9367 17.5495 11.9114 17.5846 11.8861 17.6177C11.8335 17.6917 11.9679 17.5183 11.9231 17.5709C11.9095 17.5865 11.8958 17.604 11.8822 17.6196C11.8316 17.6819 11.7771 17.7403 11.7206 17.7968C11.6641 17.8533 11.6037 17.9078 11.5434 17.9584C11.5297 17.9701 11.5161 17.9799 11.5044 17.9896C11.4265 18.0539 11.6018 17.9175 11.5531 17.9526C11.518 17.976 11.4849 18.0032 11.4499 18.0266C11.3116 18.1201 11.1656 18.198 11.0117 18.2642L11.1519 18.2058C10.9338 18.2973 10.7079 18.3596 10.4743 18.3908C10.5269 18.383 10.5775 18.3771 10.6301 18.3693C10.3964 18.3985 10.1627 18.3985 9.93096 18.3693C9.98354 18.3771 10.0342 18.383 10.0867 18.3908C9.85306 18.3576 9.62522 18.2973 9.40908 18.2058L9.54928 18.2642C9.40129 18.1999 9.25718 18.124 9.1228 18.0324C9.08775 18.0091 9.05269 17.9838 9.01959 17.9584C8.94559 17.9059 9.11891 18.0402 9.06633 17.9954C9.05075 17.9818 9.03322 17.9682 9.01764 17.9546C8.95533 17.9039 8.89691 17.8494 8.84043 17.7929C8.78396 17.7364 8.72944 17.6761 8.6788 17.6157C8.66712 17.6021 8.65738 17.5884 8.64765 17.5768C8.58338 17.4989 8.7197 17.6741 8.68465 17.6254C8.66128 17.5904 8.63401 17.5573 8.61065 17.5222C8.51718 17.384 8.43928 17.2379 8.37307 17.0841C8.39254 17.1308 8.41202 17.1775 8.43149 17.2243C8.33997 17.0062 8.27765 16.7803 8.24649 16.5466C8.25428 16.5992 8.26012 16.6498 8.26791 16.7024C8.2387 16.4687 8.2387 16.235 8.26791 16.0033C8.26012 16.0559 8.25428 16.1065 8.24649 16.1591C8.2796 15.9254 8.33997 15.6976 8.43149 15.4814C8.41202 15.5282 8.39254 15.5749 8.37307 15.6216C8.43733 15.4736 8.51328 15.3295 8.6048 15.1951C8.62817 15.1601 8.65349 15.125 8.6788 15.0919C8.73138 15.0179 8.59701 15.1913 8.6418 15.1387C8.65543 15.1231 8.66907 15.1056 8.6827 15.09C8.73333 15.0277 8.78785 14.9693 8.84433 14.9128C8.9008 14.8563 8.96117 14.8018 9.02154 14.7511C9.03517 14.7395 9.0488 14.7297 9.06048 14.72C9.13838 14.6557 8.96312 14.792 9.0118 14.757C9.04685 14.7336 9.07996 14.7064 9.11501 14.683C9.25327 14.5895 9.39932 14.5116 9.55317 14.4454C9.50644 14.4649 9.4597 14.4844 9.41296 14.5038C9.63107 14.4123 9.85697 14.35 10.0906 14.3188C10.0381 14.3266 9.98742 14.3325 9.93484 14.3403C10.1685 14.311 10.4022 14.311 10.6339 14.3403C10.5814 14.3325 10.5307 14.3266 10.4782 14.3188C10.7118 14.3519 10.9397 14.4123 11.1558 14.5038C11.1091 14.4844 11.0624 14.4649 11.0156 14.4454C11.1636 14.5097 11.3077 14.5856 11.4421 14.6771C11.4772 14.7005 11.5122 14.7258 11.5453 14.7511C11.6193 14.8037 11.446 14.6694 11.4986 14.7141C11.5142 14.7278 11.5317 14.7414 11.5473 14.755C11.6096 14.8057 11.668 14.8602 11.7245 14.9167C11.7809 14.9731 11.8355 15.0335 11.8861 15.0939C11.8978 15.1075 11.9075 15.1211 11.9173 15.1328C11.9815 15.2107 11.8452 15.0355 11.8803 15.0841C11.9036 15.1192 11.9309 15.1523 11.9543 15.1874C12.0477 15.3256 12.1256 15.4717 12.1918 15.6255L12.1334 15.4853C12.2249 15.7034 12.2873 15.9293 12.3184 16.163C12.3106 16.1104 12.3048 16.0598 12.297 16.0072C12.3126 16.1221 12.3204 16.2389 12.3204 16.3558C12.3223 16.6615 12.5871 16.9536 12.9046 16.94C13.22 16.9263 13.4907 16.6829 13.4887 16.3558C13.4849 15.7131 13.294 15.0569 12.9182 14.533C12.519 13.9742 11.9854 13.5652 11.3408 13.3276C10.1237 12.8797 8.64765 13.2789 7.82783 14.2838C7.38967 14.8212 7.13069 15.4463 7.07421 16.1396C7.02163 16.7842 7.18911 17.4579 7.52406 18.009C7.84731 18.5426 8.33611 19.0002 8.90667 19.2573C9.55318 19.5474 10.2426 19.6331 10.9397 19.4968C12.188 19.2534 13.2434 18.1746 13.4362 16.9127C13.4654 16.7277 13.4868 16.5427 13.4868 16.3557C13.4888 16.05 13.2161 15.7579 12.9026 15.7716C12.5872 15.7852 12.3223 16.0286 12.3204 16.3557L12.3204 16.3558Z" fill="#D9DAE6"/>
<path d="M18.6473 9.2171C18.6473 10.2044 17.847 11.0048 16.8597 11.0048C15.8724 11.0048 15.072 10.2044 15.072 9.2171C15.072 8.22982 15.8724 7.42944 16.8597 7.42944C17.847 7.42944 18.6473 8.22982 18.6473 9.2171Z" fill="#D9DAE6"/>
<path d="M18.063 9.21698C18.063 9.29877 18.0572 9.37861 18.0475 9.4604C18.0553 9.40782 18.0611 9.35719 18.0689 9.30461C18.0455 9.4604 18.0046 9.61229 17.9443 9.75833L18.0027 9.61812C17.9579 9.71939 17.9073 9.8187 17.8449 9.91217C17.8313 9.93359 17.8157 9.95307 17.8021 9.97449C17.7437 10.0582 17.9053 9.85375 17.8235 9.94723C17.7865 9.98812 17.7515 10.031 17.7125 10.0699C17.6775 10.105 17.6385 10.14 17.5996 10.1731C17.5003 10.2569 17.6658 10.1283 17.6288 10.1536C17.6035 10.1692 17.5801 10.1887 17.5567 10.2043C17.4633 10.2666 17.3659 10.3172 17.2627 10.362L17.4029 10.3036C17.2568 10.364 17.1049 10.4049 16.9492 10.4282C17.0017 10.4204 17.0524 10.4146 17.105 10.4068C16.9433 10.4282 16.7817 10.4282 16.6201 10.4068C16.6727 10.4146 16.7233 10.4204 16.7759 10.4282C16.6201 10.4049 16.4682 10.364 16.3221 10.3036L16.4623 10.362C16.3611 10.3172 16.2618 10.2666 16.1683 10.2043C16.1469 10.1906 16.1274 10.1751 16.106 10.1614C16.0222 10.103 16.2267 10.2646 16.1332 10.1829C16.0923 10.1459 16.0495 10.1108 16.0106 10.0719C15.9755 10.0368 15.9405 9.99786 15.9074 9.95891C15.8236 9.85959 15.9521 10.0251 15.9268 9.98812C15.9112 9.9628 15.8918 9.93943 15.8762 9.91607C15.8139 9.8226 15.7632 9.72523 15.7185 9.62202C15.7379 9.66876 15.7574 9.71549 15.7769 9.76223C15.7165 9.61618 15.6756 9.46428 15.6522 9.3085C15.66 9.36108 15.6659 9.41171 15.6737 9.46429C15.6522 9.30266 15.6522 9.14103 15.6737 8.97941C15.6659 9.03199 15.66 9.08262 15.6522 9.1352C15.6756 8.97941 15.7165 8.82752 15.7769 8.68147C15.7574 8.72821 15.7379 8.77494 15.7185 8.82168C15.7632 8.72042 15.8139 8.6211 15.8762 8.52763C15.8898 8.50621 15.9054 8.48674 15.919 8.46532C15.9775 8.38158 15.8158 8.58605 15.8976 8.49258C15.9346 8.45169 15.9697 8.40884 16.0086 8.3699C16.0437 8.33484 16.0826 8.29979 16.1216 8.26669C16.2209 8.18295 16.0553 8.31148 16.0923 8.28616C16.1177 8.27058 16.141 8.25111 16.1644 8.23553C16.2579 8.17322 16.3552 8.12258 16.4584 8.07779C16.4117 8.09727 16.365 8.11674 16.3182 8.13621C16.4643 8.07585 16.6162 8.03495 16.772 8.01158C16.7194 8.01937 16.6688 8.02522 16.6162 8.03301C16.7778 8.01158 16.9394 8.01158 17.1011 8.03301C17.0485 8.02522 16.9979 8.01937 16.9453 8.01158C17.1011 8.03495 17.253 8.07585 17.399 8.13621C17.3523 8.11674 17.3055 8.09727 17.2588 8.07779C17.3601 8.12258 17.4594 8.17322 17.5528 8.23553C17.5743 8.24916 17.5937 8.26474 17.6152 8.27837C17.6989 8.33679 17.4944 8.17516 17.5879 8.25695C17.6288 8.29395 17.6716 8.329 17.7106 8.36795C17.7456 8.403 17.7807 8.44195 17.8138 8.4809C17.8975 8.58021 17.769 8.41469 17.7943 8.45169C17.8099 8.477 17.8294 8.50037 17.8449 8.52374C17.9073 8.61721 17.9579 8.71458 18.0027 8.81779L17.9443 8.67758C18.0046 8.82363 18.0455 8.97552 18.0689 9.1313C18.0611 9.07872 18.0553 9.02809 18.0475 8.97551C18.0572 9.05341 18.063 9.1352 18.063 9.21698C18.065 9.52272 18.3298 9.81482 18.6472 9.80118C18.9627 9.78755 19.2334 9.54413 19.2314 9.21698C19.2275 8.74378 19.0893 8.25498 18.8089 7.86941C18.507 7.45464 18.1195 7.15667 17.6385 6.97752C16.7544 6.64842 15.66 6.94052 15.0622 7.67079C14.7253 8.08167 14.5325 8.551 14.4916 9.08067C14.4566 9.54608 14.5831 10.0388 14.8227 10.436C15.0583 10.8274 15.4146 11.1624 15.8314 11.3532C16.3182 11.5752 16.8343 11.6375 17.3601 11.5343C18.4447 11.3201 19.2217 10.3036 19.2295 9.21698C19.2315 8.91125 18.9588 8.61915 18.6453 8.63278C18.3298 8.64642 18.067 8.88789 18.063 9.21698H18.063Z" fill="#D9DAE6"/>
<path d="M6.1394 12.6657C6.71583 13.2889 7.29223 13.914 7.86862 14.5371C7.94847 14.6247 8.03026 14.7124 8.11009 14.7981C8.31846 15.024 8.72936 15.024 8.93579 14.7981C9.15778 14.5566 9.15778 14.2119 8.93579 13.9724C8.35935 13.3492 7.78296 12.7241 7.20656 12.101C7.12672 12.0133 7.04493 11.9257 6.96509 11.84C6.75672 11.6141 6.34582 11.6141 6.1394 11.84C5.9174 12.0795 5.9174 12.4242 6.1394 12.6657Z" fill="#D9DAE6"/>
<path d="M12.6456 14.9967C13.0273 14.5663 13.409 14.1379 13.7906 13.7076C14.3982 13.0241 15.0058 12.3405 15.6133 11.6551C15.7516 11.4993 15.8899 11.3435 16.0281 11.1877C16.2306 10.9599 16.2696 10.584 16.0281 10.362C15.8061 10.1575 15.4186 10.1186 15.2024 10.362C14.8207 10.7924 14.439 11.2208 14.0574 11.6511C13.4498 12.3346 12.8423 13.0182 12.2347 13.7037C12.0964 13.8594 11.9581 14.0152 11.8199 14.171C11.6174 14.3989 11.5784 14.7747 11.8199 14.9967C12.0399 15.1992 12.4294 15.2401 12.6456 14.9967Z" fill="#D9DAE6"/>
<path d="M21.2821 13.3454C21.2821 13.8379 20.8827 14.2373 20.3902 14.2373C19.8976 14.2373 19.4983 13.8379 19.4983 13.3454C19.4983 12.8528 19.8976 12.4535 20.3902 12.4535C20.8827 12.4535 21.2821 12.8528 21.2821 13.3454Z" fill="#D9DAE6"/>
<path d="M20.6982 13.3454C20.6982 13.3824 20.6963 13.4174 20.6924 13.4525C20.7002 13.3999 20.706 13.3493 20.7138 13.2967C20.7041 13.3746 20.6846 13.4505 20.6554 13.5245L20.7138 13.3843C20.6924 13.4369 20.6651 13.4817 20.6378 13.5323C20.5794 13.6375 20.7274 13.433 20.6612 13.505C20.6437 13.5245 20.6281 13.544 20.6106 13.5615C20.5931 13.579 20.5736 13.5966 20.5541 13.6121C20.4801 13.6803 20.6729 13.5342 20.5911 13.581C20.5385 13.6121 20.4899 13.6413 20.4334 13.6647L20.5736 13.6063C20.4996 13.6355 20.4256 13.655 20.3458 13.6647C20.3983 13.6569 20.449 13.6511 20.5015 13.6433C20.4295 13.6511 20.3574 13.6511 20.2854 13.6433C20.338 13.6511 20.3886 13.6569 20.4412 13.6647C20.3633 13.655 20.2873 13.6355 20.2133 13.6063L20.3535 13.6647C20.301 13.6433 20.2562 13.616 20.2055 13.5888C20.1004 13.5304 20.3049 13.6783 20.2328 13.6121C20.2133 13.5946 20.1939 13.579 20.1763 13.5615C20.1588 13.544 20.1413 13.5245 20.1257 13.505C20.0575 13.431 20.2036 13.6238 20.1569 13.542C20.1257 13.4895 20.0965 13.4408 20.0731 13.3843C20.0926 13.431 20.1121 13.4778 20.1315 13.5245C20.1023 13.4505 20.0829 13.3765 20.0731 13.2967C20.0809 13.3493 20.0868 13.3999 20.0945 13.4525C20.0868 13.3804 20.0868 13.3084 20.0945 13.2363C20.0868 13.2889 20.0809 13.3395 20.0731 13.3921C20.0829 13.3142 20.1023 13.2383 20.1315 13.1643C20.1121 13.211 20.0926 13.2577 20.0731 13.3045C20.0945 13.2519 20.1218 13.2071 20.1491 13.1565C20.2075 13.0513 20.0595 13.2558 20.1257 13.1837C20.1432 13.1643 20.1588 13.1448 20.1763 13.1273C20.1939 13.1097 20.2133 13.0922 20.2328 13.0766C20.3068 13.0085 20.114 13.1545 20.1958 13.1078C20.2484 13.0766 20.2971 13.0474 20.3535 13.024C20.3068 13.0435 20.2601 13.063 20.2133 13.0825C20.2873 13.0533 20.3613 13.0338 20.4412 13.024C20.3886 13.0318 20.338 13.0377 20.2854 13.0455C20.3574 13.0377 20.4295 13.0377 20.5015 13.0455C20.449 13.0377 20.3983 13.0318 20.3458 13.024C20.4236 13.0338 20.4996 13.0533 20.5736 13.0825C20.5269 13.063 20.4801 13.0435 20.4334 13.024C20.486 13.0455 20.5307 13.0727 20.5814 13.1C20.6865 13.1584 20.4821 13.0104 20.5541 13.0766C20.5736 13.0942 20.5931 13.1097 20.6106 13.1273C20.6281 13.1448 20.6456 13.1643 20.6612 13.1837C20.7294 13.2577 20.5833 13.0649 20.6301 13.1467C20.6612 13.1993 20.6904 13.248 20.7138 13.3045L20.6554 13.1643C20.6846 13.2383 20.7041 13.3122 20.7138 13.3921C20.706 13.3395 20.7002 13.2889 20.6924 13.2363C20.6963 13.2733 20.6982 13.3084 20.6982 13.3454C20.7021 13.6511 20.9631 13.9432 21.2824 13.9295C21.5959 13.9159 21.8724 13.6725 21.8666 13.3454C21.8569 12.7047 21.4557 12.1614 20.8579 11.9471C20.3165 11.7524 19.6447 11.9335 19.2805 12.3775C19.0663 12.6365 18.9456 12.9286 18.9203 13.2636C18.8969 13.5479 18.9768 13.8575 19.1248 14.1009C19.2689 14.3385 19.485 14.5508 19.7382 14.6657C20.0517 14.8098 20.3672 14.8468 20.7079 14.7844C21.3856 14.6618 21.8588 14.0113 21.8686 13.3434C21.8725 13.0377 21.5959 12.7456 21.2844 12.7592C20.9611 12.7748 20.7041 13.0163 20.6982 13.3454L20.6982 13.3454Z" fill="#D9DAE6"/>
<path d="M17.7283 11.0242C18.2248 11.5753 18.7234 12.1244 19.22 12.6755C19.2901 12.7534 19.3602 12.8294 19.4303 12.9073C19.6367 13.1351 20.0495 13.1312 20.256 12.9073C20.4799 12.6638 20.476 12.3231 20.256 12.0816C19.7594 11.5304 19.2609 10.9813 18.7643 10.4302C18.6942 10.3523 18.6241 10.2764 18.554 10.1985C18.3475 9.97064 17.9347 9.97453 17.7283 10.1985C17.5063 10.4399 17.5102 10.7807 17.7283 11.0242Z" fill="#D9DAE6"/>
<path d="M36.074 17.9551C35.4207 17.9551 34.842 17.8058 34.338 17.5071C33.834 17.2085 33.442 16.7885 33.162 16.2471C32.8913 15.6965 32.756 15.0618 32.756 14.3431V11.5431C32.756 10.8245 32.896 10.1945 33.176 9.65314C33.456 9.10247 33.848 8.67781 34.352 8.37914C34.8653 8.08047 35.458 7.93114 36.13 7.93114H37.614C38.2487 7.93114 38.8087 8.07114 39.294 8.35114C39.7887 8.62181 40.1667 9.00447 40.428 9.49914C40.6987 9.99381 40.834 10.5631 40.834 11.2071H39.532C39.532 10.5818 39.3547 10.0778 39 9.69514C38.6547 9.31247 38.1927 9.12114 37.614 9.12114H36.13C35.5233 9.12114 35.0287 9.34514 34.646 9.79314C34.2727 10.2411 34.086 10.8338 34.086 11.5711V14.3151C34.086 15.0525 34.268 15.6451 34.632 16.0931C34.996 16.5411 35.4767 16.7651 36.074 16.7651H37.586C38.1833 16.7651 38.6593 16.5551 39.014 16.1351C39.378 15.7058 39.56 15.1458 39.56 14.4551H40.862C40.862 15.1458 40.7267 15.7571 40.456 16.2891C40.1853 16.8211 39.8027 17.2318 39.308 17.5211C38.8133 17.8105 38.2393 17.9551 37.586 17.9551H36.074ZM44.4312 17.8431C43.6939 17.8431 43.1619 17.6891 42.8352 17.3811C42.5086 17.0638 42.3452 16.5551 42.3452 15.8551V8.04314H43.6472V15.8131C43.6472 16.1305 43.7126 16.3591 43.8432 16.4991C43.9739 16.6391 44.1886 16.7091 44.4872 16.7091H45.0472V17.8431H44.4312ZM48.412 17.9551C47.7307 17.9551 47.18 17.7265 46.76 17.2691C46.3494 16.8118 46.144 16.2098 46.144 15.4631V10.8571H47.446V15.4911C47.446 15.8831 47.544 16.2005 47.74 16.4431C47.936 16.6858 48.1927 16.8071 48.51 16.8071H49.35C49.742 16.8071 50.1014 16.6485 50.428 16.3311C50.7547 16.0138 50.9694 15.6125 51.072 15.1271V10.8571H52.374V17.8431H51.142V16.8351C50.918 17.1618 50.638 17.4325 50.302 17.6471C49.966 17.8525 49.6347 17.9551 49.308 17.9551H48.412ZM56.4915 17.9551C55.7355 17.9551 55.1288 17.7498 54.6715 17.3391C54.2141 16.9191 53.9855 16.3685 53.9855 15.6871H55.2595C55.2595 16.0325 55.3715 16.3125 55.5955 16.5271C55.8195 16.7418 56.1181 16.8491 56.4915 16.8491H57.7235C58.0781 16.8491 58.3628 16.7838 58.5775 16.6531C58.7921 16.5131 58.8995 16.3311 58.8995 16.1071V15.7011C58.8995 15.5518 58.8341 15.4211 58.7035 15.3091C58.5821 15.1878 58.4235 15.1085 58.2275 15.0711L55.8055 14.6511C55.2921 14.5578 54.8815 14.3665 54.5735 14.0771C54.2655 13.7785 54.1115 13.4331 54.1115 13.0411V12.5791C54.1115 12.0285 54.3308 11.5851 54.7695 11.2491C55.2081 10.9131 55.7961 10.7451 56.5335 10.7451H57.7095C58.4095 10.7451 58.9695 10.9365 59.3895 11.3191C59.8188 11.7018 60.0335 12.2105 60.0335 12.8451H58.7595C58.7501 12.5465 58.6475 12.3085 58.4515 12.1311C58.2648 11.9445 58.0175 11.8511 57.7095 11.8511H56.5475C56.2021 11.8511 55.9268 11.9211 55.7215 12.0611C55.5255 12.2011 55.4275 12.3878 55.4275 12.6211V12.9711C55.4275 13.1205 55.4928 13.2511 55.6235 13.3631C55.7541 13.4751 55.9221 13.5545 56.1275 13.6011L58.5775 14.0351C59.0628 14.1191 59.4548 14.3058 59.7535 14.5951C60.0615 14.8845 60.2155 15.2205 60.2155 15.6031V16.1491C60.2155 16.6905 59.9868 17.1291 59.5295 17.4651C59.0721 17.7918 58.4701 17.9551 57.7235 17.9551H56.4915ZM64.5193 17.8431C63.7539 17.8431 63.1986 17.6751 62.8533 17.3391C62.5173 17.0031 62.3493 16.4618 62.3493 15.7151V11.9911H61.1173V10.8571H62.3633V8.74314H63.6513V10.8571H65.4713V11.9911H63.6513V15.6871C63.6513 16.0511 63.7213 16.3125 63.8613 16.4711C64.0106 16.6298 64.2486 16.7091 64.5753 16.7091H65.4713V17.8431H64.5193ZM69.3773 17.9551C68.5559 17.9551 67.8933 17.7218 67.3893 17.2551C66.8946 16.7791 66.6473 16.1585 66.6473 15.3931V13.4611C66.6473 12.6398 66.8946 11.9818 67.3893 11.4871C67.8933 10.9925 68.5559 10.7451 69.3773 10.7451H70.5253C71.3186 10.7451 71.9579 10.9878 72.4433 11.4731C72.9286 11.9585 73.1713 12.6025 73.1713 13.4051V14.7211H67.9493V15.3931C67.9493 15.8225 68.0799 16.1678 68.3413 16.4291C68.6026 16.6905 68.9479 16.8211 69.3773 16.8211H70.4553C70.8753 16.8211 71.2159 16.7138 71.4773 16.4991C71.7386 16.2751 71.8693 15.9811 71.8693 15.6171H73.1433C73.1433 16.3171 72.8959 16.8818 72.4013 17.3111C71.9066 17.7405 71.2533 17.9551 70.4413 17.9551H69.3773ZM71.8693 13.6851V13.4051C71.8693 12.9385 71.7433 12.5651 71.4913 12.2851C71.2486 12.0051 70.9266 11.8651 70.5253 11.8651H69.3773C68.9479 11.8651 68.6026 12.0145 68.3413 12.3131C68.0799 12.6025 67.9493 12.9898 67.9493 13.4751V13.6851H71.8693ZM74.7749 10.8571H76.0209V11.8791C76.2076 11.5711 76.4783 11.3191 76.8329 11.1231C77.1969 10.9271 77.5749 10.8291 77.9669 10.8291H78.6949V11.9911H77.9669C77.3976 11.9911 76.9403 12.1685 76.5949 12.5231C76.2496 12.8685 76.0769 13.3258 76.0769 13.8951V17.8431H74.7749V10.8571ZM82.0305 17.9551C81.2745 17.9551 80.6679 17.7498 80.2105 17.3391C79.7532 16.9191 79.5245 16.3685 79.5245 15.6871H80.7985C80.7985 16.0325 80.9105 16.3125 81.1345 16.5271C81.3585 16.7418 81.6572 16.8491 82.0305 16.8491H83.2625C83.6172 16.8491 83.9019 16.7838 84.1165 16.6531C84.3312 16.5131 84.4385 16.3311 84.4385 16.1071V15.7011C84.4385 15.5518 84.3732 15.4211 84.2425 15.3091C84.1212 15.1878 83.9625 15.1085 83.7665 15.0711L81.3445 14.6511C80.8312 14.5578 80.4205 14.3665 80.1125 14.0771C79.8045 13.7785 79.6505 13.4331 79.6505 13.0411V12.5791C79.6505 12.0285 79.8699 11.5851 80.3085 11.2491C80.7472 10.9131 81.3352 10.7451 82.0725 10.7451H83.2485C83.9485 10.7451 84.5085 10.9365 84.9285 11.3191C85.3579 11.7018 85.5725 12.2105 85.5725 12.8451H84.2985C84.2892 12.5465 84.1865 12.3085 83.9905 12.1311C83.8039 11.9445 83.5565 11.8511 83.2485 11.8511H82.0865C81.7412 11.8511 81.4659 11.9211 81.2605 12.0611C81.0645 12.2011 80.9665 12.3878 80.9665 12.6211V12.9711C80.9665 13.1205 81.0319 13.2511 81.1625 13.3631C81.2932 13.4751 81.4612 13.5545 81.6665 13.6011L84.1165 14.0351C84.6019 14.1191 84.9939 14.3058 85.2925 14.5951C85.6005 14.8845 85.7545 15.2205 85.7545 15.6031V16.1491C85.7545 16.6905 85.5259 17.1291 85.0685 17.4651C84.6112 17.7918 84.0092 17.9551 83.2625 17.9551H82.0305Z" fill="#D9DAE6"/>
</svg>
