<svg width="105" height="25" viewBox="0 0 105 25" fill="none" xmlns="http://www.w3.org/2000/svg">
<path fill-rule="evenodd" clip-rule="evenodd" d="M20.2734 8.90974C19.9074 6.35874 17.8844 4.33574 15.3334 3.96974V8.90974H20.2734ZM21.1665 10.5757H14.5004C14.0404 10.5757 13.6664 10.2037 13.6664 9.74274V3.07574C13.6664 2.61574 14.0404 2.24274 14.5004 2.24274C18.6355 2.24274 22.0005 5.60774 22.0005 9.74274C22.0005 10.2037 21.6264 10.5757 21.1665 10.5757ZM12.9344 12.2207H21.0834C21.6254 12.2207 22.0494 12.6927 21.9954 13.2317C21.4514 18.6577 16.5794 22.8097 10.8814 22.1797C6.29645 21.6737 2.56945 17.9467 2.06245 13.3617C1.43445 7.66374 5.58445 2.79074 11.0114 2.24774C11.5514 2.19374 12.0224 2.61674 12.0224 3.15874V11.3097C12.0224 11.8127 12.4304 12.2207 12.9344 12.2207Z" fill="#D9DAE6"/>
<path d="M36.1 17.2432C35.7733 17.2432 35.512 17.1498 35.316 16.9632C35.1293 16.7765 35.036 16.5198 35.036 16.1932V7.44316H39.306C40.0153 7.44316 40.636 7.5785 41.168 7.84916C41.7093 8.11983 42.1247 8.50716 42.414 9.01116C42.7127 9.50583 42.862 10.0752 42.862 10.7192V13.6872C42.862 14.8538 42.5633 15.7405 41.966 16.3472C41.378 16.9445 40.51 17.2432 39.362 17.2432H36.1ZM39.32 16.0532C40.048 16.0532 40.5987 15.8525 40.972 15.4512C41.3453 15.0498 41.532 14.4525 41.532 13.6592V10.7472C41.532 10.1125 41.322 9.60383 40.902 9.22116C40.4913 8.82916 39.9453 8.63316 39.264 8.63316H36.366V16.0532H39.32ZM46.6226 17.3552C45.9226 17.3552 45.3626 17.1778 44.9426 16.8232C44.5226 16.4592 44.3126 15.9785 44.3126 15.3812V14.9192C44.3126 14.3312 44.532 13.8598 44.9706 13.5052C45.4093 13.1412 45.9833 12.9592 46.6926 12.9592H47.5746C47.8546 12.9592 48.1533 13.0012 48.4706 13.0852C48.788 13.1692 49.0586 13.2858 49.2826 13.4352V12.4132C49.2826 12.0678 49.1753 11.7925 48.9606 11.5872C48.746 11.3725 48.466 11.2652 48.1206 11.2652H46.9726C46.618 11.2652 46.3333 11.3492 46.1186 11.5172C45.904 11.6852 45.7966 11.9045 45.7966 12.1752H44.5086C44.5086 11.5685 44.7326 11.0785 45.1806 10.7052C45.638 10.3318 46.2353 10.1452 46.9726 10.1452H48.1206C48.858 10.1452 49.4506 10.3552 49.8986 10.7752C50.3466 11.1858 50.5706 11.7318 50.5706 12.4132V17.2432H49.3526V16.3052C49.138 16.6225 48.858 16.8792 48.5126 17.0752C48.1673 17.2618 47.8173 17.3552 47.4626 17.3552H46.6226ZM47.5326 16.2772C47.9433 16.2772 48.3073 16.1605 48.6246 15.9272C48.942 15.6845 49.1613 15.3625 49.2826 14.9612V14.5412C49.1053 14.3825 48.8626 14.2565 48.5546 14.1632C48.2466 14.0698 47.9293 14.0232 47.6026 14.0232H46.7066C46.38 14.0232 46.114 14.1072 45.9086 14.2752C45.7033 14.4432 45.6006 14.6672 45.6006 14.9472V15.3672C45.6006 15.6472 45.6986 15.8712 45.8946 16.0392C46.1 16.1978 46.3706 16.2772 46.7066 16.2772H47.5326ZM54.6087 17.3552C53.8527 17.3552 53.246 17.1498 52.7887 16.7392C52.3313 16.3192 52.1027 15.7685 52.1027 15.0872H53.3767C53.3767 15.4325 53.4887 15.7125 53.7127 15.9272C53.9367 16.1418 54.2353 16.2492 54.6087 16.2492H55.8407C56.1953 16.2492 56.48 16.1838 56.6947 16.0532C56.9093 15.9132 57.0167 15.7312 57.0167 15.5072V15.1012C57.0167 14.9518 56.9513 14.8212 56.8207 14.7092C56.6993 14.5878 56.5407 14.5085 56.3447 14.4712L53.9227 14.0512C53.4093 13.9578 52.9987 13.7665 52.6907 13.4772C52.3827 13.1785 52.2287 12.8332 52.2287 12.4412V11.9792C52.2287 11.4285 52.448 10.9852 52.8867 10.6492C53.3253 10.3132 53.9133 10.1452 54.6507 10.1452H55.8267C56.5267 10.1452 57.0867 10.3365 57.5067 10.7192C57.936 11.1018 58.1507 11.6105 58.1507 12.2452H56.8767C56.8673 11.9465 56.7647 11.7085 56.5687 11.5312C56.382 11.3445 56.1347 11.2512 55.8267 11.2512H54.6647C54.3193 11.2512 54.044 11.3212 53.8387 11.4612C53.6427 11.6012 53.5447 11.7878 53.5447 12.0212V12.3712C53.5447 12.5205 53.61 12.6512 53.7407 12.7632C53.8713 12.8752 54.0393 12.9545 54.2447 13.0012L56.6947 13.4352C57.18 13.5192 57.572 13.7058 57.8707 13.9952C58.1787 14.2845 58.3327 14.6205 58.3327 15.0032V15.5492C58.3327 16.0905 58.104 16.5292 57.6467 16.8652C57.1893 17.1918 56.5873 17.3552 55.8407 17.3552H54.6087ZM59.8765 7.44316H61.1785V11.1392C61.3932 10.8405 61.6638 10.6025 61.9905 10.4252C62.3172 10.2385 62.6392 10.1452 62.9565 10.1452H63.9085C64.5805 10.1452 65.1218 10.3692 65.5325 10.8172C65.9525 11.2652 66.1625 11.8532 66.1625 12.5812V17.2432H64.8605V12.5812C64.8605 12.1985 64.7625 11.8905 64.5665 11.6572C64.3705 11.4145 64.1138 11.2932 63.7965 11.2932H62.9005C62.4992 11.2932 62.1352 11.4472 61.8085 11.7552C61.4818 12.0538 61.2718 12.4458 61.1785 12.9312V17.2432H59.8765V7.44316ZM71.0066 17.3552C70.6986 17.3552 70.3813 17.2618 70.0546 17.0752C69.7279 16.8792 69.4713 16.6365 69.2846 16.3472V17.2432H68.0386V7.44316H69.3406V10.9852C69.5459 10.7332 69.8026 10.5325 70.1106 10.3832C70.4186 10.2245 70.7266 10.1452 71.0346 10.1452H72.0286C72.5233 10.1452 72.9619 10.2572 73.3446 10.4812C73.7366 10.7052 74.0399 11.0178 74.2546 11.4192C74.4693 11.8205 74.5766 12.2872 74.5766 12.8192V14.5552C74.5766 15.1058 74.4646 15.5958 74.2406 16.0252C74.0259 16.4452 73.7226 16.7718 73.3306 17.0052C72.9386 17.2385 72.4859 17.3552 71.9726 17.3552H71.0066ZM71.8886 16.2072C72.2993 16.2072 72.6306 16.0532 72.8826 15.7452C73.1346 15.4278 73.2606 15.0125 73.2606 14.4992V12.8612C73.2606 12.3945 73.1346 12.0165 72.8826 11.7272C72.6399 11.4378 72.3226 11.2932 71.9306 11.2932H71.0206C70.5726 11.2932 70.1899 11.4565 69.8726 11.7832C69.5553 12.1098 69.3779 12.5345 69.3406 13.0572V14.5972C69.3779 15.0452 69.5553 15.4278 69.8726 15.7452C70.1899 16.0532 70.5493 16.2072 70.9506 16.2072H71.8886ZM78.7054 17.3552C77.8841 17.3552 77.2214 17.1078 76.7174 16.6132C76.2227 16.1185 75.9754 15.4698 75.9754 14.6672V12.8472C75.9754 12.0352 76.2274 11.3818 76.7314 10.8872C77.2354 10.3925 77.9027 10.1452 78.7334 10.1452H79.9094C80.7401 10.1452 81.4074 10.3925 81.9114 10.8872C82.4154 11.3818 82.6674 12.0352 82.6674 12.8472V14.6672C82.6674 15.4698 82.4107 16.1185 81.8974 16.6132C81.3934 17.1078 80.7261 17.3552 79.8954 17.3552H78.7054ZM79.8814 16.2072C80.3294 16.2072 80.6887 16.0625 80.9594 15.7732C81.2301 15.4838 81.3654 15.0965 81.3654 14.6112V12.8892C81.3654 12.4038 81.2301 12.0165 80.9594 11.7272C80.6981 11.4378 80.3481 11.2932 79.9094 11.2932H78.7334C78.2947 11.2932 77.9401 11.4378 77.6694 11.7272C77.4081 12.0165 77.2774 12.4038 77.2774 12.8892V14.6112C77.2774 15.0965 77.4081 15.4838 77.6694 15.7732C77.9307 16.0625 78.2807 16.2072 78.7194 16.2072H79.8814ZM86.4351 17.3552C85.7351 17.3552 85.1751 17.1778 84.7551 16.8232C84.3351 16.4592 84.1251 15.9785 84.1251 15.3812V14.9192C84.1251 14.3312 84.3445 13.8598 84.7831 13.5052C85.2218 13.1412 85.7958 12.9592 86.5051 12.9592H87.3871C87.6671 12.9592 87.9658 13.0012 88.2831 13.0852C88.6005 13.1692 88.8711 13.2858 89.0951 13.4352V12.4132C89.0951 12.0678 88.9878 11.7925 88.7731 11.5872C88.5585 11.3725 88.2785 11.2652 87.9331 11.2652H86.7851C86.4305 11.2652 86.1458 11.3492 85.9311 11.5172C85.7165 11.6852 85.6091 11.9045 85.6091 12.1752H84.3211C84.3211 11.5685 84.5451 11.0785 84.9931 10.7052C85.4505 10.3318 86.0478 10.1452 86.7851 10.1452H87.9331C88.6705 10.1452 89.2631 10.3552 89.7111 10.7752C90.1591 11.1858 90.3831 11.7318 90.3831 12.4132V17.2432H89.1651V16.3052C88.9505 16.6225 88.6705 16.8792 88.3251 17.0752C87.9798 17.2618 87.6298 17.3552 87.2751 17.3552H86.4351ZM87.3451 16.2772C87.7558 16.2772 88.1198 16.1605 88.4371 15.9272C88.7545 15.6845 88.9738 15.3625 89.0951 14.9612V14.5412C88.9178 14.3825 88.6751 14.2565 88.3671 14.1632C88.0591 14.0698 87.7418 14.0232 87.4151 14.0232H86.5191C86.1925 14.0232 85.9265 14.1072 85.7211 14.2752C85.5158 14.4432 85.4131 14.6672 85.4131 14.9472V15.3672C85.4131 15.6472 85.5111 15.8712 85.7071 16.0392C85.9125 16.1978 86.1831 16.2772 86.5191 16.2772H87.3451ZM92.2652 10.2572H93.5112V11.2792C93.6978 10.9712 93.9685 10.7192 94.3232 10.5232C94.6872 10.3272 95.0652 10.2292 95.4572 10.2292H96.1852V11.3912H95.4572C94.8878 11.3912 94.4305 11.5685 94.0852 11.9232C93.7398 12.2685 93.5672 12.7258 93.5672 13.2952V17.2432H92.2652V10.2572ZM99.428 17.3552C98.6627 17.3552 98.042 17.1078 97.566 16.6132C97.0993 16.1185 96.866 15.4652 96.866 14.6532V13.0012C96.866 12.4412 96.978 11.9465 97.202 11.5172C97.426 11.0785 97.7387 10.7425 98.14 10.5092C98.5507 10.2665 99.022 10.1452 99.554 10.1452H100.506C100.805 10.1452 101.099 10.2152 101.388 10.3552C101.677 10.4952 101.911 10.6818 102.088 10.9152V7.44316H103.404V17.2432H102.158V16.2492C101.953 16.5758 101.682 16.8418 101.346 17.0472C101.01 17.2525 100.674 17.3552 100.338 17.3552H99.428ZM100.394 16.2072C100.833 16.2072 101.215 16.0298 101.542 15.6752C101.869 15.3112 102.051 14.8818 102.088 14.3872V12.8052C102.023 12.3478 101.85 11.9838 101.57 11.7132C101.299 11.4332 100.973 11.2932 100.59 11.2932H99.652C99.2133 11.2932 98.854 11.4565 98.574 11.7832C98.3033 12.1005 98.168 12.5252 98.168 13.0572V14.6112C98.168 15.0872 98.294 15.4745 98.546 15.7732C98.8073 16.0625 99.134 16.2072 99.526 16.2072H100.394Z" fill="#D9DAE6"/>
</svg>
