<svg width="78" height="25" viewBox="0 0 78 25" fill="none" xmlns="http://www.w3.org/2000/svg">
<path fill-rule="evenodd" clip-rule="evenodd" d="M7.42847 3.81459C7.42847 4.36459 6.97847 4.81459 6.42847 4.81459H5.42847V16.8146H6.42847C6.97847 16.8146 7.42847 17.2646 7.42847 17.8146C7.42847 18.3646 6.97847 18.8146 6.42847 18.8146H4.42847C3.87847 18.8146 3.42847 18.3646 3.42847 17.8146V3.81459C3.42847 3.26459 3.87847 2.81459 4.42847 2.81459H6.42847C6.97847 2.81459 7.42847 3.26459 7.42847 3.81459ZM17.4324 6.23939L20.2464 10.2394C20.4964 10.5934 20.4884 11.0684 20.2284 11.4144L17.2284 15.4144C17.0324 15.6764 16.7314 15.8144 16.4274 15.8144C16.2194 15.8144 16.0084 15.7494 15.8284 15.6144C15.3864 15.2834 15.2974 14.6564 15.6284 14.2154L17.4294 11.8144H17.4284H9.42837C8.87637 11.8144 8.42837 11.3674 8.42837 10.8144C8.42837 10.2614 8.87637 9.81439 9.42837 9.81439H17.4284C17.4449 9.81439 17.4602 9.81895 17.4757 9.82354C17.4882 9.82728 17.5009 9.83104 17.5144 9.83239L15.7964 7.38939C15.4784 6.93839 15.5874 6.31439 16.0394 5.99639C16.4904 5.67739 17.1144 5.78739 17.4324 6.23939Z" fill="#D9DAE6"/>
<path d="M34.1 17.2432C33.7733 17.2432 33.512 17.1498 33.316 16.9632C33.1293 16.7765 33.036 16.5245 33.036 16.2072V7.44316H34.366V16.0672H39.686V17.2432H34.1ZM43.2366 17.3552C42.4153 17.3552 41.7526 17.1078 41.2486 16.6132C40.754 16.1185 40.5066 15.4698 40.5066 14.6672V12.8472C40.5066 12.0352 40.7586 11.3818 41.2626 10.8872C41.7666 10.3925 42.434 10.1452 43.2646 10.1452H44.4406C45.2713 10.1452 45.9386 10.3925 46.4426 10.8872C46.9466 11.3818 47.1986 12.0352 47.1986 12.8472V14.6672C47.1986 15.4698 46.942 16.1185 46.4286 16.6132C45.9246 17.1078 45.2573 17.3552 44.4266 17.3552H43.2366ZM44.4126 16.2072C44.8606 16.2072 45.22 16.0625 45.4906 15.7732C45.7613 15.4838 45.8966 15.0965 45.8966 14.6112V12.8892C45.8966 12.4038 45.7613 12.0165 45.4906 11.7272C45.2293 11.4378 44.8793 11.2932 44.4406 11.2932H43.2646C42.826 11.2932 42.4713 11.4378 42.2006 11.7272C41.9393 12.0165 41.8086 12.4038 41.8086 12.8892V14.6112C41.8086 15.0965 41.9393 15.4838 42.2006 15.7732C42.462 16.0625 42.812 16.2072 43.2506 16.2072H44.4126ZM51.3024 20.0852C50.6397 20.0852 50.0891 19.9032 49.6504 19.5392C49.2211 19.1752 48.9831 18.6992 48.9364 18.1112H50.2384C50.2664 18.3632 50.3784 18.5685 50.5744 18.7272C50.7704 18.8858 51.0131 18.9652 51.3024 18.9652H52.4924C52.9124 18.9652 53.2391 18.8158 53.4724 18.5172C53.7151 18.2278 53.8364 17.8265 53.8364 17.3132V16.3752C53.6311 16.6272 53.3744 16.8325 53.0664 16.9912C52.7584 17.1498 52.4644 17.2292 52.1844 17.2292H51.1764C50.6724 17.2292 50.2244 17.1172 49.8324 16.8932C49.4404 16.6692 49.1371 16.3518 48.9224 15.9412C48.7077 15.5305 48.6004 15.0592 48.6004 14.5272V12.9592C48.6004 12.4085 48.7124 11.9185 48.9364 11.4892C49.1697 11.0598 49.4917 10.7285 49.9024 10.4952C50.3131 10.2618 50.7844 10.1452 51.3164 10.1452H52.2404C52.5391 10.1452 52.8471 10.2292 53.1644 10.3972C53.4817 10.5558 53.7291 10.7612 53.9064 11.0132V10.2572H55.1384V17.3132C55.1384 18.1718 54.9004 18.8485 54.4244 19.3432C53.9577 19.8378 53.3137 20.0852 52.4924 20.0852H51.3024ZM52.2264 16.0952C52.6557 16.0952 53.0197 15.9225 53.3184 15.5772C53.6264 15.2318 53.7991 14.7885 53.8364 14.2472V12.7772C53.7991 12.3385 53.6404 11.9838 53.3604 11.7132C53.0804 11.4332 52.7444 11.2932 52.3524 11.2932H51.3864C50.9477 11.2932 50.5884 11.4518 50.3084 11.7692C50.0377 12.0772 49.9024 12.4878 49.9024 13.0012V14.4852C49.9024 14.9612 50.0284 15.3485 50.2804 15.6472C50.5324 15.9458 50.8497 16.0952 51.2324 16.0952H52.2264ZM59.5472 17.3552C58.7259 17.3552 58.0632 17.1078 57.5592 16.6132C57.0645 16.1185 56.8172 15.4698 56.8172 14.6672V12.8472C56.8172 12.0352 57.0692 11.3818 57.5732 10.8872C58.0772 10.3925 58.7445 10.1452 59.5752 10.1452H60.7512C61.5819 10.1452 62.2492 10.3925 62.7532 10.8872C63.2572 11.3818 63.5092 12.0352 63.5092 12.8472V14.6672C63.5092 15.4698 63.2525 16.1185 62.7392 16.6132C62.2352 17.1078 61.5679 17.3552 60.7372 17.3552H59.5472ZM60.7232 16.2072C61.1712 16.2072 61.5305 16.0625 61.8012 15.7732C62.0719 15.4838 62.2072 15.0965 62.2072 14.6112V12.8892C62.2072 12.4038 62.0719 12.0165 61.8012 11.7272C61.5399 11.4378 61.1899 11.2932 60.7512 11.2932H59.5752C59.1365 11.2932 58.7819 11.4378 58.5112 11.7272C58.2499 12.0165 58.1192 12.4038 58.1192 12.8892V14.6112C58.1192 15.0965 58.2499 15.4838 58.5112 15.7732C58.7725 16.0625 59.1225 16.2072 59.5612 16.2072H60.7232ZM67.3749 17.3552C66.6936 17.3552 66.1429 17.1265 65.7229 16.6692C65.3123 16.2118 65.1069 15.6098 65.1069 14.8632V10.2572H66.4089V14.8912C66.4089 15.2832 66.5069 15.6005 66.7029 15.8432C66.8989 16.0858 67.1556 16.2072 67.4729 16.2072H68.3129C68.7049 16.2072 69.0643 16.0485 69.3909 15.7312C69.7176 15.4138 69.9323 15.0125 70.0349 14.5272V10.2572H71.3369V17.2432H70.1049V16.2352C69.8809 16.5618 69.6009 16.8325 69.2649 17.0472C68.9289 17.2525 68.5976 17.3552 68.2709 17.3552H67.3749ZM76.1404 17.2432C75.375 17.2432 74.8197 17.0752 74.4744 16.7392C74.1384 16.4032 73.9704 15.8618 73.9704 15.1152V11.3912H72.7384V10.2572H73.9844V8.14316H75.2724V10.2572H77.0924V11.3912H75.2724V15.0872C75.2724 15.4512 75.3424 15.7125 75.4824 15.8712C75.6317 16.0298 75.8697 16.1092 76.1964 16.1092H77.0924V17.2432H76.1404Z" fill="#D9DAE6"/>
</svg>
