<svg width="116" height="25" viewBox="0 0 116 25" fill="none" xmlns="http://www.w3.org/2000/svg">
<path fill-rule="evenodd" clip-rule="evenodd" d="M3.2407 7.33027L11.7617 11.9663C11.9087 12.0463 12.0907 12.0463 12.2387 11.9663L20.7597 7.33027C21.1027 7.14327 21.0727 6.66527 20.7077 6.51827L12.1877 3.07927C12.0677 3.03127 11.9317 3.03127 11.8117 3.07927L3.2917 6.51827C2.9277 6.66527 2.8977 7.14327 3.2407 7.33027ZM20.708 10.6995L18.878 9.91948L12.239 13.5315C12.091 13.6115 11.909 13.6115 11.761 13.5315L5.122 9.91948L3.292 10.6995C2.927 10.8545 2.897 11.3605 3.241 11.5575L11.761 16.4545C11.909 16.5395 12.091 16.5395 12.239 16.4545L20.759 11.5575C21.103 11.3605 21.073 10.8545 20.708 10.6995ZM19.151 14.4659L20.708 15.1399C21.073 15.2979 21.103 15.8109 20.759 16.0109L12.239 20.9789C12.091 21.0649 11.909 21.0649 11.761 20.9789L3.241 16.0109C2.897 15.8109 2.927 15.2979 3.292 15.1399L4.849 14.4659L11.761 18.2269C11.909 18.3069 12.091 18.3069 12.239 18.2269L19.151 14.4659Z" fill="#D9DAE6"/>
<path d="M33.036 7.24315H34.268L39.448 14.9012V7.24315H40.75V17.0432H39.532L34.338 9.41315V17.0432H33.036V7.24315ZM44.8551 17.1552C44.1551 17.1552 43.5951 16.9778 43.1751 16.6232C42.7551 16.2592 42.5451 15.7785 42.5451 15.1812V14.7192C42.5451 14.1312 42.7644 13.6598 43.2031 13.3052C43.6417 12.9412 44.2157 12.7592 44.9251 12.7592H45.8071C46.0871 12.7592 46.3857 12.8012 46.7031 12.8852C47.0204 12.9692 47.2911 13.0858 47.5151 13.2352V12.2132C47.5151 11.8678 47.4077 11.5925 47.1931 11.3872C46.9784 11.1725 46.6984 11.0652 46.3531 11.0652H45.2051C44.8504 11.0652 44.5657 11.1492 44.3511 11.3172C44.1364 11.4852 44.0291 11.7045 44.0291 11.9752H42.7411C42.7411 11.3685 42.9651 10.8785 43.4131 10.5052C43.8704 10.1318 44.4677 9.94515 45.2051 9.94515H46.3531C47.0904 9.94515 47.6831 10.1552 48.1311 10.5752C48.5791 10.9858 48.8031 11.5318 48.8031 12.2132V17.0432H47.5851V16.1052C47.3704 16.4225 47.0904 16.6792 46.7451 16.8752C46.3997 17.0618 46.0497 17.1552 45.6951 17.1552H44.8551ZM45.7651 16.0772C46.1757 16.0772 46.5397 15.9605 46.8571 15.7272C47.1744 15.4845 47.3937 15.1625 47.5151 14.7612V14.3412C47.3377 14.1825 47.0951 14.0565 46.7871 13.9632C46.4791 13.8698 46.1617 13.8232 45.8351 13.8232H44.9391C44.6124 13.8232 44.3464 13.9072 44.1411 14.0752C43.9357 14.2432 43.8331 14.4672 43.8331 14.7472V15.1672C43.8331 15.4472 43.9311 15.6712 44.1271 15.8392C44.3324 15.9978 44.6031 16.0772 44.9391 16.0772H45.7651ZM58.4551 9.94515C59.0991 9.94515 59.6124 10.1552 59.9951 10.5752C60.3777 10.9858 60.5691 11.5505 60.5691 12.2692V17.0432H59.2671V12.2552C59.2671 11.9005 59.1831 11.6205 59.0151 11.4152C58.8471 11.2005 58.6277 11.0932 58.3571 11.0932H57.6291C57.2744 11.0932 56.9757 11.2192 56.7331 11.4712C56.4997 11.7138 56.3504 12.0498 56.2851 12.4792V17.0432H54.9691V12.3112C54.9691 11.9285 54.8897 11.6298 54.7311 11.4152C54.5817 11.2005 54.3764 11.0932 54.1151 11.0932H53.4011C53.0464 11.0932 52.7384 11.2472 52.4771 11.5552C52.2157 11.8538 52.0524 12.2505 51.9871 12.7452V17.0432H50.6851V10.0572H51.9311V10.9952C52.1177 10.6685 52.3464 10.4118 52.6171 10.2252C52.8971 10.0385 53.1817 9.94515 53.4711 9.94515H54.2831C54.6564 9.94515 54.9784 10.0385 55.2491 10.2252C55.5291 10.4118 55.7484 10.6778 55.9071 11.0232C56.1124 10.6685 56.3644 10.4025 56.6631 10.2252C56.9617 10.0385 57.2837 9.94515 57.6291 9.94515H58.4551ZM64.8929 17.1552C64.0716 17.1552 63.4089 16.9218 62.9049 16.4552C62.4102 15.9792 62.1629 15.3585 62.1629 14.5932V12.6612C62.1629 11.8398 62.4102 11.1818 62.9049 10.6872C63.4089 10.1925 64.0716 9.94515 64.8929 9.94515H66.0409C66.8342 9.94515 67.4736 10.1878 67.9589 10.6732C68.4442 11.1585 68.6869 11.8025 68.6869 12.6052V13.9212H63.4649V14.5932C63.4649 15.0225 63.5956 15.3678 63.8569 15.6292C64.1182 15.8905 64.4636 16.0212 64.8929 16.0212H65.9709C66.3909 16.0212 66.7316 15.9138 66.9929 15.6992C67.2542 15.4752 67.3849 15.1812 67.3849 14.8172H68.6589C68.6589 15.5172 68.4116 16.0818 67.9169 16.5112C67.4222 16.9405 66.7689 17.1552 65.9569 17.1552H64.8929ZM67.3849 12.8852V12.6052C67.3849 12.1385 67.2589 11.7652 67.0069 11.4852C66.7642 11.2052 66.4422 11.0652 66.0409 11.0652H64.8929C64.4636 11.0652 64.1182 11.2145 63.8569 11.5132C63.5956 11.8025 63.4649 12.1898 63.4649 12.6752V12.8852H67.3849ZM72.4465 17.1552C71.6905 17.1552 71.0839 16.9498 70.6265 16.5392C70.1692 16.1192 69.9405 15.5685 69.9405 14.8872H71.2145C71.2145 15.2325 71.3265 15.5125 71.5505 15.7272C71.7745 15.9418 72.0732 16.0492 72.4465 16.0492H73.6785C74.0332 16.0492 74.3179 15.9838 74.5325 15.8532C74.7472 15.7132 74.8545 15.5312 74.8545 15.3072V14.9012C74.8545 14.7518 74.7892 14.6212 74.6585 14.5092C74.5372 14.3878 74.3785 14.3085 74.1825 14.2712L71.7605 13.8512C71.2472 13.7578 70.8365 13.5665 70.5285 13.2772C70.2205 12.9785 70.0665 12.6332 70.0665 12.2412V11.7792C70.0665 11.2285 70.2859 10.7852 70.7245 10.4492C71.1632 10.1132 71.7512 9.94515 72.4885 9.94515H73.6645C74.3645 9.94515 74.9245 10.1365 75.3445 10.5192C75.7739 10.9018 75.9885 11.4105 75.9885 12.0452H74.7145C74.7052 11.7465 74.6025 11.5085 74.4065 11.3312C74.2199 11.1445 73.9725 11.0512 73.6645 11.0512H72.5025C72.1572 11.0512 71.8819 11.1212 71.6765 11.2612C71.4805 11.4012 71.3825 11.5878 71.3825 11.8212V12.1712C71.3825 12.3205 71.4479 12.4512 71.5785 12.5632C71.7092 12.6752 71.8772 12.7545 72.0825 12.8012L74.5325 13.2352C75.0179 13.3192 75.4099 13.5058 75.7085 13.7952C76.0165 14.0845 76.1705 14.4205 76.1705 14.8032V15.3492C76.1705 15.8905 75.9419 16.3292 75.4845 16.6652C75.0272 16.9918 74.4252 17.1552 73.6785 17.1552H72.4465ZM77.7144 10.0572H78.9604V10.9392C79.1564 10.6405 79.4084 10.4025 79.7164 10.2252C80.0337 10.0385 80.351 9.94515 80.6684 9.94515H81.6344C82.4184 9.94515 83.0484 10.1878 83.5244 10.6732C84.0097 11.1585 84.2524 11.7978 84.2524 12.5912V14.2572C84.2524 14.8265 84.1404 15.3305 83.9164 15.7692C83.7017 16.2078 83.3937 16.5485 82.9924 16.7912C82.591 17.0338 82.129 17.1552 81.6064 17.1552H80.6264C80.3464 17.1552 80.0524 17.0805 79.7444 16.9312C79.4457 16.7818 79.203 16.5858 79.0164 16.3432V19.8292H77.7144V10.0572ZM81.4944 16.0072C81.933 16.0072 82.283 15.8438 82.5444 15.5172C82.8057 15.1905 82.9364 14.7565 82.9364 14.2152V12.6332C82.9364 12.1758 82.8057 11.8072 82.5444 11.5272C82.2924 11.2378 81.9564 11.0932 81.5364 11.0932H80.5984C80.253 11.0932 79.931 11.2285 79.6324 11.4992C79.343 11.7698 79.1377 12.1245 79.0164 12.5632V14.4252C79.0724 14.8918 79.245 15.2745 79.5344 15.5732C79.833 15.8625 80.1877 16.0072 80.5984 16.0072H81.4944ZM88.0172 17.1552C87.3172 17.1552 86.7572 16.9778 86.3372 16.6232C85.9172 16.2592 85.7072 15.7785 85.7072 15.1812V14.7192C85.7072 14.1312 85.9265 13.6598 86.3652 13.3052C86.8038 12.9412 87.3778 12.7592 88.0872 12.7592H88.9692C89.2492 12.7592 89.5478 12.8012 89.8652 12.8852C90.1825 12.9692 90.4532 13.0858 90.6772 13.2352V12.2132C90.6772 11.8678 90.5698 11.5925 90.3552 11.3872C90.1405 11.1725 89.8605 11.0652 89.5152 11.0652H88.3672C88.0125 11.0652 87.7278 11.1492 87.5132 11.3172C87.2985 11.4852 87.1912 11.7045 87.1912 11.9752H85.9032C85.9032 11.3685 86.1272 10.8785 86.5752 10.5052C87.0325 10.1318 87.6298 9.94515 88.3672 9.94515H89.5152C90.2525 9.94515 90.8452 10.1552 91.2932 10.5752C91.7412 10.9858 91.9652 11.5318 91.9652 12.2132V17.0432H90.7472V16.1052C90.5325 16.4225 90.2525 16.6792 89.9072 16.8752C89.5618 17.0618 89.2118 17.1552 88.8572 17.1552H88.0172ZM88.9272 16.0772C89.3378 16.0772 89.7018 15.9605 90.0192 15.7272C90.3365 15.4845 90.5558 15.1625 90.6772 14.7612V14.3412C90.4998 14.1825 90.2572 14.0565 89.9492 13.9632C89.6412 13.8698 89.3238 13.8232 88.9972 13.8232H88.1012C87.7745 13.8232 87.5085 13.9072 87.3032 14.0752C87.0978 14.2432 86.9952 14.4672 86.9952 14.7472V15.1672C86.9952 15.4472 87.0932 15.6712 87.2892 15.8392C87.4945 15.9978 87.7652 16.0772 88.1012 16.0772H88.9272ZM96.2552 17.1552C95.4525 17.1552 94.8039 16.9172 94.3092 16.4412C93.8145 15.9558 93.5672 15.3212 93.5672 14.5372V12.6612C93.5672 11.8398 93.8099 11.1818 94.2952 10.6872C94.7899 10.1925 95.4385 9.94515 96.2412 9.94515H97.3752C98.1405 9.94515 98.7565 10.1598 99.2232 10.5892C99.6899 11.0185 99.9232 11.5878 99.9232 12.2972H98.6352C98.6352 11.9332 98.5185 11.6438 98.2852 11.4292C98.0612 11.2052 97.7579 11.0932 97.3752 11.0932H96.2552C95.8445 11.0932 95.5085 11.2425 95.2472 11.5412C94.9952 11.8305 94.8692 12.2178 94.8692 12.7032V14.4952C94.8692 14.9525 94.9999 15.3212 95.2612 15.6012C95.5225 15.8718 95.8585 16.0072 96.2692 16.0072H97.3892C97.7812 16.0072 98.0939 15.8718 98.3272 15.6012C98.5699 15.3212 98.6912 14.9525 98.6912 14.4952H99.9792C99.9792 15.2885 99.7412 15.9325 99.2652 16.4272C98.7892 16.9125 98.1639 17.1552 97.3892 17.1552H96.2552ZM103.912 17.1552C103.091 17.1552 102.428 16.9218 101.924 16.4552C101.43 15.9792 101.182 15.3585 101.182 14.5932V12.6612C101.182 11.8398 101.43 11.1818 101.924 10.6872C102.428 10.1925 103.091 9.94515 103.912 9.94515H105.06C105.854 9.94515 106.493 10.1878 106.978 10.6732C107.464 11.1585 107.706 11.8025 107.706 12.6052V13.9212H102.484V14.5932C102.484 15.0225 102.615 15.3678 102.876 15.6292C103.138 15.8905 103.483 16.0212 103.912 16.0212H104.99C105.41 16.0212 105.751 15.9138 106.012 15.6992C106.274 15.4752 106.404 15.1812 106.404 14.8172H107.678C107.678 15.5172 107.431 16.0818 106.936 16.5112C106.442 16.9405 105.788 17.1552 104.976 17.1552H103.912ZM106.404 12.8852V12.6052C106.404 12.1385 106.278 11.7652 106.026 11.4852C105.784 11.2052 105.462 11.0652 105.06 11.0652H103.912C103.483 11.0652 103.138 11.2145 102.876 11.5132C102.615 11.8025 102.484 12.1898 102.484 12.6752V12.8852H106.404ZM111.466 17.1552C110.71 17.1552 110.103 16.9498 109.646 16.5392C109.189 16.1192 108.96 15.5685 108.96 14.8872H110.234C110.234 15.2325 110.346 15.5125 110.57 15.7272C110.794 15.9418 111.093 16.0492 111.466 16.0492H112.698C113.053 16.0492 113.337 15.9838 113.552 15.8532C113.767 15.7132 113.874 15.5312 113.874 15.3072V14.9012C113.874 14.7518 113.809 14.6212 113.678 14.5092C113.557 14.3878 113.398 14.3085 113.202 14.2712L110.78 13.8512C110.267 13.7578 109.856 13.5665 109.548 13.2772C109.24 12.9785 109.086 12.6332 109.086 12.2412V11.7792C109.086 11.2285 109.305 10.7852 109.744 10.4492C110.183 10.1132 110.771 9.94515 111.508 9.94515H112.684C113.384 9.94515 113.944 10.1365 114.364 10.5192C114.793 10.9018 115.008 11.4105 115.008 12.0452H113.734C113.725 11.7465 113.622 11.5085 113.426 11.3312C113.239 11.1445 112.992 11.0512 112.684 11.0512H111.522C111.177 11.0512 110.901 11.1212 110.696 11.2612C110.5 11.4012 110.402 11.5878 110.402 11.8212V12.1712C110.402 12.3205 110.467 12.4512 110.598 12.5632C110.729 12.6752 110.897 12.7545 111.102 12.8012L113.552 13.2352C114.037 13.3192 114.429 13.5058 114.728 13.7952C115.036 14.0845 115.19 14.4205 115.19 14.8032V15.3492C115.19 15.8905 114.961 16.3292 114.504 16.6652C114.047 16.9918 113.445 17.1552 112.698 17.1552H111.466Z" fill="#D9DAE6"/>
</svg>
