<svg width="20" height="20" viewBox="0 0 20 20" fill="none" xmlns="http://www.w3.org/2000/svg">
<path d="M0.718896 0.548974C1.07051 0.197466 1.54734 0 2.04452 0C2.5417 0 3.01853 0.197466 3.37015 0.548974L10.0001 7.17897L16.6301 0.548974C16.9838 0.207428 17.4574 0.0184387 17.949 0.0227107C18.4406 0.0269827 18.9109 0.224175 19.2586 0.571815C19.6062 0.919455 19.8034 1.38973 19.8077 1.88135C19.8119 2.37297 19.6229 2.8466 19.2814 3.20022L12.6514 9.83022L19.2814 16.4602C19.6229 16.8139 19.8119 17.2875 19.8077 17.7791C19.8034 18.2707 19.6062 18.741 19.2586 19.0886C18.9109 19.4363 18.4406 19.6335 17.949 19.6377C17.4574 19.642 16.9838 19.453 16.6301 19.1115L10.0001 12.4815L3.37015 19.1115C3.01652 19.453 2.54289 19.642 2.05127 19.6377C1.55965 19.6335 1.08938 19.4363 0.741737 19.0886C0.394096 18.741 0.196905 18.2707 0.192633 17.7791C0.188361 17.2875 0.37735 16.8139 0.718896 16.4602L7.3489 9.83022L0.718896 3.20022C0.367388 2.84861 0.169922 2.37178 0.169922 1.8746C0.169922 1.37742 0.367388 0.900589 0.718896 0.548974Z" fill="#828490"/>
</svg>
