<svg width="118" height="25" viewBox="0 0 118 25" fill="none" xmlns="http://www.w3.org/2000/svg">
<path d="M21.7917 17.3098H20.3854V13.4209H12.8854V10.8654H19.0833C19.3125 10.8654 19.5 10.6654 19.5 10.4209V3.0876C19.5 2.84316 19.3125 2.64316 19.0833 2.64316H4.91667C4.6875 2.64316 4.5 2.84316 4.5 3.0876V10.4209C4.5 10.6654 4.6875 10.8654 4.91667 10.8654H11.1146V13.4209H3.61458V17.3098H2.20833C2.09375 17.3098 2 17.4098 2 17.532V22.4209C2 22.5432 2.09375 22.6432 2.20833 22.6432H6.79167C6.90625 22.6432 7 22.5432 7 22.4209V17.532C7 17.4098 6.90625 17.3098 6.79167 17.3098H5.38542V15.3098H11.1146V17.3098H9.70833C9.59375 17.3098 9.5 17.4098 9.5 17.532V22.4209C9.5 22.5432 9.59375 22.6432 9.70833 22.6432H14.2917C14.4062 22.6432 14.5 22.5432 14.5 22.4209V17.532C14.5 17.4098 14.4062 17.3098 14.2917 17.3098H12.8854V15.3098H18.6146V17.3098H17.2083C17.0938 17.3098 17 17.4098 17 17.532V22.4209C17 22.5432 17.0938 22.6432 17.2083 22.6432H21.7917C21.9062 22.6432 22 22.5432 22 22.4209V17.532C22 17.4098 21.9062 17.3098 21.7917 17.3098ZM5.33333 20.7904C5.33333 20.832 5.30208 20.8654 5.26302 20.8654H3.73438C3.69531 20.8654 3.66406 20.832 3.66406 20.7904V19.1598C3.66406 19.1182 3.69531 19.0848 3.73438 19.0848H5.26302C5.30208 19.0848 5.33333 19.1182 5.33333 19.1598V20.7904ZM12.8333 20.7904C12.8333 20.832 12.8021 20.8654 12.763 20.8654H11.2344C11.1953 20.8654 11.1641 20.832 11.1641 20.7904V19.1598C11.1641 19.1182 11.1953 19.0848 11.2344 19.0848H12.763C12.8021 19.0848 12.8333 19.1182 12.8333 19.1598V20.7904ZM6.16667 9.0876V4.42094H17.8333V9.0876H6.16667ZM20.3333 20.7904C20.3333 20.832 20.3021 20.8654 20.263 20.8654H18.7344C18.6953 20.8654 18.6641 20.832 18.6641 20.7904V19.1598C18.6641 19.1182 18.6953 19.0848 18.7344 19.0848H20.263C20.3021 19.0848 20.3333 19.1182 20.3333 19.1598V20.7904ZM8.04167 6.75427C8.04167 7.04895 8.15141 7.33157 8.34676 7.53994C8.54211 7.74832 8.80707 7.86538 9.08333 7.86538C9.3596 7.86538 9.62455 7.74832 9.8199 7.53994C10.0153 7.33157 10.125 7.04895 10.125 6.75427C10.125 6.45958 10.0153 6.17697 9.8199 5.96859C9.62455 5.76022 9.3596 5.64316 9.08333 5.64316C8.80707 5.64316 8.54211 5.76022 8.34676 5.96859C8.15141 6.17697 8.04167 6.45958 8.04167 6.75427Z" fill="#D9DAE6"/>
<path d="M33.036 7.84316H34.268L39.448 15.5012V7.84316H40.75V17.6432H39.532L34.338 10.0132V17.6432H33.036V7.84316ZM45.2191 17.7552C44.3977 17.7552 43.7351 17.5078 43.2311 17.0132C42.7364 16.5185 42.4891 15.8698 42.4891 15.0672V13.2472C42.4891 12.4352 42.7411 11.7818 43.2451 11.2872C43.7491 10.7925 44.4164 10.5452 45.2471 10.5452H46.4231C47.2537 10.5452 47.9211 10.7925 48.4251 11.2872C48.9291 11.7818 49.1811 12.4352 49.1811 13.2472V15.0672C49.1811 15.8698 48.9244 16.5185 48.4111 17.0132C47.9071 17.5078 47.2397 17.7552 46.4091 17.7552H45.2191ZM46.3951 16.6072C46.8431 16.6072 47.2024 16.4625 47.4731 16.1732C47.7437 15.8838 47.8791 15.4965 47.8791 15.0112V13.2892C47.8791 12.8038 47.7437 12.4165 47.4731 12.1272C47.2117 11.8378 46.8617 11.6932 46.4231 11.6932H45.2471C44.8084 11.6932 44.4537 11.8378 44.1831 12.1272C43.9217 12.4165 43.7911 12.8038 43.7911 13.2892V15.0112C43.7911 15.4965 43.9217 15.8838 44.1831 16.1732C44.4444 16.4625 44.7944 16.6072 45.2331 16.6072H46.3951ZM53.1448 17.7552C52.3795 17.7552 51.7588 17.5078 51.2828 17.0132C50.8161 16.5185 50.5828 15.8652 50.5828 15.0532V13.4012C50.5828 12.8412 50.6948 12.3465 50.9188 11.9172C51.1428 11.4785 51.4555 11.1425 51.8568 10.9092C52.2675 10.6665 52.7388 10.5452 53.2708 10.5452H54.2228C54.5215 10.5452 54.8155 10.6152 55.1048 10.7552C55.3941 10.8952 55.6275 11.0818 55.8048 11.3152V7.84316H57.1208V17.6432H55.8748V16.6492C55.6695 16.9758 55.3988 17.2418 55.0628 17.4472C54.7268 17.6525 54.3908 17.7552 54.0548 17.7552H53.1448ZM54.1108 16.6072C54.5495 16.6072 54.9321 16.4298 55.2588 16.0752C55.5855 15.7112 55.7675 15.2818 55.8048 14.7872V13.2052C55.7395 12.7478 55.5668 12.3838 55.2868 12.1132C55.0161 11.8332 54.6895 11.6932 54.3068 11.6932H53.3688C52.9301 11.6932 52.5708 11.8565 52.2908 12.1832C52.0201 12.5005 51.8848 12.9252 51.8848 13.4572V15.0112C51.8848 15.4872 52.0108 15.8745 52.2628 16.1732C52.5241 16.4625 52.8508 16.6072 53.2428 16.6072H54.1108ZM61.5296 17.7552C60.7083 17.7552 60.0456 17.5218 59.5416 17.0552C59.0469 16.5792 58.7996 15.9585 58.7996 15.1932V13.2612C58.7996 12.4398 59.0469 11.7818 59.5416 11.2872C60.0456 10.7925 60.7083 10.5452 61.5296 10.5452H62.6776C63.4709 10.5452 64.1103 10.7878 64.5956 11.2732C65.0809 11.7585 65.3236 12.4025 65.3236 13.2052V14.5212H60.1016V15.1932C60.1016 15.6225 60.2323 15.9678 60.4936 16.2292C60.7549 16.4905 61.1003 16.6212 61.5296 16.6212H62.6076C63.0276 16.6212 63.3683 16.5138 63.6296 16.2992C63.8909 16.0752 64.0216 15.7812 64.0216 15.4172H65.2956C65.2956 16.1172 65.0483 16.6818 64.5536 17.1112C64.0589 17.5405 63.4056 17.7552 62.5936 17.7552H61.5296ZM64.0216 13.4852V13.2052C64.0216 12.7385 63.8956 12.3652 63.6436 12.0852C63.4009 11.8052 63.0789 11.6652 62.6776 11.6652H61.5296C61.1003 11.6652 60.7549 11.8145 60.4936 12.1132C60.2323 12.4025 60.1016 12.7898 60.1016 13.2752V13.4852H64.0216ZM76.357 15.0672H72.269L71.317 17.6432H69.931L73.725 7.84316H74.327C74.7284 7.84316 75.013 8.06249 75.181 8.50116L78.695 17.6432H77.323L76.357 15.0672ZM72.661 13.9472H75.965L74.327 9.52316H74.313L72.661 13.9472ZM80.1367 11.7912H78.9327V10.6572H80.1367V10.1392C80.1367 9.37382 80.3467 8.79049 80.7667 8.38916C81.1867 7.98782 81.7934 7.78716 82.5867 7.78716H83.2727V8.90716H82.5867C82.1947 8.90716 81.9054 9.00982 81.7187 9.21516C81.532 9.41116 81.4387 9.72382 81.4387 10.1532V10.6572H83.1187V11.7912H81.4387V17.6432H80.1367V11.7912ZM90.6677 17.6432H89.3657V11.7772H86.5657V17.6432H85.2637V11.7772H84.0597V10.6432H85.2637V10.1392C85.2637 9.37382 85.4737 8.79049 85.8937 8.38916C86.3137 7.98782 86.9203 7.78716 87.7137 7.78716H89.6177V8.90716H87.7137C87.3217 8.90716 87.0323 9.00982 86.8457 9.21516C86.659 9.41116 86.5657 9.72382 86.5657 10.1532V10.6432H90.6677V17.6432ZM92.6304 10.6572H93.8764V11.6232C94.0817 11.3058 94.3524 11.0492 94.6884 10.8532C95.0337 10.6478 95.3744 10.5452 95.7104 10.5452H96.6344C97.3064 10.5452 97.8477 10.7692 98.2584 11.2172C98.6784 11.6652 98.8884 12.2532 98.8884 12.9812V17.6432H97.5864V12.9812C97.5864 12.5985 97.4884 12.2905 97.2924 12.0572C97.0964 11.8145 96.8397 11.6932 96.5224 11.6932H95.6544C95.2531 11.6932 94.8891 11.8472 94.5624 12.1552C94.2357 12.4632 94.0257 12.8645 93.9324 13.3592V17.6432H92.6304V10.6572ZM101.675 9.73316C101.404 9.73316 101.185 9.65382 101.017 9.49516C100.849 9.32716 100.765 9.11249 100.765 8.85116C100.765 8.58982 100.849 8.37982 101.017 8.22116C101.185 8.05316 101.404 7.96916 101.675 7.96916C101.946 7.96916 102.16 8.05316 102.319 8.22116C102.487 8.37982 102.571 8.58982 102.571 8.85116C102.571 9.11249 102.487 9.32716 102.319 9.49516C102.16 9.65382 101.946 9.73316 101.675 9.73316ZM101.017 10.6572H102.319V17.6432H101.017V10.6572ZM107.367 17.6432C106.602 17.6432 106.046 17.4752 105.701 17.1392C105.365 16.8032 105.197 16.2618 105.197 15.5152V11.7912H103.965V10.6572H105.211V8.54316H106.499V10.6572H108.319V11.7912H106.499V15.4872C106.499 15.8512 106.569 16.1125 106.709 16.2712C106.858 16.4298 107.096 16.5092 107.423 16.5092H108.319V17.6432H107.367ZM112.32 20.4852C111.657 20.4852 111.106 20.3032 110.668 19.9392C110.238 19.5752 110 19.0992 109.954 18.5112H111.256C111.284 18.7632 111.396 18.9685 111.592 19.1272C111.788 19.2858 112.03 19.3652 112.32 19.3652H113.426C113.846 19.3652 114.172 19.2158 114.406 18.9172C114.648 18.6278 114.77 18.2265 114.77 17.7132V16.5512C114.555 16.8778 114.289 17.1392 113.972 17.3352C113.654 17.5312 113.337 17.6292 113.02 17.6292H112.11C111.428 17.6292 110.878 17.4005 110.458 16.9432C110.038 16.4858 109.828 15.8838 109.828 15.1372V10.6572H111.13V15.1652C111.13 15.5572 111.228 15.8745 111.424 16.1172C111.629 16.3598 111.89 16.4812 112.208 16.4812H113.062C113.454 16.4812 113.808 16.3225 114.126 16.0052C114.452 15.6878 114.667 15.2865 114.77 14.8012V10.6572H116.086V17.7132C116.086 18.5718 115.848 19.2485 115.372 19.7432C114.896 20.2378 114.247 20.4852 113.426 20.4852H112.32Z" fill="#D9DAE6"/>
</svg>
