<svg width="178" height="44" viewBox="0 0 178 44" fill="none" xmlns="http://www.w3.org/2000/svg">
<path d="M0.70459 4.5C0.70459 2.42893 2.38352 0.75 4.45459 0.75H118.455C120.526 0.75 122.205 2.42893 122.205 4.5V39.5C122.205 41.5711 120.526 43.25 118.455 43.25H4.45459C2.38352 43.25 0.70459 41.5711 0.70459 39.5V4.5Z" fill="#ECF2FF"/>
<path d="M0.70459 4.5C0.70459 2.42893 2.38352 0.75 4.45459 0.75H118.455C120.526 0.75 122.205 2.42893 122.205 4.5V39.5C122.205 41.5711 120.526 43.25 118.455 43.25H4.45459C2.38352 43.25 0.70459 41.5711 0.70459 39.5V4.5Z" stroke="#ACB9FF" stroke-width="0.5"/>
<g clip-path="url(#clip0_7610_1914)">
<rect x="11.4546" y="10.5" width="12" height="23" rx="2" fill="#ECF2FF"/>
<rect x="11.4546" y="10.5" width="12" height="5" rx="1" fill="#FAFAFD"/>
<rect x="11.4546" y="16.5" width="12" height="5" rx="1" fill="#FAFAFD"/>
<rect x="11.4546" y="22.5" width="12" height="5" rx="1" fill="#7DD6D8"/>
<rect x="11.4546" y="28.5" width="12" height="5" rx="1" fill="#7DD6D8"/>
</g>
<rect x="11.9546" y="11" width="11" height="22" rx="1.5" stroke="#ACB9FF"/>
<path d="M33.9546 19.5C33.7946 19.5 33.6579 19.4567 33.5446 19.37C33.4379 19.2767 33.3479 19.1333 33.2746 18.94L31.5546 14.51H32.5346L33.9546 18.45H33.9746L35.3946 14.51H36.3746L34.4146 19.5H33.9546ZM39.3841 19.58C38.9175 19.58 38.5041 19.4733 38.1441 19.26C37.7841 19.0467 37.5041 18.7467 37.3041 18.36C37.1108 17.9667 37.0141 17.5133 37.0141 17V15C37.0141 14.4867 37.1141 14.0367 37.3141 13.65C37.5141 13.2567 37.7941 12.9533 38.1541 12.74C38.5208 12.5267 38.9441 12.42 39.4241 12.42H40.4841C40.9375 12.42 41.3375 12.52 41.6841 12.72C42.0375 12.9133 42.3075 13.1867 42.4941 13.54C42.6875 13.8933 42.7841 14.3 42.7841 14.76H41.8541C41.8541 14.3133 41.7275 13.9533 41.4741 13.68C41.2275 13.4067 40.8975 13.27 40.4841 13.27H39.4241C38.9908 13.27 38.6375 13.43 38.3641 13.75C38.0975 14.07 37.9641 14.4933 37.9641 15.02V16.98C37.9641 17.5067 38.0941 17.93 38.3541 18.25C38.6141 18.57 38.9575 18.73 39.3841 18.73H40.4641C40.8908 18.73 41.2308 18.58 41.4841 18.28C41.7441 17.9733 41.8741 17.5733 41.8741 17.08H42.8041C42.8041 17.5733 42.7075 18.01 42.5141 18.39C42.3208 18.77 42.0475 19.0633 41.6941 19.27C41.3408 19.4767 40.9308 19.58 40.4641 19.58H39.3841ZM43.9036 12.5H47.3936C47.9469 12.5 48.3902 12.6567 48.7236 12.97C49.0636 13.2767 49.2336 13.6867 49.2336 14.2V15.2C49.2336 15.74 49.0536 16.1767 48.6936 16.51C48.3402 16.8367 47.8702 17 47.2836 17H44.8536V19.5H43.9036V12.5ZM47.2636 16.16C47.5702 16.16 47.8169 16.07 48.0036 15.89C48.1902 15.7033 48.2836 15.46 48.2836 15.16V14.21C48.2836 13.95 48.2002 13.74 48.0336 13.58C47.8669 13.42 47.6469 13.34 47.3736 13.34H44.8536V16.16H47.2636ZM52.4617 19.58C52.0084 19.58 51.6084 19.4833 51.2617 19.29C50.9217 19.09 50.6584 18.81 50.4717 18.45C50.285 18.09 50.1917 17.6767 50.1917 17.21V12.5H51.1417V17.21C51.1417 17.6633 51.2617 18.03 51.5017 18.31C51.7484 18.59 52.0684 18.73 52.4617 18.73H53.5317C53.925 18.73 54.2417 18.59 54.4817 18.31C54.7284 18.03 54.8517 17.6633 54.8517 17.21V12.5H55.8017V17.21C55.8017 17.6767 55.7084 18.09 55.5217 18.45C55.335 18.81 55.0684 19.09 54.7217 19.29C54.3817 19.4833 53.985 19.58 53.5317 19.58H52.4617Z" fill="#6C728C"/>
<path d="M35.1226 32.612C34.2639 32.612 33.5779 32.374 33.0646 31.898C32.5606 31.4127 32.3086 30.7733 32.3086 29.98H33.6246C33.6246 30.4187 33.7599 30.7687 34.0306 31.03C34.3013 31.2913 34.6653 31.422 35.1226 31.422H36.3266C36.8213 31.422 37.2133 31.254 37.5026 30.918C37.8013 30.582 37.9506 30.1247 37.9506 29.546V28.034C37.6893 28.3327 37.3766 28.566 37.0126 28.734C36.6486 28.902 36.2706 28.986 35.8786 28.986H34.9406C34.3619 28.986 33.8533 28.8647 33.4146 28.622C32.9759 28.3793 32.6353 28.0433 32.3926 27.614C32.1593 27.1753 32.0426 26.6713 32.0426 26.102V25.542C32.0426 24.9633 32.1733 24.45 32.4346 24.002C32.7053 23.554 33.0833 23.2087 33.5686 22.966C34.0539 22.714 34.6139 22.588 35.2486 22.588H36.2286C36.8353 22.588 37.3673 22.7093 37.8246 22.952C38.2913 23.1947 38.6506 23.54 38.9026 23.988C39.1546 24.4267 39.2806 24.9353 39.2806 25.514V29.546C39.2806 30.4887 39.0146 31.2353 38.4826 31.786C37.9506 32.3367 37.2319 32.612 36.3266 32.612H35.1226ZM35.9066 27.824C36.3919 27.824 36.8259 27.6793 37.2086 27.39C37.5913 27.1007 37.8386 26.7273 37.9506 26.27V25.402C37.9506 24.9073 37.7919 24.5107 37.4746 24.212C37.1573 23.904 36.7419 23.75 36.2286 23.75H35.2486C34.6886 23.75 34.2359 23.9133 33.8906 24.24C33.5453 24.5667 33.3726 25.0007 33.3726 25.542V26.102C33.3726 26.6247 33.5126 27.0447 33.7926 27.362C34.0819 27.67 34.4599 27.824 34.9266 27.824H35.9066ZM43.9866 32.612C43.3892 32.612 42.8619 32.4767 42.4046 32.206C41.9472 31.9353 41.5926 31.5573 41.3406 31.072C41.0886 30.5773 40.9626 30.0127 40.9626 29.378V25.822C40.9626 25.1873 41.0886 24.6273 41.3406 24.142C41.5926 23.6473 41.9472 23.2647 42.4046 22.994C42.8619 22.7233 43.3892 22.588 43.9866 22.588H45.4706C46.0586 22.588 46.5766 22.7233 47.0246 22.994C47.4819 23.2647 47.8319 23.6473 48.0746 24.142C48.3266 24.6273 48.4526 25.1873 48.4526 25.822V29.378C48.4526 30.0127 48.3266 30.5773 48.0746 31.072C47.8319 31.5573 47.4866 31.9353 47.0386 32.206C46.5906 32.4767 46.0679 32.612 45.4706 32.612H43.9866ZM45.4426 31.422C45.9466 31.422 46.3526 31.2353 46.6606 30.862C46.9686 30.4887 47.1226 29.994 47.1226 29.378V25.822C47.1226 25.206 46.9686 24.7113 46.6606 24.338C46.3526 23.9647 45.9466 23.778 45.4426 23.778H44.0146C43.5012 23.778 43.0859 23.9647 42.7686 24.338C42.4512 24.7113 42.2926 25.206 42.2926 25.822V29.378C42.2926 29.994 42.4512 30.4887 42.7686 30.862C43.0859 31.2353 43.5012 31.422 44.0146 31.422H45.4426ZM53.1604 32.612C52.5631 32.612 52.0357 32.4767 51.5784 32.206C51.1211 31.9353 50.7664 31.5573 50.5144 31.072C50.2624 30.5773 50.1364 30.0127 50.1364 29.378V25.822C50.1364 25.1873 50.2624 24.6273 50.5144 24.142C50.7664 23.6473 51.1211 23.2647 51.5784 22.994C52.0357 22.7233 52.5631 22.588 53.1604 22.588H54.6444C55.2324 22.588 55.7504 22.7233 56.1984 22.994C56.6557 23.2647 57.0057 23.6473 57.2484 24.142C57.5004 24.6273 57.6264 25.1873 57.6264 25.822V29.378C57.6264 30.0127 57.5004 30.5773 57.2484 31.072C57.0057 31.5573 56.6604 31.9353 56.2124 32.206C55.7644 32.4767 55.2417 32.612 54.6444 32.612H53.1604ZM54.6164 31.422C55.1204 31.422 55.5264 31.2353 55.8344 30.862C56.1424 30.4887 56.2964 29.994 56.2964 29.378V25.822C56.2964 25.206 56.1424 24.7113 55.8344 24.338C55.5264 23.9647 55.1204 23.778 54.6164 23.778H53.1884C52.6751 23.778 52.2597 23.9647 51.9424 24.338C51.6251 24.7113 51.4664 25.206 51.4664 25.822V29.378C51.4664 29.994 51.6251 30.4887 51.9424 30.862C52.2597 31.2353 52.6751 31.422 53.1884 31.422H54.6164Z" fill="#444771"/>
<path d="M65.618 32.612C64.834 32.612 64.204 32.3693 63.728 31.884C63.252 31.3987 63.014 30.7593 63.014 29.966V28.048C63.014 27.2547 63.252 26.6153 63.728 26.13C64.2133 25.6447 64.8526 25.402 65.646 25.402H66.794C67.5873 25.402 68.222 25.6447 68.698 26.13C69.1833 26.6153 69.426 27.2547 69.426 28.048V29.966C69.426 30.7593 69.1833 31.3987 68.698 31.884C68.2126 32.3693 67.5686 32.612 66.766 32.612H65.618ZM66.766 31.716C67.27 31.716 67.6713 31.5573 67.97 31.24C68.2686 30.9133 68.418 30.4887 68.418 29.966V28.048C68.418 27.5253 68.2686 27.1053 67.97 26.788C67.6713 26.4613 67.2793 26.298 66.794 26.298H65.646C65.1606 26.298 64.7686 26.4613 64.47 26.788C64.1713 27.1053 64.022 27.5253 64.022 28.048V29.966C64.022 30.498 64.1666 30.9227 64.456 31.24C64.7453 31.5573 65.1326 31.716 65.618 31.716H66.766ZM71.8963 26.41H70.6923V25.514H71.8963V24.968C71.8963 24.2027 72.0923 23.624 72.4843 23.232C72.8763 22.84 73.4503 22.644 74.2063 22.644H74.7383V23.512H74.2063C73.7583 23.512 73.427 23.6333 73.2123 23.876C73.007 24.1093 72.9043 24.4733 72.9043 24.968V25.514H74.5843V26.41H72.9043V32.5H71.8963V26.41ZM81.5583 23.82L79.3043 24.954V23.974L81.6983 22.7H82.5943V32.5H81.5583V23.82ZM87.5982 32.612C87.0382 32.612 86.5389 32.4813 86.1002 32.22C85.6709 31.9587 85.3349 31.59 85.0922 31.114C84.8495 30.638 84.7282 30.092 84.7282 29.476V25.724C84.7282 25.108 84.8495 24.562 85.0922 24.086C85.3349 23.61 85.6709 23.2413 86.1002 22.98C86.5389 22.7187 87.0382 22.588 87.5982 22.588H89.0822C89.6422 22.588 90.1369 22.7187 90.5662 22.98C90.9955 23.2413 91.3269 23.61 91.5602 24.086C91.8029 24.562 91.9242 25.108 91.9242 25.724V29.476C91.9242 30.092 91.8029 30.638 91.5602 31.114C91.3269 31.59 90.9955 31.9587 90.5662 32.22C90.1369 32.4813 89.6422 32.612 89.0822 32.612H87.5982ZM89.0542 31.688C89.6049 31.688 90.0482 31.4873 90.3842 31.086C90.7202 30.6753 90.8882 30.1387 90.8882 29.476V25.724C90.8882 25.0613 90.7202 24.5293 90.3842 24.128C90.0482 23.7173 89.6049 23.512 89.0542 23.512H87.6262C87.0755 23.512 86.6275 23.7173 86.2822 24.128C85.9369 24.5293 85.7642 25.0613 85.7642 25.724V29.476C85.7642 30.1387 85.9369 30.6753 86.2822 31.086C86.6275 31.4873 87.0755 31.688 87.6262 31.688H89.0542ZM96.649 32.612C96.089 32.612 95.5896 32.4813 95.151 32.22C94.7216 31.9587 94.3856 31.59 94.143 31.114C93.9003 30.638 93.779 30.092 93.779 29.476V25.724C93.779 25.108 93.9003 24.562 94.143 24.086C94.3856 23.61 94.7216 23.2413 95.151 22.98C95.5896 22.7187 96.089 22.588 96.649 22.588H98.133C98.693 22.588 99.1876 22.7187 99.617 22.98C100.046 23.2413 100.378 23.61 100.611 24.086C100.854 24.562 100.975 25.108 100.975 25.724V29.476C100.975 30.092 100.854 30.638 100.611 31.114C100.378 31.59 100.046 31.9587 99.617 32.22C99.1876 32.4813 98.693 32.612 98.133 32.612H96.649ZM98.105 31.688C98.6556 31.688 99.099 31.4873 99.435 31.086C99.771 30.6753 99.939 30.1387 99.939 29.476V25.724C99.939 25.0613 99.771 24.5293 99.435 24.128C99.099 23.7173 98.6556 23.512 98.105 23.512H96.677C96.1263 23.512 95.6783 23.7173 95.333 24.128C94.9876 24.5293 94.815 25.0613 94.815 25.724V29.476C94.815 30.1387 94.9876 30.6753 95.333 31.086C95.6783 31.4873 96.1263 31.688 96.677 31.688H98.105ZM105.7 32.612C105.14 32.612 104.64 32.4813 104.202 32.22C103.772 31.9587 103.436 31.59 103.194 31.114C102.951 30.638 102.83 30.092 102.83 29.476V25.724C102.83 25.108 102.951 24.562 103.194 24.086C103.436 23.61 103.772 23.2413 104.202 22.98C104.64 22.7187 105.14 22.588 105.7 22.588H107.184C107.744 22.588 108.238 22.7187 108.668 22.98C109.097 23.2413 109.428 23.61 109.662 24.086C109.904 24.562 110.026 25.108 110.026 25.724V29.476C110.026 30.092 109.904 30.638 109.662 31.114C109.428 31.59 109.097 31.9587 108.668 32.22C108.238 32.4813 107.744 32.612 107.184 32.612H105.7ZM107.156 31.688C107.706 31.688 108.15 31.4873 108.486 31.086C108.822 30.6753 108.99 30.1387 108.99 29.476V25.724C108.99 25.0613 108.822 24.5293 108.486 24.128C108.15 23.7173 107.706 23.512 107.156 23.512H105.728C105.177 23.512 104.729 23.7173 104.384 24.128C104.038 24.5293 103.866 25.0613 103.866 25.724V29.476C103.866 30.1387 104.038 30.6753 104.384 31.086C104.729 31.4873 105.177 31.688 105.728 31.688H107.156Z" fill="#6C728C"/>
<path d="M149.636 22.908H162.932C162.932 22.908 163.832 12.3326 156.341 12.0042V12L156.284 12.0019L156.227 12V12.0042C148.736 12.3326 149.636 22.908 149.636 22.908Z" fill="#B6B8D6"/>
<path d="M166 28.817C165.773 27.4535 164.636 24.2716 164.182 24.0442C163.962 23.9343 158.981 23.9731 154.279 24.0097H154.275C152.991 24.0197 151.729 24.0295 150.589 24.0361C149.733 24.0411 148.946 24.0442 148.273 24.0442C147.364 25.1808 146.455 26.5445 146.455 28.817H153.986C153.965 28.9652 153.955 29.1175 153.955 29.2727C153.955 30.779 154.972 32 156.227 32C157.482 32 158.5 30.779 158.5 29.2727C158.5 29.1175 158.489 28.9652 158.469 28.817H166Z" fill="#B6B8D6"/>
<defs>
<clipPath id="clip0_7610_1914">
<rect x="11.4546" y="10.5" width="12" height="23" rx="2" fill="white"/>
</clipPath>
</defs>
</svg>
