<svg width="192" height="25" viewBox="0 0 192 25" fill="none" xmlns="http://www.w3.org/2000/svg">
<path d="M7.33945 9.84232C7.33945 10.9662 6.42837 11.8773 5.30449 11.8773C4.18061 11.8773 3.26953 10.9662 3.26953 9.84232C3.26953 8.71844 4.18061 7.80736 5.30449 7.80736C6.42837 7.80736 7.33945 8.71844 7.33945 9.84232Z" fill="#D9DAE6"/>
<path d="M6.757 9.8425C6.757 9.93207 6.75116 10.0217 6.73947 10.1112C6.74726 10.0587 6.75311 10.008 6.7609 9.95544C6.73558 10.1385 6.6869 10.3137 6.61679 10.4832C6.63626 10.4364 6.65574 10.3897 6.67521 10.343C6.62458 10.4598 6.56421 10.5727 6.49216 10.6798C6.48437 10.6915 6.44542 10.7616 6.43374 10.7636C6.44737 10.7616 6.5389 10.6331 6.46295 10.7246C6.42206 10.7733 6.37921 10.8201 6.33443 10.8648C6.28964 10.9096 6.2429 10.9525 6.19422 10.9934C6.15722 11.0226 6.08127 11.0674 6.23317 10.9642C6.2059 10.9836 6.17864 11.0051 6.14943 11.0226C6.04232 11.0946 5.92938 11.155 5.81254 11.2056L5.95275 11.1472C5.78333 11.2193 5.60612 11.266 5.42503 11.2913C5.47761 11.2835 5.52824 11.2777 5.58082 11.2699C5.40166 11.2933 5.22056 11.2933 5.04142 11.2699C5.094 11.2777 5.14462 11.2835 5.1972 11.2913C5.01415 11.266 4.83891 11.2173 4.66948 11.1472L4.80969 11.2056C4.69285 11.155 4.57991 11.0946 4.4728 11.0226C4.46112 11.0148 4.39101 10.9758 4.38907 10.9642C4.39101 10.9778 4.51954 11.0693 4.42801 10.9934C4.37933 10.9525 4.33259 10.9096 4.28781 10.8648C4.24302 10.8201 4.20018 10.7733 4.15928 10.7246C4.13007 10.6876 4.08528 10.6117 4.18849 10.7636C4.16902 10.7363 4.1476 10.7091 4.13007 10.6798C4.05802 10.5727 3.99765 10.4598 3.94702 10.343L4.00544 10.4832C3.93339 10.3137 3.88665 10.1365 3.86134 9.95544C3.86913 10.008 3.87497 10.0587 3.88276 10.1112C3.85939 9.93208 3.85939 9.75098 3.88276 9.57183C3.87497 9.62441 3.86913 9.67504 3.86134 9.72762C3.88665 9.54457 3.93533 9.36933 4.00544 9.1999L3.94702 9.34011C3.99765 9.22327 4.05802 9.11032 4.13007 9.00322C4.13786 8.99154 4.17681 8.92143 4.18849 8.91948C4.17486 8.92143 4.08334 9.04996 4.15928 8.95843C4.20017 8.90975 4.24302 8.86301 4.28781 8.81822C4.33259 8.77343 4.37933 8.73059 4.42801 8.6897C4.46502 8.66049 4.54096 8.6157 4.38907 8.71891C4.41633 8.69943 4.44359 8.67801 4.4728 8.66049C4.57991 8.58844 4.69285 8.52807 4.80969 8.47744C4.76296 8.49691 4.71622 8.51639 4.66948 8.53586C4.8389 8.46381 5.01611 8.41707 5.1972 8.39175C5.14462 8.39954 5.094 8.40538 5.04142 8.41317C5.22057 8.38981 5.40167 8.38981 5.58082 8.41317C5.52824 8.40538 5.47761 8.39954 5.42503 8.39175C5.60808 8.41707 5.78332 8.46575 5.95275 8.53586C5.90601 8.51638 5.85928 8.49691 5.81254 8.47744C5.92938 8.52807 6.04232 8.58844 6.14943 8.66049C6.16111 8.66828 6.23122 8.70722 6.23317 8.71891C6.23122 8.70528 6.10269 8.61375 6.19422 8.6897C6.2429 8.73059 6.28964 8.77343 6.33443 8.81822C6.37921 8.86301 6.42205 8.90975 6.46295 8.95843C6.49216 8.99543 6.53695 9.07138 6.43374 8.91948C6.45321 8.94675 6.47463 8.97401 6.49216 9.00322C6.56421 9.11032 6.62458 9.22327 6.67521 9.34011C6.65574 9.29337 6.63626 9.24664 6.61679 9.1999C6.68884 9.36932 6.73558 9.54653 6.7609 9.72762C6.75311 9.67504 6.74726 9.62441 6.73947 9.57183C6.74921 9.66336 6.75505 9.75293 6.757 9.84252C6.75895 10.1482 7.02379 10.4403 7.3412 10.4267C7.65667 10.4131 7.92735 10.1697 7.92539 9.84252C7.9215 9.32256 7.7696 8.78512 7.46387 8.36059C7.13477 7.90295 6.70441 7.57193 6.17669 7.37327C5.19328 7.00522 3.98398 7.32848 3.31799 8.14249C2.95382 8.58649 2.74352 9.09473 2.69484 9.66725C2.65005 10.1891 2.78831 10.7402 3.05705 11.1881C3.318 11.6224 3.71524 11.9963 4.17677 12.2066C4.71032 12.4481 5.27312 12.5182 5.84759 12.4072C6.85827 12.2124 7.72484 11.3303 7.88063 10.3099C7.904 10.1561 7.92347 10.0022 7.92542 9.8445C7.92737 9.53877 7.65474 9.24667 7.34122 9.26031C7.02186 9.27394 6.75895 9.51541 6.75703 9.84258L6.757 9.8425Z" fill="#D9DAE6"/>
<path d="M12.9065 15.5559C12.9065 17.0066 11.7303 18.1828 10.2795 18.1828C8.82878 18.1828 7.65259 17.0066 7.65259 15.5559C7.65259 14.1051 8.82878 12.9289 10.2795 12.9289C11.7303 12.9289 12.9065 14.1051 12.9065 15.5559Z" fill="#D9DAE6"/>
<path d="M12.3204 15.5558C12.3204 15.6726 12.3126 15.7895 12.297 15.9063C12.3048 15.8537 12.3106 15.8031 12.3184 15.7505C12.2853 15.9842 12.2249 16.2121 12.1334 16.4282L12.1918 16.288C12.1276 16.436 12.0516 16.5801 11.9601 16.7145C11.9367 16.7495 11.9114 16.7846 11.8861 16.8177C11.8335 16.8917 11.9679 16.7184 11.9231 16.7709C11.9095 16.7865 11.8958 16.804 11.8822 16.8196C11.8316 16.8819 11.7771 16.9404 11.7206 16.9968C11.6641 17.0533 11.6037 17.1078 11.5434 17.1585C11.5297 17.1702 11.5161 17.1799 11.5044 17.1896C11.4265 17.2539 11.6018 17.1176 11.5531 17.1526C11.518 17.176 11.4849 17.2033 11.4499 17.2266C11.3116 17.3201 11.1656 17.398 11.0117 17.4642L11.1519 17.4058C10.9338 17.4973 10.7079 17.5596 10.4743 17.5908C10.5269 17.583 10.5775 17.5771 10.6301 17.5694C10.3964 17.5986 10.1627 17.5986 9.93096 17.5694C9.98354 17.5771 10.0342 17.583 10.0867 17.5908C9.85306 17.5577 9.62522 17.4973 9.40908 17.4058L9.54928 17.4642C9.40129 17.3999 9.25718 17.324 9.1228 17.2325C9.08775 17.2091 9.05269 17.1838 9.01959 17.1585C8.94559 17.1059 9.11891 17.2403 9.06633 17.1955C9.05075 17.1818 9.03322 17.1682 9.01764 17.1546C8.95533 17.1039 8.89691 17.0494 8.84043 16.9929C8.78396 16.9365 8.72944 16.8761 8.6788 16.8157C8.66712 16.8021 8.65738 16.7885 8.64765 16.7768C8.58338 16.6989 8.7197 16.8742 8.68465 16.8255C8.66128 16.7904 8.63401 16.7573 8.61065 16.7223C8.51718 16.584 8.43928 16.438 8.37307 16.2841C8.39254 16.3308 8.41202 16.3776 8.43149 16.4243C8.33997 16.2062 8.27765 15.9803 8.24649 15.7466C8.25428 15.7992 8.26012 15.8498 8.26791 15.9024C8.2387 15.6687 8.2387 15.4351 8.26791 15.2033C8.26012 15.2559 8.25428 15.3065 8.24649 15.3591C8.2796 15.1254 8.33997 14.8976 8.43149 14.6814C8.41202 14.7282 8.39254 14.7749 8.37307 14.8217C8.43733 14.6737 8.51328 14.5296 8.6048 14.3952C8.62817 14.3601 8.65349 14.3251 8.6788 14.292C8.73138 14.218 8.59701 14.3913 8.6418 14.3387C8.65543 14.3231 8.66907 14.3056 8.6827 14.29C8.73333 14.2277 8.78785 14.1693 8.84433 14.1128C8.9008 14.0563 8.96117 14.0018 9.02154 13.9512C9.03517 13.9395 9.0488 13.9298 9.06048 13.92C9.13838 13.8558 8.96312 13.9921 9.0118 13.957C9.04685 13.9336 9.07996 13.9064 9.11501 13.883C9.25327 13.7895 9.39932 13.7117 9.55317 13.6454C9.50644 13.6649 9.4597 13.6844 9.41296 13.7039C9.63107 13.6123 9.85697 13.55 10.0906 13.5189C10.0381 13.5267 9.98742 13.5325 9.93484 13.5403C10.1685 13.5111 10.4022 13.5111 10.6339 13.5403C10.5814 13.5325 10.5307 13.5267 10.4782 13.5189C10.7118 13.552 10.9397 13.6123 11.1558 13.7039C11.1091 13.6844 11.0624 13.6649 11.0156 13.6454C11.1636 13.7097 11.3077 13.7857 11.4421 13.8772C11.4772 13.9005 11.5122 13.9259 11.5453 13.9512C11.6193 14.0038 11.446 13.8694 11.4986 13.9142C11.5142 13.9278 11.5317 13.9414 11.5473 13.9551C11.6096 14.0057 11.668 14.0602 11.7245 14.1167C11.7809 14.1732 11.8355 14.2335 11.8861 14.2939C11.8978 14.3075 11.9075 14.3212 11.9173 14.3329C11.9815 14.4107 11.8452 14.2355 11.8803 14.2842C11.9036 14.3192 11.9309 14.3523 11.9543 14.3874C12.0477 14.5256 12.1256 14.6717 12.1918 14.8255L12.1334 14.6853C12.2249 14.9034 12.2873 15.1293 12.3184 15.363C12.3106 15.3104 12.3048 15.2598 12.297 15.2072C12.3126 15.3221 12.3204 15.4389 12.3204 15.5558C12.3223 15.8615 12.5871 16.1536 12.9046 16.14C13.22 16.1264 13.4907 15.8829 13.4887 15.5558C13.4849 14.9132 13.294 14.2569 12.9182 13.7331C12.519 13.1742 11.9854 12.7652 11.3408 12.5276C10.1237 12.0797 8.64765 12.479 7.82783 13.4838C7.38967 14.0213 7.13069 14.6463 7.07421 15.3396C7.02163 15.9842 7.18911 16.6579 7.52406 17.2091C7.84731 17.7426 8.33611 18.2003 8.90667 18.4573C9.55318 18.7475 10.2426 18.8332 10.9397 18.6968C12.188 18.4534 13.2434 17.3746 13.4362 16.1127C13.4654 15.9277 13.4868 15.7427 13.4868 15.5558C13.4888 15.25 13.2161 14.9579 12.9026 14.9716C12.5872 14.9852 12.3223 15.2286 12.3204 15.5558L12.3204 15.5558Z" fill="#D9DAE6"/>
<path d="M18.6473 8.41713C18.6473 9.40445 17.847 10.2048 16.8597 10.2048C15.8724 10.2048 15.072 9.40441 15.072 8.41713C15.072 7.42985 15.8724 6.62947 16.8597 6.62947C17.847 6.62947 18.6473 7.42985 18.6473 8.41713Z" fill="#D9DAE6"/>
<path d="M18.063 8.41702C18.063 8.49881 18.0572 8.57865 18.0475 8.66044C18.0553 8.60786 18.0611 8.55723 18.0689 8.50465C18.0455 8.66044 18.0046 8.81233 17.9443 8.95838L18.0027 8.81817C17.9579 8.91943 17.9073 9.01874 17.8449 9.11222C17.8313 9.13364 17.8157 9.15311 17.8021 9.17453C17.7437 9.25827 17.9053 9.0538 17.8235 9.14727C17.7865 9.18816 17.7515 9.23101 17.7125 9.26995C17.6775 9.305 17.6385 9.34006 17.5996 9.37316C17.5003 9.4569 17.6658 9.32837 17.6288 9.35369C17.6035 9.36926 17.5801 9.38874 17.5567 9.40432C17.4633 9.46663 17.3659 9.51726 17.2627 9.56205L17.4029 9.50363C17.2568 9.564 17.1049 9.6049 16.9492 9.62826C17.0017 9.62047 17.0524 9.61463 17.105 9.60684C16.9433 9.62826 16.7817 9.62826 16.6201 9.60684C16.6727 9.61463 16.7233 9.62047 16.7759 9.62826C16.6201 9.60489 16.4682 9.564 16.3221 9.50363L16.4623 9.56205C16.3611 9.51726 16.2618 9.46663 16.1683 9.40432C16.1469 9.39069 16.1274 9.37511 16.106 9.36148C16.0222 9.30306 16.2267 9.46468 16.1332 9.3829C16.0923 9.3459 16.0495 9.31085 16.0106 9.2719C15.9755 9.23685 15.9405 9.1979 15.9074 9.15895C15.8236 9.05964 15.9521 9.22516 15.9268 9.18816C15.9112 9.16285 15.8918 9.13948 15.8762 9.11611C15.8139 9.02264 15.7632 8.92527 15.7185 8.82206C15.7379 8.8688 15.7574 8.91553 15.7769 8.96227C15.7165 8.81622 15.6756 8.66433 15.6522 8.50855C15.66 8.56113 15.6659 8.61175 15.6737 8.66433C15.6522 8.5027 15.6522 8.34108 15.6737 8.17945C15.6659 8.23203 15.66 8.28266 15.6522 8.33524C15.6756 8.17945 15.7165 8.02756 15.7769 7.88151C15.7574 7.92825 15.7379 7.97499 15.7185 8.02172C15.7632 7.92046 15.8139 7.82115 15.8762 7.72767C15.8898 7.70625 15.9054 7.68678 15.919 7.66536C15.9775 7.58162 15.8158 7.78609 15.8976 7.69262C15.9346 7.65173 15.9697 7.60888 16.0086 7.56994C16.0437 7.53489 16.0826 7.49983 16.1216 7.46673C16.2209 7.38299 16.0553 7.51152 16.0923 7.48621C16.1177 7.47063 16.141 7.45115 16.1644 7.43557C16.2579 7.37326 16.3552 7.32263 16.4584 7.27784C16.4117 7.29731 16.365 7.31679 16.3182 7.33626C16.4643 7.27589 16.6162 7.23499 16.772 7.21163C16.7194 7.21942 16.6688 7.22526 16.6162 7.23305C16.7778 7.21163 16.9394 7.21163 17.1011 7.23305C17.0485 7.22526 16.9979 7.21942 16.9453 7.21163C17.1011 7.235 17.253 7.27589 17.399 7.33626C17.3523 7.31678 17.3055 7.29731 17.2588 7.27784C17.3601 7.32263 17.4594 7.37326 17.5528 7.43557C17.5743 7.4492 17.5937 7.46478 17.6152 7.47841C17.6989 7.53683 17.4944 7.37521 17.5879 7.45699C17.6288 7.49399 17.6716 7.52904 17.7106 7.56799C17.7456 7.60304 17.7807 7.64199 17.8138 7.68094C17.8975 7.78026 17.769 7.61473 17.7943 7.65173C17.8099 7.67704 17.8294 7.70041 17.8449 7.72378C17.9073 7.81725 17.9579 7.91462 18.0027 8.01783L17.9443 7.87762C18.0046 8.02367 18.0455 8.17556 18.0689 8.33134C18.0611 8.27876 18.0553 8.22814 18.0475 8.17556C18.0572 8.25345 18.063 8.33524 18.063 8.41703C18.065 8.72276 18.3298 9.01486 18.6472 9.00122C18.9627 8.98759 19.2334 8.74417 19.2314 8.41703C19.2275 7.94382 19.0893 7.45502 18.8089 7.06945C18.507 6.65468 18.1195 6.35671 17.6385 6.17756C16.7544 5.84846 15.66 6.14056 15.0622 6.87083C14.7253 7.28172 14.5325 7.75104 14.4916 8.28072C14.4566 8.74612 14.5831 9.2388 14.8227 9.63605C15.0583 10.0275 15.4146 10.3624 15.8314 10.5533C16.3182 10.7753 16.8343 10.8376 17.3601 10.7344C18.4447 10.5202 19.2217 9.50365 19.2295 8.41702C19.2315 8.11129 18.9588 7.81919 18.6453 7.83283C18.3298 7.84646 18.067 8.08793 18.063 8.41702H18.063Z" fill="#D9DAE6"/>
<path d="M6.1394 11.8657C6.71583 12.4889 7.29223 13.114 7.86862 13.7371C7.94847 13.8248 8.03026 13.9124 8.11009 13.9981C8.31846 14.224 8.72936 14.224 8.93579 13.9981C9.15778 13.7566 9.15778 13.4119 8.93579 13.1724C8.35935 12.5492 7.78296 11.9241 7.20656 11.301C7.12672 11.2134 7.04493 11.1257 6.96509 11.04C6.75672 10.8141 6.34582 10.8141 6.1394 11.04C5.9174 11.2796 5.9174 11.6242 6.1394 11.8657Z" fill="#D9DAE6"/>
<path d="M12.6456 14.1968C13.0273 13.7664 13.409 13.338 13.7906 12.9076C14.3982 12.2241 15.0058 11.5406 15.6133 10.8551C15.7516 10.6993 15.8899 10.5435 16.0281 10.3878C16.2306 10.1599 16.2696 9.78408 16.0281 9.56206C15.8061 9.35759 15.4186 9.31864 15.2024 9.56206C14.8207 9.99242 14.439 10.4208 14.0574 10.8512C13.4498 11.5347 12.8423 12.2182 12.2347 12.9037C12.0964 13.0595 11.9581 13.2153 11.8199 13.3711C11.6174 13.5989 11.5784 13.9747 11.8199 14.1968C12.0399 14.3993 12.4294 14.4402 12.6456 14.1968Z" fill="#D9DAE6"/>
<path d="M21.2821 12.5454C21.2821 13.038 20.8827 13.4373 20.3902 13.4373C19.8976 13.4373 19.4983 13.038 19.4983 12.5454C19.4983 12.0529 19.8976 11.6535 20.3902 11.6535C20.8827 11.6535 21.2821 12.0529 21.2821 12.5454Z" fill="#D9DAE6"/>
<path d="M20.6982 12.5454C20.6982 12.5824 20.6963 12.6175 20.6924 12.6525C20.7002 12.5999 20.706 12.5493 20.7138 12.4967C20.7041 12.5746 20.6846 12.6506 20.6554 12.7246L20.7138 12.5844C20.6924 12.6369 20.6651 12.6817 20.6378 12.7324C20.5794 12.8375 20.7274 12.633 20.6612 12.7051C20.6437 12.7246 20.6281 12.744 20.6106 12.7616C20.5931 12.7791 20.5736 12.7966 20.5541 12.8122C20.4801 12.8804 20.6729 12.7343 20.5911 12.781C20.5385 12.8122 20.4899 12.8414 20.4334 12.8648L20.5736 12.8064C20.4996 12.8356 20.4256 12.855 20.3458 12.8648C20.3983 12.857 20.449 12.8511 20.5015 12.8434C20.4295 12.8511 20.3574 12.8511 20.2854 12.8434C20.338 12.8511 20.3886 12.857 20.4412 12.8648C20.3633 12.855 20.2873 12.8356 20.2133 12.8064L20.3535 12.8648C20.301 12.8434 20.2562 12.8161 20.2055 12.7888C20.1004 12.7304 20.3049 12.8784 20.2328 12.8122C20.2133 12.7947 20.1939 12.7791 20.1763 12.7616C20.1588 12.744 20.1413 12.7246 20.1257 12.7051C20.0575 12.6311 20.2036 12.8239 20.1569 12.7421C20.1257 12.6895 20.0965 12.6408 20.0731 12.5844C20.0926 12.6311 20.1121 12.6778 20.1315 12.7246C20.1023 12.6506 20.0829 12.5766 20.0731 12.4967C20.0809 12.5493 20.0868 12.5999 20.0945 12.6525C20.0868 12.5805 20.0868 12.5084 20.0945 12.4364C20.0868 12.4889 20.0809 12.5396 20.0731 12.5922C20.0829 12.5143 20.1023 12.4383 20.1315 12.3643C20.1121 12.411 20.0926 12.4578 20.0731 12.5045C20.0945 12.4519 20.1218 12.4072 20.1491 12.3565C20.2075 12.2514 20.0595 12.4558 20.1257 12.3838C20.1432 12.3643 20.1588 12.3448 20.1763 12.3273C20.1939 12.3098 20.2133 12.2923 20.2328 12.2767C20.3068 12.2085 20.114 12.3546 20.1958 12.3078C20.2484 12.2767 20.2971 12.2475 20.3535 12.2241C20.3068 12.2436 20.2601 12.2631 20.2133 12.2825C20.2873 12.2533 20.3613 12.2338 20.4412 12.2241C20.3886 12.2319 20.338 12.2377 20.2854 12.2455C20.3574 12.2377 20.4295 12.2377 20.5015 12.2455C20.449 12.2377 20.3983 12.2319 20.3458 12.2241C20.4236 12.2338 20.4996 12.2533 20.5736 12.2825C20.5269 12.263 20.4801 12.2436 20.4334 12.2241C20.486 12.2455 20.5307 12.2728 20.5814 12.3001C20.6865 12.3585 20.4821 12.2105 20.5541 12.2767C20.5736 12.2942 20.5931 12.3098 20.6106 12.3273C20.6281 12.3448 20.6456 12.3643 20.6612 12.3838C20.7294 12.4578 20.5833 12.265 20.6301 12.3468C20.6612 12.3994 20.6904 12.448 20.7138 12.5045L20.6554 12.3643C20.6846 12.4383 20.7041 12.5123 20.7138 12.5921C20.706 12.5396 20.7002 12.4889 20.6924 12.4364C20.6963 12.4734 20.6982 12.5084 20.6982 12.5454C20.7021 12.8511 20.9631 13.1432 21.2824 13.1296C21.5959 13.116 21.8724 12.8726 21.8666 12.5454C21.8569 11.9047 21.4557 11.3614 20.8579 11.1472C20.3165 10.9525 19.6447 11.1336 19.2805 11.5776C19.0663 11.8366 18.9456 12.1287 18.9203 12.4636C18.8969 12.7479 18.9768 13.0576 19.1248 13.301C19.2689 13.5386 19.485 13.7508 19.7382 13.8657C20.0517 14.0098 20.3672 14.0468 20.7079 13.9845C21.3856 13.8618 21.8588 13.2114 21.8686 12.5435C21.8725 12.2377 21.5959 11.9456 21.2844 11.9593C20.9611 11.9748 20.7041 12.2163 20.6982 12.5454L20.6982 12.5454Z" fill="#D9DAE6"/>
<path d="M17.7283 10.2242C18.2248 10.7753 18.7234 11.3244 19.22 11.8755C19.2901 11.9534 19.3602 12.0294 19.4303 12.1073C19.6367 12.3351 20.0495 12.3312 20.256 12.1073C20.4799 11.8638 20.476 11.5231 20.256 11.2816C19.7594 10.7305 19.2609 10.1813 18.7643 9.63022C18.6942 9.55233 18.6241 9.47638 18.554 9.39849C18.3475 9.17065 17.9347 9.17454 17.7283 9.39849C17.5063 9.63996 17.5102 9.98076 17.7283 10.2242Z" fill="#D9DAE6"/>
<path d="M33.036 7.24318H37.95C38.706 7.24318 39.3127 7.45785 39.77 7.88718C40.2367 8.30718 40.47 8.86252 40.47 9.55318V10.5612C40.47 11.0465 40.316 11.4758 40.008 11.8492C39.7093 12.2225 39.2987 12.4932 38.776 12.6612V12.6752C39.3267 13.0018 39.7373 13.5992 40.008 14.4672L40.778 17.0432H39.406L38.65 14.5232C38.5193 14.0845 38.3093 13.7392 38.02 13.4872C37.74 13.2352 37.418 13.1092 37.054 13.1092H34.366V17.0432H33.036V7.24318ZM37.586 11.9332C38.0527 11.9332 38.426 11.8072 38.706 11.5552C38.9953 11.3032 39.14 10.9718 39.14 10.5612V9.53918C39.14 9.20318 39.028 8.93252 38.804 8.72718C38.58 8.52185 38.286 8.41918 37.922 8.41918H34.366V11.9332H37.586ZM43.3285 17.0432C43.0112 17.0432 42.7545 16.9498 42.5585 16.7632C42.3625 16.5672 42.2645 16.3105 42.2645 15.9932V7.24318H46.6465C47.4958 7.24318 48.1772 7.44852 48.6905 7.85918C49.2132 8.26052 49.4745 8.79718 49.4745 9.46918V10.1972C49.4745 10.5332 49.3952 10.8505 49.2365 11.1492C49.0872 11.4478 48.8725 11.6905 48.5925 11.8772V11.8912C49.0405 12.0218 49.3998 12.2645 49.6705 12.6192C49.9505 12.9645 50.0905 13.3658 50.0905 13.8232V14.5232C50.0905 15.2885 49.8338 15.8998 49.3205 16.3572C48.8165 16.8145 48.1305 17.0432 47.2625 17.0432H43.3285ZM46.8425 11.5412C47.2345 11.5412 47.5472 11.4198 47.7805 11.1772C48.0232 10.9252 48.1445 10.5938 48.1445 10.1832V9.53918C48.1445 9.20318 48.0045 8.93252 47.7245 8.72718C47.4445 8.52185 47.0805 8.41918 46.6325 8.41918H43.5945V11.5412H46.8425ZM47.1225 15.8672C47.6265 15.8672 48.0232 15.7412 48.3125 15.4892C48.6112 15.2372 48.7605 14.9012 48.7605 14.4812V13.8232C48.7605 13.4778 48.6345 13.1978 48.3825 12.9832C48.1305 12.7685 47.7992 12.6612 47.3885 12.6612H43.5945V15.8672H47.1225ZM57.107 14.4672H53.019L52.067 17.0432H50.681L54.475 7.24318H55.077C55.4784 7.24318 55.763 7.46251 55.931 7.90118L59.445 17.0432H58.073L57.107 14.4672ZM53.411 13.3472H56.715L55.077 8.92318H55.063L53.411 13.3472ZM63.4314 17.1552C62.7781 17.1552 62.1994 17.0058 61.6954 16.7072C61.1914 16.4085 60.7994 15.9885 60.5194 15.4472C60.2488 14.8965 60.1134 14.2618 60.1134 13.5432V10.7432C60.1134 10.0245 60.2534 9.39452 60.5334 8.85318C60.8134 8.30252 61.2054 7.87785 61.7094 7.57918C62.2228 7.28052 62.8154 7.13118 63.4874 7.13118H64.9714C65.6061 7.13118 66.1661 7.27118 66.6514 7.55118C67.1461 7.82185 67.5241 8.20452 67.7854 8.69918C68.0561 9.19385 68.1914 9.76318 68.1914 10.4072H66.8894C66.8894 9.78185 66.7121 9.27785 66.3574 8.89518C66.0121 8.51252 65.5501 8.32118 64.9714 8.32118H63.4874C62.8808 8.32118 62.3861 8.54518 62.0034 8.99318C61.6301 9.44118 61.4434 10.0338 61.4434 10.7712V13.5152C61.4434 14.2525 61.6254 14.8452 61.9894 15.2932C62.3534 15.7412 62.8341 15.9652 63.4314 15.9652H64.9434C65.5408 15.9652 66.0168 15.7552 66.3714 15.3352C66.7354 14.9058 66.9174 14.3458 66.9174 13.6552H68.2194C68.2194 14.3458 68.0841 14.9572 67.8134 15.4892C67.5428 16.0212 67.1601 16.4318 66.6654 16.7212C66.1708 17.0105 65.5968 17.1552 64.9434 17.1552H63.4314Z" fill="#D9DAE6"/>
</svg>
