<svg width="274" height="129" viewBox="0 0 274 129" fill="none" xmlns="http://www.w3.org/2000/svg">
<path fill-rule="evenodd" clip-rule="evenodd" d="M119.077 87.685C114.822 84.7931 109.61 82.0334 103.49 79.5223C73.1008 67.0524 31.8495 65.4347 11.3527 75.9091C-9.14404 86.3835 -1.12459 104.983 29.2647 117.453C55.9684 128.411 91.0593 130.989 113.085 124.346C133.802 128.341 184.189 131.315 216.24 126.544C266.414 119.075 280.51 99.7039 271.414 86.8903C262.318 74.0766 214.27 69.7438 164.096 77.2126C146.71 79.8007 131.35 83.4663 119.077 87.685Z" fill="#EEF5FF"/>
<path d="M56.7363 53.6753C58.7363 9.85743 180.736 -39.6426 215.736 55.3574" stroke="#4E98F4" stroke-width="2" stroke-dasharray="10 10"/>
<g opacity="0.9">
<path d="M32.6382 100.16L57.4832 114.481L82.1484 100.264L57.3035 85.958L32.6382 100.16Z" fill="#206DCB" stroke="#2868F3" stroke-miterlimit="10" stroke-linecap="round" stroke-linejoin="round"/>
<path d="M28.7261 103.12L57.041 86.8242V78.4305L28.7261 94.7264V103.12Z" fill="#A0C6F4"/>
<path d="M28.6063 102.961L56.2627 119.257V110.864L28.6063 94.5677V102.961Z" fill="#3D8FF6"/>
<path d="M56.9217 86.8242L84.5781 103.12V94.7264L56.9217 78.4305V86.8242Z" fill="#3D8FF6"/>
<path d="M56.2627 119.257L84.5776 102.961V94.5677L56.2627 110.864V119.257Z" fill="#3D8FF6"/>
<path d="M32.6382 82.9127L57.4832 97.234L82.1484 83.0174L57.3035 68.7111L32.6382 82.9127Z" fill="#206DCB" stroke="#2868F3" stroke-miterlimit="10" stroke-linecap="round" stroke-linejoin="round"/>
<path d="M56.4644 90.4053L84.5776 74.0035V90.609L56.2627 107.011L28.3512 90.609V74.0035L56.4644 90.4053Z" fill="#A0C6F4"/>
<path d="M28.7256 90.8727L57.0405 74.5768V58.1831L28.7256 74.479V90.8727Z" fill="#A0C6F4"/>
<path d="M28.6058 90.714L56.2622 107.01V90.6162L28.6058 74.3203V90.714Z" fill="#3D8FF6"/>
<path d="M56.9217 74.5766L84.5781 90.8724V74.4787L56.9217 58.1829V74.5766Z" fill="#3D8FF6"/>
<path d="M56.2627 107.01L84.5776 90.714V74.3203L56.2627 90.6162V107.01Z" fill="#3D8FF6"/>
<path d="M56.4644 91.0765L84.5776 74.0035V74.6735L56.4644 91.7465L28.3531 74.6735L28.3512 74.0035L56.4644 91.0765Z" fill="white"/>
<path opacity="0.7" d="M97.5366 41.4023L83.3633 75.0133L56.6958 91.6163L29.0999 75.0133L15.7365 41.4023H97.5366Z" fill="url(#paint0_linear_7617_41952)"/>
</g>
<g opacity="0.9">
<path d="M190.638 104.16L215.483 118.481L240.148 104.264L215.303 89.958L190.638 104.16Z" fill="#206DCB" stroke="#2868F3" stroke-miterlimit="10" stroke-linecap="round" stroke-linejoin="round"/>
<path d="M186.726 107.12L215.041 90.8242V82.4305L186.726 98.7264V107.12Z" fill="#A0C6F4"/>
<path d="M186.606 106.961L214.263 123.257V114.864L186.606 98.5677V106.961Z" fill="#3D8FF6"/>
<path d="M214.922 90.8242L242.578 107.12V98.7264L214.922 82.4305V90.8242Z" fill="#3D8FF6"/>
<path d="M214.263 123.257L242.578 106.961V98.5677L214.263 114.864V123.257Z" fill="#3D8FF6"/>
<path d="M190.638 86.9127L215.483 101.234L240.148 87.0174L215.303 72.7111L190.638 86.9127Z" fill="#206DCB" stroke="#2868F3" stroke-miterlimit="10" stroke-linecap="round" stroke-linejoin="round"/>
<path d="M214.464 94.4053L242.578 78.0035V94.609L214.263 111.011L186.351 94.609V78.0035L214.464 94.4053Z" fill="#A0C6F4"/>
<path d="M186.726 94.8727L215.041 78.5768V62.1831L186.726 78.479V94.8727Z" fill="#A0C6F4"/>
<path d="M186.606 94.714L214.262 111.01V94.6162L186.606 78.3203V94.714Z" fill="#3D8FF6"/>
<path d="M214.922 78.5766L242.578 94.8724V78.4787L214.922 62.1829V78.5766Z" fill="#3D8FF6"/>
<path d="M214.263 111.01L242.578 94.714V78.3203L214.263 94.6162V111.01Z" fill="#3D8FF6"/>
<path d="M214.464 95.0765L242.578 78.0035V78.6735L214.464 95.7465L186.353 78.6735L186.351 78.0035L214.464 95.0765Z" fill="white"/>
<path opacity="0.7" d="M255.537 45.4023L241.363 79.0133L214.696 95.6163L187.1 79.0133L173.736 45.4023H255.537Z" fill="url(#paint1_linear_7617_41952)"/>
</g>
<g opacity="0.8">
<path d="M219.818 64.3324V56.6237L214.912 53.8123V61.4907L212.702 60.2211L217.365 70.1366L222.06 65.602L219.818 64.3324Z" fill="#249BD6"/>
<path fill-rule="evenodd" clip-rule="evenodd" d="M214.841 53.6797C214.888 53.6527 214.945 53.6526 214.992 53.6794L219.898 56.4909C219.945 56.5178 219.974 56.5678 219.974 56.6219V64.2426L222.139 65.4688C222.18 65.4923 222.208 65.534 222.214 65.5812C222.22 65.6285 222.204 65.6758 222.169 65.7089L217.475 70.2434C217.44 70.2774 217.391 70.2923 217.343 70.2835C217.294 70.2747 217.254 70.2432 217.233 70.1991L212.569 60.2836C212.541 60.2238 212.555 60.1528 212.604 60.1081C212.652 60.0634 212.724 60.0554 212.782 60.0883L214.765 61.2276V53.8105C214.765 53.7566 214.794 53.7067 214.841 53.6797ZM215.068 54.0716V61.489C215.068 61.543 215.039 61.5928 214.993 61.6198C214.946 61.6469 214.888 61.6469 214.841 61.62L213.048 60.5899L217.417 69.8791L221.813 65.6321L219.748 64.4621C219.701 64.4352 219.671 64.385 219.671 64.3306V56.7095L215.068 54.0716Z" fill="#12143D"/>
<path d="M210.191 60.9152L212.402 60.4617L212.523 62.9709L210.191 60.9152Z" fill="#3D92F9"/>
<path fill-rule="evenodd" clip-rule="evenodd" d="M212.68 60.1021C212.785 60.1833 212.849 60.3062 212.855 60.4385L212.976 62.9476C212.985 63.1297 212.884 63.2993 212.719 63.3782C212.555 63.4571 212.359 63.43 212.222 63.3094L209.89 61.2537C209.761 61.1399 209.707 60.9631 209.752 60.7971C209.796 60.631 209.931 60.5042 210.099 60.4696L212.31 60.0162C212.44 59.9895 212.575 60.0209 212.68 60.1021ZM211.173 61.1752L212.017 61.9189L211.973 61.0111L211.173 61.1752Z" fill="#2868F2"/>
<path d="M217.308 65.0269V57.3182L212.402 54.4766V62.1853L210.191 60.9156L214.855 70.8009L219.549 66.2966L217.308 65.0269Z" fill="#3D92F9"/>
<path fill-rule="evenodd" clip-rule="evenodd" d="M212.175 54.0835C212.315 54.0026 212.489 54.0029 212.629 54.0843L217.535 56.9259C217.675 57.007 217.762 57.1565 217.762 57.3181V64.7628L219.773 65.9021C219.897 65.9728 219.981 66.0981 219.999 66.2401C220.017 66.3821 219.967 66.5242 219.863 66.6234L215.169 71.1277C215.064 71.2289 214.916 71.2732 214.772 71.2467C214.628 71.2202 214.506 71.1261 214.443 70.994L209.78 61.1087C209.695 60.9295 209.737 60.7162 209.883 60.582C210.029 60.4478 210.245 60.4237 210.417 60.5225L211.947 61.4011V54.4765C211.947 54.3143 212.034 54.1645 212.175 54.0835ZM212.856 55.2638V62.1852C212.856 62.347 212.769 62.4967 212.629 62.5777C212.488 62.6587 212.315 62.6589 212.175 62.5782L211.218 62.0286L214.996 70.0361L218.795 66.3908L217.083 65.4212C216.941 65.3406 216.853 65.19 216.853 65.0268V57.5793L212.856 55.2638Z" fill="#2868F2"/>
<path d="M212.401 54.4773L214.914 53.8123L219.821 56.6237L217.307 57.319L212.401 54.4773Z" fill="#3D92F9"/>
<path fill-rule="evenodd" clip-rule="evenodd" d="M214.798 53.3726C214.914 53.342 215.037 53.3581 215.141 53.4176L220.047 56.229C220.206 56.3201 220.294 56.4976 220.271 56.679C220.248 56.8605 220.119 57.0104 219.942 57.0593L217.428 57.7546C217.311 57.7871 217.185 57.771 217.079 57.7098L212.173 54.8682C212.014 54.7761 211.926 54.5975 211.951 54.4157C211.975 54.2338 212.107 54.0846 212.285 54.0376L214.798 53.3726ZM213.578 54.6336L217.37 56.8297L218.652 56.4752L214.85 54.297L213.578 54.6336Z" fill="#2868F2"/>
<path d="M217.308 65.0277L219.822 64.3324V56.6237L217.308 57.3189V65.0277Z" fill="#3D92F9"/>
<path fill-rule="evenodd" clip-rule="evenodd" d="M220.097 56.2614C220.21 56.3471 220.276 56.4806 220.276 56.6223V64.331C220.276 64.5348 220.14 64.7135 219.943 64.768L217.43 65.4633C217.293 65.5011 217.146 65.4729 217.033 65.3872C216.92 65.3014 216.854 65.1679 216.854 65.0263V57.3176C216.854 57.1138 216.99 56.935 217.187 56.8806L219.701 56.1853C219.837 56.1475 219.984 56.1756 220.097 56.2614ZM217.763 57.6625V64.4301L219.368 63.9861V57.2185L217.763 57.6625Z" fill="#2868F2"/>
<path d="M222.063 65.6003L219.549 66.2957L217.308 65.026L219.822 64.3307L222.063 65.6003Z" fill="#3D92F9"/>
<path fill-rule="evenodd" clip-rule="evenodd" d="M219.701 63.8948C219.817 63.8627 219.941 63.878 220.046 63.9374L222.287 65.2071C222.447 65.2976 222.536 65.4752 222.514 65.6571C222.491 65.839 222.361 65.9895 222.184 66.0385L219.671 66.7338C219.554 66.7659 219.43 66.7506 219.325 66.6911L217.084 65.4215C216.924 65.331 216.835 65.1534 216.857 64.9715C216.88 64.7896 217.01 64.6391 217.187 64.5901L219.701 63.8948ZM218.485 65.1722L219.61 65.8095L220.886 65.4564L219.762 64.819L218.485 65.1722Z" fill="#2868F2"/>
<path d="M214.854 70.801L217.368 70.136L222.062 65.6014L219.549 66.2967L214.854 70.801Z" fill="#3D92F9"/>
<path fill-rule="evenodd" clip-rule="evenodd" d="M222.457 65.3762C222.56 65.5562 222.527 65.783 222.378 65.9272L217.684 70.4618C217.628 70.5157 217.56 70.5544 217.485 70.5742L214.971 71.2393C214.771 71.2923 214.56 71.2034 214.459 71.0233C214.357 70.8432 214.391 70.6173 214.54 70.4741L219.234 65.9698C219.288 65.9176 219.355 65.8798 219.427 65.8597L221.941 65.1644C222.141 65.109 222.353 65.1962 222.457 65.3762ZM219.781 66.7031L216.435 69.9138L217.137 69.7279L220.464 66.5139L219.781 66.7031Z" fill="#2868F2"/>
</g>
<defs>
<linearGradient id="paint0_linear_7617_41952" x1="56.6328" y1="104.008" x2="56.6328" y2="44.6491" gradientUnits="userSpaceOnUse">
<stop stop-color="#3D92F9"/>
<stop offset="1" stop-color="#3D92F9" stop-opacity="0"/>
</linearGradient>
<linearGradient id="paint1_linear_7617_41952" x1="214.633" y1="108.008" x2="214.633" y2="48.6491" gradientUnits="userSpaceOnUse">
<stop stop-color="#3D92F9"/>
<stop offset="1" stop-color="#3D92F9" stop-opacity="0"/>
</linearGradient>
</defs>
</svg>
