<svg width="220" height="44" viewBox="0 0 220 44" fill="none" xmlns="http://www.w3.org/2000/svg">
<path d="M1.088 16.8H6.864C7.78133 16.8 8.52267 17.0507 9.088 17.552C9.65333 18.0533 9.936 18.7147 9.936 19.536V20.672C9.936 21.2267 9.76533 21.7173 9.424 22.144C9.09333 22.56 8.62933 22.8693 8.032 23.072V23.104C8.37333 23.3067 8.64533 23.568 8.848 23.888C9.06133 24.1973 9.24267 24.6027 9.392 25.104L10.288 28H8.352L7.488 25.232C7.34933 24.752 7.136 24.384 6.848 24.128C6.56 23.872 6.224 23.744 5.84 23.744H2.96V28H1.088V16.8ZM6.448 22.128C6.93867 22.128 7.328 21.9947 7.616 21.728C7.91467 21.4613 8.064 21.1147 8.064 20.688V19.584C8.064 19.2427 7.952 18.9653 7.728 18.752C7.504 18.5387 7.20533 18.432 6.832 18.432H2.96V22.128H6.448ZM14.6871 28.128C14.0365 28.128 13.4605 28.0053 12.9591 27.76C12.4685 27.5147 12.0845 27.168 11.8071 26.72C11.5405 26.272 11.4071 25.7547 11.4071 25.168V23.024C11.4071 22.4053 11.5405 21.8613 11.8071 21.392C12.0845 20.912 12.4685 20.544 12.9591 20.288C13.4605 20.0213 14.0365 19.888 14.6871 19.888H15.9671C16.9378 19.888 17.7165 20.1707 18.3031 20.736C18.8898 21.3013 19.1831 22.0533 19.1831 22.992V24.592H13.2471V25.168C13.2471 25.5947 13.3751 25.936 13.6311 26.192C13.8978 26.448 14.2498 26.576 14.6871 26.576H15.9191C16.3458 26.576 16.6871 26.4747 16.9431 26.272C17.2098 26.0587 17.3431 25.7813 17.3431 25.44H19.1511C19.1511 26.2507 18.8525 26.9013 18.2551 27.392C17.6578 27.8827 16.8738 28.128 15.9031 28.128H14.6871ZM17.3751 23.216V22.992C17.3751 22.5227 17.2471 22.144 16.9911 21.856C16.7351 21.568 16.3991 21.424 15.9831 21.424H14.6871C14.2498 21.424 13.8925 21.5787 13.6151 21.888C13.3485 22.1867 13.2151 22.5813 13.2151 23.072V23.216H17.3751ZM20.8365 20.016H22.5485V20.96C22.7725 20.64 23.0605 20.384 23.4125 20.192C23.7752 19.9893 24.1272 19.888 24.4685 19.888H25.5245C26.4525 19.888 27.1992 20.1707 27.7645 20.736C28.3405 21.2907 28.6285 22.0267 28.6285 22.944V24.8C28.6285 25.8027 28.3458 26.608 27.7805 27.216C27.2152 27.824 26.4632 28.128 25.5245 28.128H24.4525C24.1432 28.128 23.8232 28.0533 23.4925 27.904C23.1618 27.744 22.8898 27.536 22.6765 27.28V31.2H20.8365V20.016ZM25.3325 26.544C25.7698 26.544 26.1218 26.3733 26.3885 26.032C26.6658 25.6907 26.8045 25.2427 26.8045 24.688V23.056C26.8045 22.5867 26.6712 22.208 26.4045 21.92C26.1378 21.6213 25.7858 21.472 25.3485 21.472H24.3245C23.9618 21.472 23.6258 21.616 23.3165 21.904C23.0178 22.1813 22.8045 22.544 22.6765 22.992V24.848C22.7298 25.3493 22.9058 25.76 23.2045 26.08C23.5138 26.3893 23.8818 26.544 24.3085 26.544H25.3325ZM32.9281 28C32.0321 28 31.3761 27.8133 30.9601 27.44C30.5548 27.056 30.3521 26.4533 30.3521 25.632V16.8H32.1921V25.552C32.1921 25.8613 32.2561 26.0853 32.3841 26.224C32.5121 26.352 32.7255 26.416 33.0241 26.416H33.7921V28H32.9281ZM36.1459 19.12C35.7832 19.12 35.4899 19.0133 35.2659 18.8C35.0525 18.576 34.9459 18.2933 34.9459 17.952C34.9459 17.6107 35.0525 17.3333 35.2659 17.12C35.4899 16.896 35.7832 16.784 36.1459 16.784C36.5085 16.784 36.8019 16.896 37.0259 17.12C37.2499 17.3333 37.3619 17.6107 37.3619 17.952C37.3619 18.2933 37.2499 18.576 37.0259 18.8C36.8019 19.0133 36.5085 19.12 36.1459 19.12ZM35.2339 20.016H37.0739V28H35.2339V20.016ZM42.3426 28.128C41.3613 28.128 40.572 27.8453 39.9746 27.28C39.388 26.7147 39.0946 25.968 39.0946 25.04V23.024C39.0946 22.4053 39.228 21.8613 39.4946 21.392C39.7613 20.912 40.14 20.544 40.6306 20.288C41.1213 20.0213 41.6866 19.888 42.3266 19.888H43.6066C44.524 19.888 45.26 20.1547 45.8146 20.688C46.38 21.2107 46.6626 21.904 46.6626 22.768H44.8546C44.8546 22.384 44.7373 22.0747 44.5026 21.84C44.2786 21.5947 43.98 21.472 43.6066 21.472H42.3426C41.9266 21.472 41.5853 21.6267 41.3186 21.936C41.0626 22.2453 40.9346 22.6453 40.9346 23.136V24.928C40.9346 25.408 41.0626 25.7973 41.3186 26.096C41.5853 26.3947 41.932 26.544 42.3586 26.544H43.6226C44.0173 26.544 44.332 26.4 44.5666 26.112C44.812 25.824 44.9346 25.4507 44.9346 24.992H46.7426C46.7426 25.9307 46.4546 26.688 45.8786 27.264C45.3133 27.84 44.5613 28.128 43.6226 28.128H42.3426ZM50.6908 28.128C49.8801 28.128 49.2241 27.9253 48.7228 27.52C48.2321 27.104 47.9868 26.5547 47.9868 25.872V25.296C47.9868 24.624 48.2428 24.0853 48.7548 23.68C49.2774 23.2747 49.9601 23.072 50.8028 23.072H51.7948C52.0934 23.072 52.4134 23.1147 52.7548 23.2C53.0961 23.2853 53.4001 23.3973 53.6668 23.536V22.544C53.6668 22.2133 53.5601 21.9467 53.3468 21.744C53.1334 21.5413 52.8561 21.44 52.5148 21.44H51.1708C50.8188 21.44 50.5361 21.5253 50.3228 21.696C50.1094 21.856 50.0028 22.0693 50.0028 22.336H48.2108C48.2108 21.6 48.4828 21.008 49.0268 20.56C49.5708 20.112 50.2854 19.888 51.1708 19.888H52.5148C53.4108 19.888 54.1308 20.1333 54.6748 20.624C55.2188 21.104 55.4908 21.744 55.4908 22.544V28H53.7788V26.992C53.5228 27.3333 53.2028 27.6107 52.8188 27.824C52.4348 28.0267 52.0561 28.128 51.6828 28.128H50.6908ZM51.7948 26.688C52.2214 26.688 52.6054 26.5707 52.9468 26.336C53.2881 26.0907 53.5281 25.7707 53.6668 25.376V24.992C53.4854 24.8427 53.2294 24.7253 52.8988 24.64C52.5681 24.544 52.2214 24.496 51.8588 24.496H50.8508C50.5308 24.496 50.2694 24.576 50.0668 24.736C49.8748 24.896 49.7788 25.104 49.7788 25.36V25.808C49.7788 26.0747 49.8801 26.288 50.0828 26.448C50.2854 26.608 50.5521 26.688 50.8828 26.688H51.7948ZM60.8219 28C59.9152 28 59.2539 27.7973 58.8379 27.392C58.4219 26.9867 58.2139 26.3467 58.2139 25.472V21.6H56.8059V20.016H58.2619V17.6H60.0539V20.016H62.1339V21.6H60.0539V25.408C60.0539 25.76 60.1232 26.016 60.2619 26.176C60.4005 26.336 60.6192 26.416 60.9179 26.416H62.1339V28H60.8219ZM66.5778 28.128C65.9271 28.128 65.3511 28.0053 64.8498 27.76C64.3591 27.5147 63.9751 27.168 63.6978 26.72C63.4311 26.272 63.2978 25.7547 63.2978 25.168V23.024C63.2978 22.4053 63.4311 21.8613 63.6978 21.392C63.9751 20.912 64.3591 20.544 64.8498 20.288C65.3511 20.0213 65.9271 19.888 66.5778 19.888H67.8578C68.8284 19.888 69.6071 20.1707 70.1938 20.736C70.7804 21.3013 71.0738 22.0533 71.0738 22.992V24.592H65.1378V25.168C65.1378 25.5947 65.2658 25.936 65.5218 26.192C65.7884 26.448 66.1404 26.576 66.5778 26.576H67.8098C68.2364 26.576 68.5778 26.4747 68.8338 26.272C69.1004 26.0587 69.2338 25.7813 69.2338 25.44H71.0417C71.0417 26.2507 70.7431 26.9013 70.1458 27.392C69.5484 27.8827 68.7644 28.128 67.7938 28.128H66.5778ZM69.2658 23.216V22.992C69.2658 22.5227 69.1378 22.144 68.8818 21.856C68.6258 21.568 68.2898 21.424 67.8738 21.424H66.5778C66.1404 21.424 65.7831 21.5787 65.5058 21.888C65.2391 22.1867 65.1058 22.5813 65.1058 23.072V23.216H69.2658Z" fill="#5A607C"/>
</svg>
