<svg width="92" height="25" viewBox="0 0 92 25" fill="none" xmlns="http://www.w3.org/2000/svg">
<path d="M12.7758 7.7233C13.3062 7.7233 13.815 7.93401 14.19 8.30908C14.5651 8.68416 14.7758 9.19286 14.7758 9.7233C14.7758 10.8333 13.8758 11.7233 12.7758 11.7233C12.2454 11.7233 11.7367 11.5126 11.3616 11.1375C10.9865 10.7624 10.7758 10.2537 10.7758 9.7233C10.7758 9.19286 10.9865 8.68416 11.3616 8.30908C11.7367 7.93401 12.2454 7.7233 12.7758 7.7233ZM17.7758 15.7233C17.7758 16.8333 16.8858 17.7233 15.7758 17.7233C15.2454 17.7233 14.7367 17.5126 14.3616 17.1375C13.9865 16.7624 13.7758 16.2537 13.7758 15.7233C13.7758 15.1929 13.9865 14.6842 14.3616 14.3091C14.7367 13.934 15.2454 13.7233 15.7758 13.7233C16.8858 13.7233 17.7758 14.6233 17.7758 15.7233ZM12.7758 20.7233C16.0874 20.7233 19.0806 19.3982 21.2766 17.2428C21.5837 16.9413 21.6335 16.4703 21.4226 16.0953L13.6474 2.27277C13.2651 1.59311 12.2865 1.59311 11.9042 2.27276L4.12825 16.0968C3.91768 16.4711 3.96684 16.9411 4.2729 17.2425C6.46212 19.398 9.46407 20.7233 12.7758 20.7233Z" fill="#9BB7F3"/>
<path d="M8.77582 9.7233C9.30625 9.7233 9.81496 9.93401 10.19 10.3091C10.5651 10.6842 10.7758 11.1929 10.7758 11.7233C10.7758 12.8333 9.87582 13.7233 8.77582 13.7233C8.24538 13.7233 7.73668 13.5126 7.3616 13.1375C6.98653 12.7624 6.77582 12.2537 6.77582 11.7233C6.77582 11.1929 6.98653 10.6842 7.3616 10.3091C7.73668 9.93401 8.24538 9.7233 8.77582 9.7233ZM13.7758 17.7233C13.7758 18.8333 12.8858 19.7233 11.7758 19.7233C11.2454 19.7233 10.7367 19.5126 10.3616 19.1375C9.98653 18.7624 9.77582 18.2537 9.77582 17.7233C9.77582 17.1929 9.98653 16.6842 10.3616 16.3091C10.7367 15.934 11.2454 15.7233 11.7758 15.7233C12.8858 15.7233 13.7758 16.6233 13.7758 17.7233ZM8.77582 22.7233C12.0874 22.7233 15.0806 21.3982 17.2766 19.2428C17.5837 18.9413 17.6335 18.4703 17.4226 18.0953L9.64739 4.27277C9.26509 3.59311 8.28654 3.59311 7.90424 4.27276L0.128248 18.0968C-0.082325 18.4711 -0.0331554 18.9411 0.2729 19.2425C2.46212 21.398 5.46407 22.7233 8.77582 22.7233Z" fill="white"/>
<path d="M30.5868 7.44316H35.5008C36.2568 7.44316 36.8634 7.65783 37.3208 8.08716C37.7874 8.50716 38.0208 9.0625 38.0208 9.75316V10.7612C38.0208 11.2465 37.8668 11.6758 37.5588 12.0492C37.2601 12.4225 36.8494 12.6932 36.3268 12.8612V12.8752C36.8774 13.2018 37.2881 13.7992 37.5588 14.6672L38.3288 17.2432H36.9568L36.2008 14.7232C36.0701 14.2845 35.8601 13.9392 35.5708 13.6872C35.2908 13.4352 34.9688 13.3092 34.6048 13.3092H31.9168V17.2432H30.5868V7.44316ZM35.1368 12.1332C35.6034 12.1332 35.9768 12.0072 36.2568 11.7552C36.5461 11.5032 36.6908 11.1718 36.6908 10.7612V9.73916C36.6908 9.40316 36.5788 9.1325 36.3548 8.92716C36.1308 8.72183 35.8368 8.61916 35.4728 8.61916H31.9168V12.1332H35.1368ZM42.2093 17.3552C41.388 17.3552 40.7253 17.1218 40.2213 16.6552C39.7266 16.1792 39.4793 15.5585 39.4793 14.7932V12.8612C39.4793 12.0398 39.7266 11.3818 40.2213 10.8872C40.7253 10.3925 41.388 10.1452 42.2093 10.1452H43.3573C44.1506 10.1452 44.79 10.3878 45.2753 10.8732C45.7606 11.3585 46.0033 12.0025 46.0033 12.8052V14.1212H40.7813V14.7932C40.7813 15.2225 40.912 15.5678 41.1733 15.8292C41.4346 16.0905 41.78 16.2212 42.2093 16.2212H43.2873C43.7073 16.2212 44.048 16.1138 44.3093 15.8992C44.5706 15.6752 44.7013 15.3812 44.7013 15.0172H45.9753C45.9753 15.7172 45.728 16.2818 45.2333 16.7112C44.7386 17.1405 44.0853 17.3552 43.2733 17.3552H42.2093ZM44.7013 13.0852V12.8052C44.7013 12.3385 44.5753 11.9652 44.3233 11.6852C44.0806 11.4052 43.7586 11.2652 43.3573 11.2652H42.2093C41.78 11.2652 41.4346 11.4145 41.1733 11.7132C40.912 12.0025 40.7813 12.3898 40.7813 12.8752V13.0852H44.7013ZM47.607 10.2572H48.853V11.1392C49.049 10.8405 49.301 10.6025 49.609 10.4252C49.9263 10.2385 50.2436 10.1452 50.561 10.1452H51.527C52.311 10.1452 52.941 10.3878 53.417 10.8732C53.9023 11.3585 54.145 11.9978 54.145 12.7912V14.4572C54.145 15.0265 54.033 15.5305 53.809 15.9692C53.5943 16.4078 53.2863 16.7485 52.885 16.9912C52.4836 17.2338 52.0216 17.3552 51.499 17.3552H50.519C50.239 17.3552 49.945 17.2805 49.637 17.1312C49.3383 16.9818 49.0956 16.7858 48.909 16.5432V20.0292H47.607V10.2572ZM51.387 16.2072C51.8256 16.2072 52.1756 16.0438 52.437 15.7172C52.6983 15.3905 52.829 14.9565 52.829 14.4152V12.8332C52.829 12.3758 52.6983 12.0072 52.437 11.7272C52.185 11.4378 51.849 11.2932 51.429 11.2932H50.491C50.1456 11.2932 49.8236 11.4285 49.525 11.6992C49.2356 11.9698 49.0303 12.3245 48.909 12.7632V14.6252C48.965 15.0918 49.1376 15.4745 49.427 15.7732C49.7256 16.0625 50.0803 16.2072 50.491 16.2072H51.387ZM57.9098 17.2432C57.1724 17.2432 56.6404 17.0892 56.3138 16.7812C55.9871 16.4638 55.8238 15.9552 55.8238 15.2552V7.44316H57.1258V15.2132C57.1258 15.5305 57.1911 15.7592 57.3218 15.8992C57.4524 16.0392 57.6671 16.1092 57.9658 16.1092H58.5258V17.2432H57.9098ZM60.6166 9.33316C60.3459 9.33316 60.1266 9.25383 59.9586 9.09516C59.7906 8.92716 59.7066 8.7125 59.7066 8.45116C59.7066 8.18983 59.7906 7.97983 59.9586 7.82116C60.1266 7.65316 60.3459 7.56916 60.6166 7.56916C60.8872 7.56916 61.1019 7.65316 61.2606 7.82116C61.4286 7.97983 61.5126 8.18983 61.5126 8.45116C61.5126 8.7125 61.4286 8.92716 61.2606 9.09516C61.1019 9.25383 60.8872 9.33316 60.6166 9.33316ZM59.9586 10.2572H61.2606V17.2432H59.9586V10.2572ZM65.8743 17.3552C65.0717 17.3552 64.423 17.1172 63.9283 16.6412C63.4337 16.1558 63.1863 15.5212 63.1863 14.7372V12.8612C63.1863 12.0398 63.429 11.3818 63.9143 10.8872C64.409 10.3925 65.0577 10.1452 65.8603 10.1452H66.9943C67.7597 10.1452 68.3757 10.3598 68.8423 10.7892C69.309 11.2185 69.5423 11.7878 69.5423 12.4972H68.2543C68.2543 12.1332 68.1377 11.8438 67.9043 11.6292C67.6803 11.4052 67.377 11.2932 66.9943 11.2932H65.8743C65.4637 11.2932 65.1277 11.4425 64.8663 11.7412C64.6143 12.0305 64.4883 12.4178 64.4883 12.9032V14.6952C64.4883 15.1525 64.619 15.5212 64.8803 15.8012C65.1417 16.0718 65.4777 16.2072 65.8883 16.2072H67.0083C67.4003 16.2072 67.713 16.0718 67.9463 15.8012C68.189 15.5212 68.3103 15.1525 68.3103 14.6952H69.5983C69.5983 15.4885 69.3603 16.1325 68.8843 16.6272C68.4083 17.1125 67.783 17.3552 67.0083 17.3552H65.8743ZM73.1676 17.3552C72.4676 17.3552 71.9076 17.1778 71.4876 16.8232C71.0676 16.4592 70.8576 15.9785 70.8576 15.3812V14.9192C70.8576 14.3312 71.0769 13.8598 71.5156 13.5052C71.9542 13.1412 72.5282 12.9592 73.2376 12.9592H74.1196C74.3996 12.9592 74.6982 13.0012 75.0156 13.0852C75.3329 13.1692 75.6036 13.2858 75.8276 13.4352V12.4132C75.8276 12.0678 75.7202 11.7925 75.5056 11.5872C75.2909 11.3725 75.0109 11.2652 74.6656 11.2652H73.5176C73.1629 11.2652 72.8782 11.3492 72.6636 11.5172C72.4489 11.6852 72.3416 11.9045 72.3416 12.1752H71.0536C71.0536 11.5685 71.2776 11.0785 71.7256 10.7052C72.1829 10.3318 72.7802 10.1452 73.5176 10.1452H74.6656C75.4029 10.1452 75.9956 10.3552 76.4436 10.7752C76.8916 11.1858 77.1156 11.7318 77.1156 12.4132V17.2432H75.8976V16.3052C75.6829 16.6225 75.4029 16.8792 75.0576 17.0752C74.7122 17.2618 74.3622 17.3552 74.0076 17.3552H73.1676ZM74.0776 16.2772C74.4882 16.2772 74.8522 16.1605 75.1696 15.9272C75.4869 15.6845 75.7062 15.3625 75.8276 14.9612V14.5412C75.6502 14.3825 75.4076 14.2565 75.0996 14.1632C74.7916 14.0698 74.4742 14.0232 74.1476 14.0232H73.2516C72.9249 14.0232 72.6589 14.1072 72.4536 14.2752C72.2482 14.4432 72.1456 14.6672 72.1456 14.9472V15.3672C72.1456 15.6472 72.2436 15.8712 72.4396 16.0392C72.6449 16.1978 72.9156 16.2772 73.2516 16.2772H74.0776ZM81.8396 17.2432C81.0742 17.2432 80.5189 17.0752 80.1736 16.7392C79.8376 16.4032 79.6696 15.8618 79.6696 15.1152V11.3912H78.4376V10.2572H79.6836V8.14316H80.9716V10.2572H82.7916V11.3912H80.9716V15.0872C80.9716 15.4512 81.0416 15.7125 81.1816 15.8712C81.3309 16.0298 81.5689 16.1092 81.8956 16.1092H82.7916V17.2432H81.8396ZM86.6976 17.3552C85.8762 17.3552 85.2136 17.1218 84.7096 16.6552C84.2149 16.1792 83.9676 15.5585 83.9676 14.7932V12.8612C83.9676 12.0398 84.2149 11.3818 84.7096 10.8872C85.2136 10.3925 85.8762 10.1452 86.6976 10.1452H87.8456C88.6389 10.1452 89.2782 10.3878 89.7636 10.8732C90.2489 11.3585 90.4916 12.0025 90.4916 12.8052V14.1212H85.2696V14.7932C85.2696 15.2225 85.4002 15.5678 85.6616 15.8292C85.9229 16.0905 86.2682 16.2212 86.6976 16.2212H87.7756C88.1956 16.2212 88.5362 16.1138 88.7976 15.8992C89.0589 15.6752 89.1896 15.3812 89.1896 15.0172H90.4636C90.4636 15.7172 90.2162 16.2818 89.7216 16.7112C89.2269 17.1405 88.5736 17.3552 87.7616 17.3552H86.6976ZM89.1896 13.0852V12.8052C89.1896 12.3385 89.0636 11.9652 88.8116 11.6852C88.5689 11.4052 88.2469 11.2652 87.8456 11.2652H86.6976C86.2682 11.2652 85.9229 11.4145 85.6616 11.7132C85.4002 12.0025 85.2696 12.3898 85.2696 12.8752V13.0852H89.1896Z" fill="white"/>
</svg>
