<svg width="29" height="28" viewBox="0 0 29 28" fill="none" xmlns="http://www.w3.org/2000/svg">
<path d="M17.0664 7.96194C17.775 7.96194 18.4546 8.24342 18.9556 8.74447C19.4567 9.24551 19.7382 9.92507 19.7382 10.6337C19.7382 12.1165 18.5359 13.3054 17.0664 13.3054C16.3579 13.3054 15.6783 13.0239 15.1773 12.5229C14.6762 12.0218 14.3947 11.3422 14.3947 10.6337C14.3947 9.92507 14.6762 9.24551 15.1773 8.74447C15.6783 8.24342 16.3579 7.96194 17.0664 7.96194ZM23.7457 18.6488C23.7457 20.1316 22.5568 21.3205 21.074 21.3205C20.3654 21.3205 19.6859 21.0391 19.1848 20.538C18.6838 20.037 18.4023 19.3574 18.4023 18.6488C18.4023 17.9402 18.6838 17.2607 19.1848 16.7596C19.6859 16.2586 20.3654 15.9771 21.074 15.9771C22.5568 15.9771 23.7457 17.1794 23.7457 18.6488ZM17.0664 25.3281C21.4903 25.3281 25.4888 23.5579 28.4223 20.6786C28.8325 20.2759 28.8991 19.6468 28.6173 19.1457L18.2307 0.680788C17.72 -0.227133 16.4128 -0.227135 15.9021 0.680784L5.5145 19.1477C5.2332 19.6478 5.29889 20.2757 5.70773 20.6782C8.63223 23.5578 12.6424 25.3281 17.0664 25.3281Z" fill="#9BB7F3"/>
<path d="M11.7232 10.6338C12.4318 10.6338 13.1113 10.9153 13.6124 11.4163C14.1134 11.9174 14.3949 12.5969 14.3949 13.3055C14.3949 14.7883 13.1926 15.9773 11.7232 15.9773C11.0146 15.9773 10.335 15.6958 9.83399 15.1947C9.33295 14.6937 9.05146 14.0141 9.05146 13.3055C9.05146 12.5969 9.33295 11.9174 9.83399 11.4163C10.335 10.9153 11.0146 10.6338 11.7232 10.6338ZM18.4025 21.3207C18.4025 22.8035 17.2136 23.9924 15.7308 23.9924C15.0222 23.9924 14.3426 23.7109 13.8416 23.2099C13.3405 22.7088 13.059 22.0293 13.059 21.3207C13.059 20.6121 13.3405 19.9326 13.8416 19.4315C14.3426 18.9305 15.0222 18.649 15.7308 18.649C17.2136 18.649 18.4025 19.8513 18.4025 21.3207ZM11.7232 28C16.147 28 20.1455 26.2298 23.079 23.3505C23.4893 22.9478 23.5559 22.3186 23.274 21.8176L12.8875 3.35266C12.3768 2.44474 11.0696 2.44474 10.5589 3.35266L0.171236 21.8196C-0.11006 22.3197 -0.0443745 22.9476 0.364471 23.3501C3.28896 26.2296 7.29915 28 11.7232 28Z" fill="#2868F3"/>
</svg>
