<svg width="144" height="25" viewBox="0 0 144 25" fill="none" xmlns="http://www.w3.org/2000/svg">
<path d="M16.5 16.6932L19.36 18.3832L18.61 19.6032L15 17.4432V12.4432H16.5V16.6932ZM23 16.4432C23 20.3132 19.87 23.4432 16 23.4432C14.8707 23.4441 13.7579 23.1717 12.7566 22.6493C11.7553 22.1269 10.8953 21.37 10.25 20.4432C6.18 20.2332 3 18.5232 3 16.4432V13.4432C3 15.3232 5.58 16.8832 9.06 17.3232C9.03 17.0332 9 16.7432 9 16.4432C9 16.0632 9.04 15.6932 9.1 15.3232C5.6 14.8932 3 13.3232 3 11.4432V8.44318C3 10.5332 6.2 12.2432 10.27 12.4432C10.87 11.5832 11.64 10.8832 12.53 10.3732C12.04 10.4132 11.5 10.4432 11 10.4432C6.58 10.4432 3 8.65318 3 6.44318C3 4.23318 6.58 2.44318 11 2.44318C15.42 2.44318 19 4.23318 19 6.44318C19 7.64318 17.93 8.72318 16.25 9.44318C17 9.48318 17.75 9.63318 18.44 9.89318C18.79 9.44318 19 8.94318 19 8.44318V10.1232C21.36 11.2532 23 13.6532 23 16.4432ZM21 16.4432C21 13.6832 18.76 11.4432 16 11.4432C13.24 11.4432 11 13.6832 11 16.4432C11 19.2032 13.24 21.4432 16 21.4432C18.76 21.4432 21 19.2032 21 16.4432Z" fill="#D9DAE6"/>
<path d="M33.036 7.64318H37.95C38.706 7.64318 39.3127 7.85784 39.77 8.28718C40.2367 8.70718 40.47 9.26251 40.47 9.95318V10.9612C40.47 11.4465 40.316 11.8758 40.008 12.2492C39.7093 12.6225 39.2987 12.8932 38.776 13.0612V13.0752C39.3267 13.4018 39.7373 13.9992 40.008 14.8672L40.778 17.4432H39.406L38.65 14.9232C38.5193 14.4845 38.3093 14.1392 38.02 13.8872C37.74 13.6352 37.418 13.5092 37.054 13.5092H34.366V17.4432H33.036V7.64318ZM37.586 12.3332C38.0527 12.3332 38.426 12.2072 38.706 11.9552C38.9953 11.7032 39.14 11.3718 39.14 10.9612V9.93918C39.14 9.60318 39.028 9.33251 38.804 9.12718C38.58 8.92184 38.286 8.81918 37.922 8.81918H34.366V12.3332H37.586ZM44.6585 17.5552C43.8372 17.5552 43.1745 17.3218 42.6705 16.8552C42.1758 16.3792 41.9285 15.7585 41.9285 14.9932V13.0612C41.9285 12.2398 42.1758 11.5818 42.6705 11.0872C43.1745 10.5925 43.8372 10.3452 44.6585 10.3452H45.8065C46.5998 10.3452 47.2392 10.5878 47.7245 11.0732C48.2098 11.5585 48.4525 12.2025 48.4525 13.0052V14.3212H43.2305V14.9932C43.2305 15.4225 43.3612 15.7678 43.6225 16.0292C43.8838 16.2905 44.2292 16.4212 44.6585 16.4212H45.7365C46.1565 16.4212 46.4972 16.3138 46.7585 16.0992C47.0198 15.8752 47.1505 15.5812 47.1505 15.2172H48.4245C48.4245 15.9172 48.1772 16.4818 47.6825 16.9112C47.1878 17.3405 46.5345 17.5552 45.7225 17.5552H44.6585ZM47.1505 13.2852V13.0052C47.1505 12.5385 47.0245 12.1652 46.7725 11.8852C46.5298 11.6052 46.2078 11.4652 45.8065 11.4652H44.6585C44.2292 11.4652 43.8838 11.6145 43.6225 11.9132C43.3612 12.2025 43.2305 12.5898 43.2305 13.0752V13.2852H47.1505ZM52.2122 17.5552C51.4562 17.5552 50.8495 17.3498 50.3922 16.9392C49.9348 16.5192 49.7062 15.9685 49.7062 15.2872H50.9802C50.9802 15.6325 51.0922 15.9125 51.3162 16.1272C51.5402 16.3418 51.8388 16.4492 52.2122 16.4492H53.4442C53.7988 16.4492 54.0835 16.3838 54.2982 16.2532C54.5128 16.1132 54.6202 15.9312 54.6202 15.7072V15.3012C54.6202 15.1518 54.5548 15.0212 54.4242 14.9092C54.3028 14.7878 54.1442 14.7085 53.9482 14.6712L51.5262 14.2512C51.0128 14.1578 50.6022 13.9665 50.2942 13.6772C49.9862 13.3785 49.8322 13.0332 49.8322 12.6412V12.1792C49.8322 11.6285 50.0515 11.1852 50.4902 10.8492C50.9288 10.5132 51.5168 10.3452 52.2542 10.3452H53.4302C54.1302 10.3452 54.6902 10.5365 55.1102 10.9192C55.5395 11.3018 55.7542 11.8105 55.7542 12.4452H54.4802C54.4708 12.1465 54.3682 11.9085 54.1722 11.7312C53.9855 11.5445 53.7382 11.4512 53.4302 11.4512H52.2682C51.9228 11.4512 51.6475 11.5212 51.4422 11.6612C51.2462 11.8012 51.1482 11.9878 51.1482 12.2212V12.5712C51.1482 12.7205 51.2135 12.8512 51.3442 12.9632C51.4748 13.0752 51.6428 13.1545 51.8482 13.2012L54.2982 13.6352C54.7835 13.7192 55.1755 13.9058 55.4742 14.1952C55.7822 14.4845 55.9362 14.8205 55.9362 15.2032V15.7492C55.9362 16.2905 55.7075 16.7292 55.2502 17.0652C54.7928 17.3918 54.1908 17.5552 53.4442 17.5552H52.2122ZM59.93 17.5552C59.1087 17.5552 58.446 17.3078 57.942 16.8132C57.4473 16.3185 57.2 15.6698 57.2 14.8672V13.0472C57.2 12.2352 57.452 11.5818 57.956 11.0872C58.46 10.5925 59.1273 10.3452 59.958 10.3452H61.134C61.9647 10.3452 62.632 10.5925 63.136 11.0872C63.64 11.5818 63.892 12.2352 63.892 13.0472V14.8672C63.892 15.6698 63.6353 16.3185 63.122 16.8132C62.618 17.3078 61.9507 17.5552 61.12 17.5552H59.93ZM61.106 16.4072C61.554 16.4072 61.9133 16.2625 62.184 15.9732C62.4547 15.6838 62.59 15.2965 62.59 14.8112V13.0892C62.59 12.6038 62.4547 12.2165 62.184 11.9272C61.9227 11.6378 61.5727 11.4932 61.134 11.4932H59.958C59.5193 11.4932 59.1647 11.6378 58.894 11.9272C58.6327 12.2165 58.502 12.6038 58.502 13.0892V14.8112C58.502 15.2965 58.6327 15.6838 58.894 15.9732C59.1553 16.2625 59.5053 16.4072 59.944 16.4072H61.106ZM67.7578 17.5552C67.0764 17.5552 66.5258 17.3265 66.1058 16.8692C65.6951 16.4118 65.4898 15.8098 65.4898 15.0632V10.4572H66.7918V15.0912C66.7918 15.4832 66.8898 15.8005 67.0858 16.0432C67.2818 16.2858 67.5384 16.4072 67.8558 16.4072H68.6958C69.0878 16.4072 69.4471 16.2485 69.7738 15.9312C70.1004 15.6138 70.3151 15.2125 70.4178 14.7272V10.4572H71.7198V17.4432H70.4878V16.4352C70.2638 16.7618 69.9838 17.0325 69.6478 17.2472C69.3118 17.4525 68.9804 17.5552 68.6538 17.5552H67.7578ZM73.6812 10.4572H74.9272V11.4792C75.1138 11.1712 75.3845 10.9192 75.7392 10.7232C76.1032 10.5272 76.4812 10.4292 76.8732 10.4292H77.6012V11.5912H76.8732C76.3038 11.5912 75.8465 11.7685 75.5012 12.1232C75.1558 12.4685 74.9832 12.9258 74.9832 13.4952V17.4432H73.6812V10.4572ZM80.97 17.5552C80.1674 17.5552 79.5187 17.3172 79.024 16.8412C78.5294 16.3558 78.282 15.7212 78.282 14.9372V13.0612C78.282 12.2398 78.5247 11.5818 79.01 11.0872C79.5047 10.5925 80.1534 10.3452 80.956 10.3452H82.09C82.8554 10.3452 83.4714 10.5598 83.938 10.9892C84.4047 11.4185 84.638 11.9878 84.638 12.6972H83.35C83.35 12.3332 83.2334 12.0438 83 11.8292C82.776 11.6052 82.4727 11.4932 82.09 11.4932H80.97C80.5594 11.4932 80.2234 11.6425 79.962 11.9412C79.71 12.2305 79.584 12.6178 79.584 13.1032V14.8952C79.584 15.3525 79.7147 15.7212 79.976 16.0012C80.2374 16.2718 80.5734 16.4072 80.984 16.4072H82.104C82.496 16.4072 82.8087 16.2718 83.042 16.0012C83.2847 15.7212 83.406 15.3525 83.406 14.8952H84.694C84.694 15.6885 84.456 16.3325 83.98 16.8272C83.504 17.3125 82.8787 17.5552 82.104 17.5552H80.97ZM88.6273 17.5552C87.8059 17.5552 87.1433 17.3218 86.6393 16.8552C86.1446 16.3792 85.8973 15.7585 85.8973 14.9932V13.0612C85.8973 12.2398 86.1446 11.5818 86.6393 11.0872C87.1433 10.5925 87.8059 10.3452 88.6273 10.3452H89.7753C90.5686 10.3452 91.2079 10.5878 91.6933 11.0732C92.1786 11.5585 92.4213 12.2025 92.4213 13.0052V14.3212H87.1993V14.9932C87.1993 15.4225 87.3299 15.7678 87.5913 16.0292C87.8526 16.2905 88.1979 16.4212 88.6273 16.4212H89.7053C90.1253 16.4212 90.4659 16.3138 90.7273 16.0992C90.9886 15.8752 91.1193 15.5812 91.1193 15.2172H92.3933C92.3933 15.9172 92.1459 16.4818 91.6513 16.9112C91.1566 17.3405 90.5033 17.5552 89.6913 17.5552H88.6273ZM91.1193 13.2852V13.0052C91.1193 12.5385 90.9933 12.1652 90.7413 11.8852C90.4986 11.6052 90.1766 11.4652 89.7753 11.4652H88.6273C88.1979 11.4652 87.8526 11.6145 87.5913 11.9132C87.3299 12.2025 87.1993 12.5898 87.1993 13.0752V13.2852H91.1193ZM105.541 17.9752L104.449 16.8972C103.851 17.3358 103.179 17.5552 102.433 17.5552H100.963C100.281 17.5552 99.684 17.4058 99.1707 17.1072C98.6574 16.8085 98.2607 16.3885 97.9807 15.8472C97.7007 15.3058 97.5607 14.6758 97.5607 13.9572V11.1292C97.5607 10.4105 97.7054 9.78051 97.9947 9.23918C98.284 8.69784 98.69 8.27784 99.2127 7.97918C99.7354 7.68051 100.333 7.53118 101.005 7.53118H102.489C103.17 7.53118 103.767 7.68051 104.281 7.97918C104.803 8.27784 105.205 8.69784 105.485 9.23918C105.774 9.78051 105.919 10.4105 105.919 11.1292V13.9012C105.919 14.6852 105.704 15.3898 105.275 16.0152L106.367 17.0932L105.541 17.9752ZM102.405 16.3652C102.825 16.3652 103.207 16.2485 103.553 16.0152L102.167 14.6572L103.007 13.7752L104.337 15.0912C104.505 14.7365 104.589 14.3398 104.589 13.9012V11.1572C104.589 10.4198 104.393 9.83184 104.001 9.39318C103.618 8.94518 103.109 8.72118 102.475 8.72118H101.033C100.398 8.72118 99.88 8.94518 99.4787 9.39318C99.0867 9.84118 98.8907 10.4292 98.8907 11.1572V13.9292C98.8907 14.6665 99.082 15.2592 99.4647 15.7072C99.8474 16.1458 100.351 16.3652 100.977 16.3652H102.405ZM109.894 17.5552C109.213 17.5552 108.662 17.3265 108.242 16.8692C107.832 16.4118 107.626 15.8098 107.626 15.0632V10.4572H108.928V15.0912C108.928 15.4832 109.026 15.8005 109.222 16.0432C109.418 16.2858 109.675 16.4072 109.992 16.4072H110.832C111.224 16.4072 111.584 16.2485 111.91 15.9312C112.237 15.6138 112.452 15.2125 112.554 14.7272V10.4572H113.856V17.4432H112.624V16.4352C112.4 16.7618 112.12 17.0325 111.784 17.2472C111.448 17.4525 111.117 17.5552 110.79 17.5552H109.894ZM118.268 17.5552C117.447 17.5552 116.784 17.3078 116.28 16.8132C115.785 16.3185 115.538 15.6698 115.538 14.8672V13.0472C115.538 12.2352 115.79 11.5818 116.294 11.0872C116.798 10.5925 117.465 10.3452 118.296 10.3452H119.472C120.303 10.3452 120.97 10.5925 121.474 11.0872C121.978 11.5818 122.23 12.2352 122.23 13.0472V14.8672C122.23 15.6698 121.973 16.3185 121.46 16.8132C120.956 17.3078 120.289 17.5552 119.458 17.5552H118.268ZM119.444 16.4072C119.892 16.4072 120.251 16.2625 120.522 15.9732C120.793 15.6838 120.928 15.2965 120.928 14.8112V13.0892C120.928 12.6038 120.793 12.2165 120.522 11.9272C120.261 11.6378 119.911 11.4932 119.472 11.4932H118.296C117.857 11.4932 117.503 11.6378 117.232 11.9272C116.971 12.2165 116.84 12.6038 116.84 13.0892V14.8112C116.84 15.2965 116.971 15.6838 117.232 15.9732C117.493 16.2625 117.843 16.4072 118.282 16.4072H119.444ZM126.672 17.4432C125.906 17.4432 125.351 17.2752 125.006 16.9392C124.67 16.6032 124.502 16.0618 124.502 15.3152V11.5912H123.27V10.4572H124.516V8.34318H125.804V10.4572H127.624V11.5912H125.804V15.2872C125.804 15.6512 125.874 15.9125 126.014 16.0712C126.163 16.2298 126.401 16.3092 126.728 16.3092H127.624V17.4432H126.672ZM131.22 17.5552C130.52 17.5552 129.96 17.3778 129.54 17.0232C129.12 16.6592 128.91 16.1785 128.91 15.5812V15.1192C128.91 14.5312 129.13 14.0598 129.568 13.7052C130.007 13.3412 130.581 13.1592 131.29 13.1592H132.172C132.452 13.1592 132.751 13.2012 133.068 13.2852C133.386 13.3692 133.656 13.4858 133.88 13.6352V12.6132C133.88 12.2678 133.773 11.9925 133.558 11.7872C133.344 11.5725 133.064 11.4652 132.718 11.4652H131.57C131.216 11.4652 130.931 11.5492 130.716 11.7172C130.502 11.8852 130.394 12.1045 130.394 12.3752H129.106C129.106 11.7685 129.33 11.2785 129.778 10.9052C130.236 10.5318 130.833 10.3452 131.57 10.3452H132.718C133.456 10.3452 134.048 10.5552 134.496 10.9752C134.944 11.3858 135.168 11.9318 135.168 12.6132V17.4432H133.95V16.5052C133.736 16.8225 133.456 17.0792 133.11 17.2752C132.765 17.4618 132.415 17.5552 132.06 17.5552H131.22ZM132.13 16.4772C132.541 16.4772 132.905 16.3605 133.222 16.1272C133.54 15.8845 133.759 15.5625 133.88 15.1612V14.7412C133.703 14.5825 133.46 14.4565 133.152 14.3632C132.844 14.2698 132.527 14.2232 132.2 14.2232H131.304C130.978 14.2232 130.712 14.3072 130.506 14.4752C130.301 14.6432 130.198 14.8672 130.198 15.1472V15.5672C130.198 15.8472 130.296 16.0712 130.492 16.2392C130.698 16.3978 130.968 16.4772 131.304 16.4772H132.13ZM139.206 17.5552C138.45 17.5552 137.844 17.3498 137.386 16.9392C136.929 16.5192 136.7 15.9685 136.7 15.2872H137.974C137.974 15.6325 138.086 15.9125 138.31 16.1272C138.534 16.3418 138.833 16.4492 139.206 16.4492H140.438C140.793 16.4492 141.078 16.3838 141.292 16.2532C141.507 16.1132 141.614 15.9312 141.614 15.7072V15.3012C141.614 15.1518 141.549 15.0212 141.418 14.9092C141.297 14.7878 141.138 14.7085 140.942 14.6712L138.52 14.2512C138.007 14.1578 137.596 13.9665 137.288 13.6772C136.98 13.3785 136.826 13.0332 136.826 12.6412V12.1792C136.826 11.6285 137.046 11.1852 137.484 10.8492C137.923 10.5132 138.511 10.3452 139.248 10.3452H140.424C141.124 10.3452 141.684 10.5365 142.104 10.9192C142.534 11.3018 142.748 11.8105 142.748 12.4452H141.474C141.465 12.1465 141.362 11.9085 141.166 11.7312C140.98 11.5445 140.732 11.4512 140.424 11.4512H139.262C138.917 11.4512 138.642 11.5212 138.436 11.6612C138.24 11.8012 138.142 11.9878 138.142 12.2212V12.5712C138.142 12.7205 138.208 12.8512 138.338 12.9632C138.469 13.0752 138.637 13.1545 138.842 13.2012L141.292 13.6352C141.778 13.7192 142.17 13.9058 142.468 14.1952C142.776 14.4845 142.93 14.8205 142.93 15.2032V15.7492C142.93 16.2905 142.702 16.7292 142.244 17.0652C141.787 17.3918 141.185 17.5552 140.438 17.5552H139.206Z" fill="#D9DAE6"/>
</svg>
