<svg width="88" height="25" viewBox="0 0 88 25" fill="none" xmlns="http://www.w3.org/2000/svg">
<path d="M16.095 21.5282C16.53 21.9482 17.22 21.9482 17.655 21.5282L21.78 17.5532C21.8915 17.452 21.9816 17.3295 22.0449 17.1929C22.1082 17.0563 22.1434 16.9084 22.1485 16.7579C22.1536 16.6074 22.1284 16.4575 22.0745 16.3169C22.0206 16.1763 21.939 16.048 21.8345 15.9396C21.7301 15.8311 21.605 15.7447 21.4665 15.6855C21.3281 15.6263 21.1792 15.5955 21.0286 15.5949C20.8781 15.5943 20.7289 15.624 20.59 15.6821C20.4511 15.7402 20.3253 15.8255 20.22 15.9332L18 18.0722V4.96817C18 4.6698 17.8815 4.38365 17.6705 4.17267C17.4595 3.9617 17.1734 3.84317 16.875 3.84317C16.5766 3.84317 16.2905 3.9617 16.0795 4.17267C15.8685 4.38365 15.75 4.6698 15.75 4.96817V18.0722L13.53 15.9332C13.4247 15.8255 13.2989 15.7402 13.16 15.6821C13.0211 15.624 12.872 15.5943 12.7214 15.5949C12.5708 15.5955 12.4219 15.6263 12.2835 15.6855C12.1451 15.7447 12.0199 15.8311 11.9155 15.9396C11.8111 16.048 11.7295 16.1763 11.6755 16.3169C11.6216 16.4575 11.5964 16.6074 11.6015 16.7579C11.6066 16.9084 11.6418 17.0563 11.7051 17.1929C11.7684 17.3295 11.8585 17.452 11.97 17.5532L16.095 21.5282ZM7.92001 4.17317C7.70908 3.96249 7.42314 3.84416 7.12501 3.84416C6.82689 3.84416 6.54095 3.96249 6.33001 4.17317L2.20501 8.29817C2.00629 8.51143 1.89811 8.7935 1.90325 9.08495C1.90839 9.37641 2.02646 9.65448 2.23258 9.8606C2.4387 10.0667 2.71678 10.1848 3.00823 10.1899C3.29968 10.1951 3.58175 10.0869 3.79501 9.88817L6.00001 7.68317V20.7182C6.00001 21.0165 6.11854 21.3027 6.32952 21.5137C6.5405 21.7246 6.82665 21.8432 7.12501 21.8432C7.42338 21.8432 7.70953 21.7246 7.92051 21.5137C8.13149 21.3027 8.25001 21.0165 8.25001 20.7182V7.68317L10.455 9.88817C10.6683 10.0869 10.9503 10.1951 11.2418 10.1899C11.5332 10.1848 11.8113 10.0667 12.0174 9.8606C12.2236 9.65448 12.3416 9.37641 12.3468 9.08495C12.3519 8.7935 12.2437 8.51143 12.045 8.29817L7.92001 4.17317Z" fill="#D9DAE6"/>
<path d="M35.682 17.9552C34.7767 17.9552 34.0533 17.6845 33.512 17.1432C32.9707 16.6018 32.7 15.8738 32.7 14.9592H34.002C34.002 15.5098 34.156 15.9485 34.464 16.2752C34.7813 16.6018 35.1967 16.7652 35.71 16.7652H37.264C37.7773 16.7652 38.188 16.6578 38.496 16.4432C38.804 16.2192 38.958 15.9252 38.958 15.5612V14.8052C38.958 14.5158 38.846 14.2732 38.622 14.0772C38.4073 13.8812 38.0993 13.7505 37.698 13.6852L35.15 13.2652C34.4033 13.1438 33.8247 12.8872 33.414 12.4952C33.0127 12.1032 32.812 11.6132 32.812 11.0252V10.2552C32.812 9.55517 33.078 8.99517 33.61 8.57517C34.1513 8.14584 34.8607 7.93117 35.738 7.93117H37.32C37.8707 7.93117 38.356 8.04784 38.776 8.28117C39.2053 8.50517 39.5367 8.82717 39.77 9.24717C40.0033 9.65784 40.12 10.1338 40.12 10.6752H38.804C38.804 10.2085 38.6687 9.83517 38.398 9.55517C38.1273 9.26584 37.768 9.12117 37.32 9.12117H35.738C35.262 9.12117 34.8747 9.2285 34.576 9.44317C34.2867 9.6485 34.142 9.93317 34.142 10.2972V10.9272C34.142 11.2258 34.2447 11.4732 34.45 11.6692C34.6647 11.8652 34.968 12.0005 35.36 12.0752L37.88 12.5092C38.6547 12.6398 39.2473 12.8965 39.658 13.2792C40.078 13.6525 40.288 14.1238 40.288 14.6932V15.6032C40.288 16.3125 40.0127 16.8818 39.462 17.3112C38.9207 17.7405 38.1973 17.9552 37.292 17.9552H35.682ZM44.3441 17.9552C43.5227 17.9552 42.8601 17.7218 42.3561 17.2552C41.8614 16.7792 41.6141 16.1585 41.6141 15.3932V13.4612C41.6141 12.6398 41.8614 11.9818 42.3561 11.4872C42.8601 10.9925 43.5227 10.7452 44.3441 10.7452H45.4921C46.2854 10.7452 46.9247 10.9878 47.4101 11.4732C47.8954 11.9585 48.1381 12.6025 48.1381 13.4052V14.7212H42.9161V15.3932C42.9161 15.8225 43.0467 16.1678 43.3081 16.4292C43.5694 16.6905 43.9147 16.8212 44.3441 16.8212H45.4221C45.8421 16.8212 46.1827 16.7138 46.4441 16.4992C46.7054 16.2752 46.8361 15.9812 46.8361 15.6172H48.1101C48.1101 16.3172 47.8627 16.8818 47.3681 17.3112C46.8734 17.7405 46.2201 17.9552 45.4081 17.9552H44.3441ZM46.8361 13.6852V13.4052C46.8361 12.9385 46.7101 12.5652 46.4581 12.2852C46.2154 12.0052 45.8934 11.8652 45.4921 11.8652H44.3441C43.9147 11.8652 43.5694 12.0145 43.3081 12.3132C43.0467 12.6025 42.9161 12.9898 42.9161 13.4752V13.6852H46.8361ZM49.7417 10.8572H50.9877V11.8792C51.1744 11.5712 51.4451 11.3192 51.7997 11.1232C52.1637 10.9272 52.5417 10.8292 52.9337 10.8292H53.6617V11.9912H52.9337C52.3644 11.9912 51.9071 12.1685 51.5617 12.5232C51.2164 12.8685 51.0437 13.3258 51.0437 13.8952V17.8432H49.7417V10.8572ZM57.6348 17.8432C57.4108 17.8432 57.2194 17.7825 57.0608 17.6612C56.9114 17.5305 56.7854 17.3298 56.6828 17.0592L54.2748 10.8572H55.6468L57.6348 16.3732H57.6628L59.6508 10.8572H61.0228L58.2788 17.8432H57.6348ZM63.0521 9.93317C62.7814 9.93317 62.5621 9.85384 62.3941 9.69517C62.2261 9.52717 62.1421 9.3125 62.1421 9.05117C62.1421 8.78984 62.2261 8.57984 62.3941 8.42117C62.5621 8.25317 62.7814 8.16917 63.0521 8.16917C63.3228 8.16917 63.5374 8.25317 63.6961 8.42117C63.8641 8.57984 63.9481 8.78984 63.9481 9.05117C63.9481 9.3125 63.8641 9.52717 63.6961 9.69517C63.5374 9.85384 63.3228 9.93317 63.0521 9.93317ZM62.3941 10.8572H63.6961V17.8432H62.3941V10.8572ZM68.3099 17.9552C67.5072 17.9552 66.8585 17.7172 66.3639 17.2412C65.8692 16.7558 65.6219 16.1212 65.6219 15.3372V13.4612C65.6219 12.6398 65.8645 11.9818 66.3499 11.4872C66.8445 10.9925 67.4932 10.7452 68.2959 10.7452H69.4299C70.1952 10.7452 70.8112 10.9598 71.2779 11.3892C71.7445 11.8185 71.9779 12.3878 71.9779 13.0972H70.6899C70.6899 12.7332 70.5732 12.4438 70.3399 12.2292C70.1159 12.0052 69.8125 11.8932 69.4299 11.8932H68.3099C67.8992 11.8932 67.5632 12.0425 67.3019 12.3412C67.0499 12.6305 66.9239 13.0178 66.9239 13.5032V15.2952C66.9239 15.7525 67.0545 16.1212 67.3159 16.4012C67.5772 16.6718 67.9132 16.8072 68.3239 16.8072H69.4439C69.8359 16.8072 70.1485 16.6718 70.3819 16.4012C70.6245 16.1212 70.7459 15.7525 70.7459 15.2952H72.0339C72.0339 16.0885 71.7959 16.7325 71.3199 17.2272C70.8439 17.7125 70.2185 17.9552 69.4439 17.9552H68.3099ZM75.9671 17.9552C75.1458 17.9552 74.4831 17.7218 73.9791 17.2552C73.4844 16.7792 73.2371 16.1585 73.2371 15.3932V13.4612C73.2371 12.6398 73.4844 11.9818 73.9791 11.4872C74.4831 10.9925 75.1458 10.7452 75.9671 10.7452H77.1151C77.9084 10.7452 78.5478 10.9878 79.0331 11.4732C79.5184 11.9585 79.7611 12.6025 79.7611 13.4052V14.7212H74.5391V15.3932C74.5391 15.8225 74.6698 16.1678 74.9311 16.4292C75.1924 16.6905 75.5378 16.8212 75.9671 16.8212H77.0451C77.4651 16.8212 77.8058 16.7138 78.0671 16.4992C78.3284 16.2752 78.4591 15.9812 78.4591 15.6172H79.7331C79.7331 16.3172 79.4858 16.8818 78.9911 17.3112C78.4964 17.7405 77.8431 17.9552 77.0311 17.9552H75.9671ZM78.4591 13.6852V13.4052C78.4591 12.9385 78.3331 12.5652 78.0811 12.2852C77.8384 12.0052 77.5164 11.8652 77.1151 11.8652H75.9671C75.5378 11.8652 75.1924 12.0145 74.9311 12.3132C74.6698 12.6025 74.5391 12.9898 74.5391 13.4752V13.6852H78.4591ZM83.5208 17.9552C82.7648 17.9552 82.1581 17.7498 81.7008 17.3392C81.2434 16.9192 81.0148 16.3685 81.0148 15.6872H82.2888C82.2888 16.0325 82.4008 16.3125 82.6248 16.5272C82.8488 16.7418 83.1474 16.8492 83.5208 16.8492H84.7528C85.1074 16.8492 85.3921 16.7838 85.6068 16.6532C85.8214 16.5132 85.9288 16.3312 85.9288 16.1072V15.7012C85.9288 15.5518 85.8634 15.4212 85.7328 15.3092C85.6114 15.1878 85.4528 15.1085 85.2568 15.0712L82.8348 14.6512C82.3214 14.5578 81.9108 14.3665 81.6028 14.0772C81.2948 13.7785 81.1408 13.4332 81.1408 13.0412V12.5792C81.1408 12.0285 81.3601 11.5852 81.7988 11.2492C82.2374 10.9132 82.8254 10.7452 83.5628 10.7452H84.7388C85.4388 10.7452 85.9988 10.9365 86.4188 11.3192C86.8481 11.7018 87.0628 12.2105 87.0628 12.8452H85.7888C85.7794 12.5465 85.6768 12.3085 85.4808 12.1312C85.2941 11.9445 85.0468 11.8512 84.7388 11.8512H83.5768C83.2314 11.8512 82.9561 11.9212 82.7508 12.0612C82.5548 12.2012 82.4568 12.3878 82.4568 12.6212V12.9712C82.4568 13.1205 82.5221 13.2512 82.6528 13.3632C82.7834 13.4752 82.9514 13.5545 83.1568 13.6012L85.6068 14.0352C86.0921 14.1192 86.4841 14.3058 86.7828 14.5952C87.0908 14.8845 87.2448 15.2205 87.2448 15.6032V16.1492C87.2448 16.6905 87.0161 17.1292 86.5588 17.4652C86.1014 17.7918 85.4994 17.9552 84.7528 17.9552H83.5208Z" fill="#D9DAE6"/>
</svg>
