<svg width="88" height="27" viewBox="0 0 88 27" fill="none" xmlns="http://www.w3.org/2000/svg">
<path d="M35.682 19.7552C34.7767 19.7552 34.0533 19.4845 33.512 18.9432C32.9707 18.4019 32.7 17.6739 32.7 16.7592H34.002C34.002 17.3099 34.156 17.7485 34.464 18.0752C34.7813 18.4019 35.1967 18.5652 35.71 18.5652H37.264C37.7773 18.5652 38.188 18.4579 38.496 18.2432C38.804 18.0192 38.958 17.7252 38.958 17.3612V16.6052C38.958 16.3159 38.846 16.0732 38.622 15.8772C38.4073 15.6812 38.0993 15.5505 37.698 15.4852L35.15 15.0652C34.4033 14.9439 33.8247 14.6872 33.414 14.2952C33.0127 13.9032 32.812 13.4132 32.812 12.8252V12.0552C32.812 11.3552 33.078 10.7952 33.61 10.3752C34.1513 9.94585 34.8607 9.73119 35.738 9.73119H37.32C37.8707 9.73119 38.356 9.84785 38.776 10.0812C39.2053 10.3052 39.5367 10.6272 39.77 11.0472C40.0033 11.4579 40.12 11.9339 40.12 12.4752H38.804C38.804 12.0085 38.6687 11.6352 38.398 11.3552C38.1273 11.0659 37.768 10.9212 37.32 10.9212H35.738C35.262 10.9212 34.8747 11.0285 34.576 11.2432C34.2867 11.4485 34.142 11.7332 34.142 12.0972V12.7272C34.142 13.0259 34.2447 13.2732 34.45 13.4692C34.6647 13.6652 34.968 13.8005 35.36 13.8752L37.88 14.3092C38.6547 14.4399 39.2473 14.6965 39.658 15.0792C40.078 15.4525 40.288 15.9239 40.288 16.4932V17.4032C40.288 18.1125 40.0127 18.6819 39.462 19.1112C38.9207 19.5405 38.1973 19.7552 37.292 19.7552H35.682ZM44.3441 19.7552C43.5227 19.7552 42.8601 19.5219 42.3561 19.0552C41.8614 18.5792 41.6141 17.9585 41.6141 17.1932V15.2612C41.6141 14.4399 41.8614 13.7819 42.3561 13.2872C42.8601 12.7925 43.5227 12.5452 44.3441 12.5452H45.4921C46.2854 12.5452 46.9247 12.7879 47.4101 13.2732C47.8954 13.7585 48.1381 14.4025 48.1381 15.2052V16.5212H42.9161V17.1932C42.9161 17.6225 43.0467 17.9679 43.3081 18.2292C43.5694 18.4905 43.9147 18.6212 44.3441 18.6212H45.4221C45.8421 18.6212 46.1827 18.5139 46.4441 18.2992C46.7054 18.0752 46.8361 17.7812 46.8361 17.4172H48.1101C48.1101 18.1172 47.8627 18.6819 47.3681 19.1112C46.8734 19.5405 46.2201 19.7552 45.4081 19.7552H44.3441ZM46.8361 15.4852V15.2052C46.8361 14.7385 46.7101 14.3652 46.4581 14.0852C46.2154 13.8052 45.8934 13.6652 45.4921 13.6652H44.3441C43.9147 13.6652 43.5694 13.8145 43.3081 14.1132C43.0467 14.4025 42.9161 14.7899 42.9161 15.2752V15.4852H46.8361ZM52.5017 19.6432C51.7364 19.6432 51.181 19.4752 50.8357 19.1392C50.4997 18.8032 50.3317 18.2619 50.3317 17.5152V13.7912H49.0997V12.6572H50.3457V10.5432H51.6337V12.6572H53.4537V13.7912H51.6337V17.4872C51.6337 17.8512 51.7037 18.1125 51.8437 18.2712C51.993 18.4299 52.231 18.5092 52.5577 18.5092H53.4537V19.6432H52.5017ZM57.9704 19.6432C57.2051 19.6432 56.6498 19.4752 56.3044 19.1392C55.9684 18.8032 55.8004 18.2619 55.8004 17.5152V13.7912H54.5684V12.6572H55.8144V10.5432H57.1024V12.6572H58.9224V13.7912H57.1024V17.4872C57.1024 17.8512 57.1724 18.1125 57.3124 18.2712C57.4618 18.4299 57.6998 18.5092 58.0264 18.5092H58.9224V19.6432H57.9704ZM61.5072 11.7332C61.2365 11.7332 61.0172 11.6539 60.8492 11.4952C60.6812 11.3272 60.5972 11.1125 60.5972 10.8512C60.5972 10.5899 60.6812 10.3799 60.8492 10.2212C61.0172 10.0532 61.2365 9.96919 61.5072 9.96919C61.7779 9.96919 61.9925 10.0532 62.1512 10.2212C62.3192 10.3799 62.4032 10.5899 62.4032 10.8512C62.4032 11.1125 62.3192 11.3272 62.1512 11.4952C61.9925 11.6539 61.7779 11.7332 61.5072 11.7332ZM60.8492 12.6572H62.1512V19.6432H60.8492V12.6572ZM64.357 12.6572H65.603V13.6232C65.8083 13.3059 66.079 13.0492 66.415 12.8532C66.7603 12.6479 67.101 12.5452 67.437 12.5452H68.361C69.033 12.5452 69.5743 12.7692 69.985 13.2172C70.405 13.6652 70.615 14.2532 70.615 14.9812V19.6432H69.313V14.9812C69.313 14.5985 69.215 14.2905 69.019 14.0572C68.823 13.8145 68.5663 13.6932 68.249 13.6932H67.381C66.9796 13.6932 66.6156 13.8472 66.289 14.1552C65.9623 14.4632 65.7523 14.8645 65.659 15.3592V19.6432H64.357V12.6572ZM74.9137 22.4852C74.2511 22.4852 73.7004 22.3032 73.2617 21.9392C72.8324 21.5752 72.5944 21.0992 72.5477 20.5112H73.8497C73.8777 20.7632 73.9897 20.9685 74.1857 21.1272C74.3817 21.2859 74.6244 21.3652 74.9137 21.3652H76.1037C76.5237 21.3652 76.8504 21.2159 77.0837 20.9172C77.3264 20.6279 77.4477 20.2265 77.4477 19.7132V18.7752C77.2424 19.0272 76.9857 19.2325 76.6777 19.3912C76.3697 19.5499 76.0757 19.6292 75.7957 19.6292H74.7877C74.2837 19.6292 73.8357 19.5172 73.4437 19.2932C73.0517 19.0692 72.7484 18.7519 72.5337 18.3412C72.3191 17.9305 72.2117 17.4592 72.2117 16.9272V15.3592C72.2117 14.8085 72.3237 14.3185 72.5477 13.8892C72.7811 13.4599 73.1031 13.1285 73.5137 12.8952C73.9244 12.6619 74.3957 12.5452 74.9277 12.5452H75.8517C76.1504 12.5452 76.4584 12.6292 76.7757 12.7972C77.0931 12.9559 77.3404 13.1612 77.5177 13.4132V12.6572H78.7497V19.7132C78.7497 20.5719 78.5117 21.2485 78.0357 21.7432C77.5691 22.2379 76.9251 22.4852 76.1037 22.4852H74.9137ZM75.8377 18.4952C76.2671 18.4952 76.6311 18.3225 76.9297 17.9772C77.2377 17.6319 77.4104 17.1885 77.4477 16.6472V15.1772C77.4104 14.7385 77.2517 14.3839 76.9717 14.1132C76.6917 13.8332 76.3557 13.6932 75.9637 13.6932H74.9977C74.5591 13.6932 74.1997 13.8519 73.9197 14.1692C73.6491 14.4772 73.5137 14.8879 73.5137 15.4012V16.8852C73.5137 17.3612 73.6397 17.7485 73.8917 18.0472C74.1437 18.3459 74.4611 18.4952 74.8437 18.4952H75.8377ZM82.8645 19.7552C82.1085 19.7552 81.5018 19.5499 81.0445 19.1392C80.5872 18.7192 80.3585 18.1685 80.3585 17.4872H81.6325C81.6325 17.8325 81.7445 18.1125 81.9685 18.3272C82.1925 18.5419 82.4912 18.6492 82.8645 18.6492H84.0965C84.4512 18.6492 84.7358 18.5839 84.9505 18.4532C85.1652 18.3132 85.2725 18.1312 85.2725 17.9072V17.5012C85.2725 17.3519 85.2072 17.2212 85.0765 17.1092C84.9552 16.9879 84.7965 16.9085 84.6005 16.8712L82.1785 16.4512C81.6652 16.3579 81.2545 16.1665 80.9465 15.8772C80.6385 15.5785 80.4845 15.2332 80.4845 14.8412V14.3792C80.4845 13.8285 80.7038 13.3852 81.1425 13.0492C81.5812 12.7132 82.1692 12.5452 82.9065 12.5452H84.0825C84.7825 12.5452 85.3425 12.7365 85.7625 13.1192C86.1918 13.5019 86.4065 14.0105 86.4065 14.6452H85.1325C85.1232 14.3465 85.0205 14.1085 84.8245 13.9312C84.6378 13.7445 84.3905 13.6512 84.0825 13.6512H82.9205C82.5752 13.6512 82.2998 13.7212 82.0945 13.8612C81.8985 14.0012 81.8005 14.1879 81.8005 14.4212V14.7712C81.8005 14.9205 81.8658 15.0512 81.9965 15.1632C82.1272 15.2752 82.2952 15.3545 82.5005 15.4012L84.9505 15.8352C85.4358 15.9192 85.8278 16.1059 86.1265 16.3952C86.4345 16.6845 86.5885 17.0205 86.5885 17.4032V17.9492C86.5885 18.4905 86.3598 18.9292 85.9025 19.2652C85.4452 19.5919 84.8432 19.7552 84.0965 19.7552H82.8645Z" fill="#D9DAE6"/>
<path fill-rule="evenodd" clip-rule="evenodd" d="M12.0001 11.1432C11.1731 11.1432 10.5001 11.8162 10.5001 12.6432C10.5001 13.4702 11.1731 14.1432 12.0001 14.1432C12.8271 14.1432 13.5001 13.4702 13.5001 12.6432C13.5001 11.8162 12.8271 11.1432 12.0001 11.1432ZM12.0001 16.1432C10.0701 16.1432 8.50012 14.5732 8.50012 12.6432C8.50012 10.7132 10.0701 9.14319 12.0001 9.14319C13.9301 9.14319 15.5001 10.7132 15.5001 12.6432C15.5001 14.5732 13.9301 16.1432 12.0001 16.1432ZM21.8921 10.9622L21.1051 8.44119C20.9171 7.83619 20.5071 7.34719 19.9521 7.06319C19.4111 6.78619 18.7961 6.73919 18.2201 6.93119L17.8801 7.04419C17.3441 7.22519 16.7461 7.12519 16.2871 6.78019L16.1801 6.69919C15.7431 6.37119 15.4841 5.83619 15.4861 5.27019L15.4881 4.99119C15.4901 4.35619 15.2481 3.76119 14.8051 3.31619C14.3761 2.88519 13.8091 2.64719 13.2071 2.64619L10.6601 2.64319H10.6561C9.40212 2.64319 8.37812 3.68519 8.37312 4.96919L8.37212 5.21019C8.37012 5.80819 8.09512 6.37219 7.63912 6.72019L7.51012 6.81819C6.99712 7.20819 6.33212 7.31919 5.73312 7.11519C5.17512 6.92419 4.57812 6.96519 4.05012 7.23119C3.51012 7.50419 3.11112 7.97819 2.92612 8.56519L2.11012 11.1602C1.72312 12.3922 2.37312 13.6842 3.59012 14.1012L3.75412 14.1572C4.27212 14.3342 4.68912 14.7862 4.87312 15.3682L4.92812 15.5362C5.14712 16.1822 5.07112 16.8632 4.69712 17.3932C3.97712 18.4162 4.19612 19.8592 5.18612 20.6092L7.25812 22.1832C7.65612 22.4852 8.12712 22.6432 8.61412 22.6432C8.72912 22.6432 8.84512 22.6352 8.96112 22.6172C9.57312 22.5212 10.1101 22.1862 10.4721 21.6732L10.7031 21.3452C11.0351 20.8732 11.5421 20.5942 12.1311 20.5782C12.7181 20.5452 13.2781 20.8512 13.6281 21.3552L13.7461 21.5272C14.1051 22.0452 14.6411 22.3852 15.2551 22.4842C15.8641 22.5812 16.4711 22.4302 16.9661 22.0562L19.0271 20.5002C20.0211 19.7512 20.2491 18.3032 19.5351 17.2712L19.2741 16.8962C18.9461 16.4222 18.8501 15.8052 19.0161 15.2442C19.1971 14.6322 19.6491 14.1522 20.2261 13.9582L20.4271 13.8912C21.6141 13.4942 22.2711 12.1802 21.8921 10.9622Z" fill="#D9DAE6"/>
</svg>
