<svg width="220" height="111" viewBox="0 0 220 111" fill="none" xmlns="http://www.w3.org/2000/svg">
<path d="M65.2116 89.1857L59.8181 82.2173L58.2538 83.9239V89.1857H55.0317V72.5943H58.2538V79.7523L64.7446 72.5943H68.7138L61.9895 79.8708L69.1341 89.1857H65.2116Z" fill="white"/>
<path d="M74.0012 89.3753C72.7716 89.3753 71.7832 88.9566 71.036 88.1191C70.2889 87.2659 69.9153 86.1519 69.9153 84.7771V77.3584H73.0907V84.8246C73.0907 85.346 73.2152 85.7726 73.4642 86.1045C73.7288 86.4205 74.0713 86.5785 74.4916 86.5785H75.8458C76.3594 86.5785 76.8264 86.3652 77.2466 85.9385C77.6669 85.4961 77.9627 84.9194 78.1339 84.2083V77.3584H81.3092V89.1857H78.3674V87.6688C78.0094 88.1744 77.5657 88.5853 77.0365 88.9013C76.5229 89.2173 76.0248 89.3753 75.5422 89.3753H74.0012Z" fill="white"/>
<path d="M89.6365 89.3753C89.154 89.3753 88.6637 89.2173 88.1656 88.9013C87.6675 88.5853 87.2628 88.1744 86.9515 87.6688V89.1857H84.0096V72.5943H87.185V78.2828C87.4963 77.951 87.8776 77.6823 88.329 77.4769C88.796 77.2715 89.2396 77.1688 89.6599 77.1688H91.2942C92.197 77.1688 92.9909 77.3663 93.6758 77.7614C94.3762 78.1406 94.9132 78.6857 95.2868 79.3968C95.6759 80.1079 95.8705 80.9295 95.8705 81.8618V84.5638C95.8705 85.5119 95.6759 86.3494 95.2868 87.0762C94.8977 87.8031 94.3529 88.372 93.6524 88.7828C92.952 89.1778 92.1503 89.3753 91.2475 89.3753H89.6365ZM90.874 86.5548C91.4188 86.5548 91.8546 86.3494 92.1815 85.9385C92.5239 85.5277 92.6951 84.9905 92.6951 84.3268V82.0988C92.6951 81.4668 92.5317 80.9611 92.2048 80.5819C91.8779 80.1869 91.4499 79.9893 90.9207 79.9893H89.4731C88.8505 79.9893 88.329 80.2106 87.9088 80.653C87.4885 81.0954 87.2472 81.6801 87.185 82.4069V84.4453C87.2939 85.0774 87.543 85.5909 87.9321 85.9859C88.3368 86.3652 88.8116 86.5548 89.3563 86.5548H90.874Z" fill="white"/>
<path d="M102.63 89.3753C101.65 89.3753 100.778 89.1936 100.015 88.8302C99.268 88.451 98.6843 87.9295 98.264 87.2659C97.8438 86.5864 97.6336 85.8121 97.6336 84.9431V81.8855C97.6336 80.9532 97.8438 80.1316 98.264 79.4205C98.6843 78.7094 99.268 78.1564 100.015 77.7614C100.778 77.3663 101.65 77.1688 102.63 77.1688H104.498C105.992 77.1688 107.191 77.5954 108.094 78.4487C108.996 79.302 109.448 80.4397 109.448 81.8618V84.3742H100.809V84.9431C100.809 85.4645 100.972 85.8832 101.299 86.1993C101.626 86.5153 102.07 86.6733 102.63 86.6733H104.451C104.996 86.6733 105.432 86.5548 105.759 86.3178C106.101 86.065 106.272 85.741 106.272 85.346H109.401C109.401 86.1361 109.191 86.8392 108.771 87.4555C108.35 88.0717 107.759 88.5458 106.996 88.8776C106.249 89.2094 105.385 89.3753 104.405 89.3753H102.63ZM106.319 82.0514V81.8618C106.319 81.2455 106.156 80.7557 105.829 80.3923C105.502 80.013 105.066 79.8234 104.521 79.8234H102.63C102.07 79.8234 101.618 80.0209 101.276 80.416C100.934 80.811 100.762 81.3325 100.762 81.9803V82.0514H106.319Z" fill="white"/>
<path d="M116.595 89.3753C114.883 89.3753 113.544 88.8934 112.579 87.9295C111.614 86.9498 111.132 85.5909 111.132 83.8528H114.307C114.307 84.6744 114.51 85.3223 114.914 85.7963C115.335 86.2546 115.91 86.4837 116.642 86.4837H119.234C119.919 86.4837 120.471 86.3415 120.891 86.0571C121.327 85.7568 121.545 85.3618 121.545 84.872V84.0661C121.545 83.2918 120.985 82.8099 119.864 82.6203L115.568 81.8855C114.167 81.6485 113.101 81.1981 112.369 80.5345C111.653 79.855 111.295 78.9939 111.295 77.951V76.6237C111.295 75.7862 111.513 75.0514 111.949 74.4194C112.4 73.7715 113.031 73.2738 113.84 72.9261C114.665 72.5785 115.615 72.4047 116.689 72.4047H119.327C120.339 72.4047 121.234 72.618 122.012 73.0447C122.79 73.4713 123.39 74.0717 123.81 74.846C124.246 75.6045 124.464 76.4893 124.464 77.5006H121.288C121.288 76.837 121.109 76.3076 120.751 75.9126C120.393 75.5018 119.919 75.2963 119.327 75.2963H116.689C116.035 75.2963 115.506 75.4386 115.101 75.723C114.712 76.0074 114.517 76.3866 114.517 76.8607V77.5006C114.517 78.2907 115.054 78.7805 116.128 78.9702L120.401 79.7286C121.818 79.9814 122.899 80.4318 123.646 81.0796C124.394 81.7117 124.767 82.5334 124.767 83.5446V85.109C124.767 85.9464 124.534 86.6891 124.067 87.337C123.615 87.9848 122.977 88.4905 122.152 88.8539C121.327 89.2015 120.37 89.3753 119.28 89.3753H116.595Z" fill="white"/>
<path d="M130.937 89.1857C129.552 89.1857 128.532 88.8934 127.878 88.3087C127.24 87.7083 126.921 86.7839 126.921 85.5356V72.5943H130.096V85.346C130.096 85.7252 130.182 86.0018 130.353 86.1756C130.524 86.3494 130.797 86.4363 131.17 86.4363H132.431V89.1857H130.937Z" fill="white"/>
<path d="M135.838 76.2444C135.231 76.2444 134.74 76.0706 134.367 75.723C134.009 75.3596 133.83 74.8855 133.83 74.3009C133.83 73.7162 134.009 73.2501 134.367 72.9024C134.74 72.539 135.231 72.3573 135.838 72.3573C136.445 72.3573 136.927 72.539 137.285 72.9024C137.659 73.2501 137.846 73.7162 137.846 74.3009C137.846 74.8855 137.659 75.3596 137.285 75.723C136.927 76.0706 136.445 76.2444 135.838 76.2444ZM134.25 77.3584H137.425V89.1857H134.25V77.3584Z" fill="white"/>
<path d="M145.062 89.3753C144.082 89.3753 143.21 89.1778 142.447 88.7828C141.7 88.3878 141.116 87.8347 140.696 87.1236C140.291 86.4126 140.089 85.5909 140.089 84.6586V81.8855C140.089 80.9532 140.291 80.1316 140.696 79.4205C141.116 78.7094 141.7 78.1564 142.447 77.7614C143.194 77.3663 144.058 77.1688 145.039 77.1688H146.883C147.817 77.1688 148.642 77.3584 149.358 77.7377C150.074 78.1169 150.627 78.6541 151.016 79.3494C151.405 80.0288 151.6 80.8189 151.6 81.7196H148.448C148.448 81.1823 148.3 80.7557 148.004 80.4397C147.724 80.1079 147.35 79.9419 146.883 79.9419H145.086C144.541 79.9419 144.097 80.1474 143.755 80.5582C143.428 80.9532 143.264 81.4747 143.264 82.1225V84.4216C143.264 85.0695 143.436 85.5988 143.778 86.0097C144.121 86.4047 144.564 86.6022 145.109 86.6022H146.907C147.405 86.6022 147.802 86.4205 148.098 86.0571C148.409 85.6936 148.564 85.2117 148.564 84.6112H151.716C151.716 86.0492 151.273 87.2027 150.386 88.0717C149.514 88.9408 148.354 89.3753 146.907 89.3753H145.062Z" fill="white"/>
<path d="M158.151 89.3753C157.17 89.3753 156.298 89.1936 155.536 88.8302C154.788 88.451 154.205 87.9295 153.784 87.2659C153.364 86.5864 153.154 85.8121 153.154 84.9431V81.8855C153.154 80.9532 153.364 80.1316 153.784 79.4205C154.205 78.7094 154.788 78.1564 155.536 77.7614C156.298 77.3663 157.17 77.1688 158.151 77.1688H160.018C161.513 77.1688 162.711 77.5954 163.614 78.4487C164.517 79.302 164.968 80.4397 164.968 81.8618V84.3742H156.329V84.9431C156.329 85.4645 156.493 85.8832 156.82 86.1993C157.147 86.5153 157.59 86.6733 158.151 86.6733H159.972C160.517 86.6733 160.952 86.5548 161.279 86.3178C161.622 86.065 161.793 85.741 161.793 85.346H164.922C164.922 86.1361 164.711 86.8392 164.291 87.4555C163.871 88.0717 163.279 88.5458 162.517 88.8776C161.77 89.2094 160.906 89.3753 159.925 89.3753H158.151ZM161.84 82.0514V81.8618C161.84 81.2455 161.676 80.7557 161.349 80.3923C161.022 80.013 160.587 79.8234 160.042 79.8234H158.151C157.59 79.8234 157.139 80.0209 156.796 80.416C156.454 80.811 156.283 81.3325 156.283 81.9803V82.0514H161.84Z" fill="white"/>
<path d="M109.911 25.0002L100.045 46.6318L104.66 50.9087L109.582 55.4764L114.503 50.9087L119.333 46.4312L109.911 25.0002Z" fill="url(#paint0_linear_7610_2020)"/>
<path d="M83.1079 30.9304L91.387 65.6105L100.039 46.6339L83.1079 30.9304Z" fill="#69BDFA"/>
<path d="M104.656 50.9098L100.046 46.6328L91.3921 65.6086H98.6535L109.585 55.4775L104.656 50.9098Z" fill="url(#paint1_linear_7610_2020)"/>
<path d="M119.339 46.4314L127.778 65.6094L136.063 30.9358L119.339 46.4314Z" fill="#69BDFA"/>
<path d="M114.51 50.9078L109.588 55.4731L120.516 65.6067H127.78L119.343 46.4286L114.51 50.9078Z" fill="url(#paint2_linear_7610_2020)"/>
<path d="M98.6511 65.608H120.511L109.582 55.4744L98.6511 65.608Z" fill="#2868F3"/>
<line x1="155.293" y1="101.016" x2="164.088" y2="101.016" stroke="#B6D6FF"/>
<line x1="55.9106" y1="101.016" x2="64.7056" y2="101.016" stroke="#B6D6FF"/>
<path d="M70.7346 106.724C70.3667 106.724 70.0819 106.624 69.8802 106.423C69.6785 106.211 69.5776 105.922 69.5776 105.557V94.3447H77.9431V95.4765H70.8947V99.8269H77.4091V100.959H70.8947V105.592H77.9431V106.724H70.7346Z" fill="#B6D6FF"/>
<path d="M80.1788 97.8993H81.4247V99.2079C81.6976 98.7835 82.0536 98.4357 82.4926 98.1646C82.9317 97.8934 83.3707 97.7578 83.8097 97.7578H85.02C85.8388 97.7578 86.4973 98.0349 86.9957 98.589C87.5059 99.1431 87.7611 99.8682 87.7611 100.764V106.724H86.4796V100.729C86.4796 100.186 86.3431 99.7444 86.0702 99.4025C85.7973 99.0606 85.4354 98.8896 84.9845 98.8896H83.8453C83.2876 98.8896 82.7774 99.1077 82.3146 99.544C81.8637 99.9802 81.5789 100.54 81.4603 101.224V106.724H80.1788V97.8993Z" fill="#B6D6FF"/>
<path d="M93.853 106.724C92.9156 106.724 92.2392 106.524 91.8239 106.123C91.4205 105.722 91.2188 105.062 91.2188 104.142V99.0311H89.6525V97.8993H91.2188V95.2289H92.5003V97.8993H94.8141V99.0311H92.5003V104.142C92.5003 104.661 92.6011 105.032 92.8029 105.256C93.0164 105.48 93.3665 105.592 93.853 105.592H94.8141V106.724H93.853Z" fill="#B6D6FF"/>
<path d="M99.8371 106.865C98.8404 106.865 98.0395 106.577 97.4343 105.999C96.8291 105.409 96.5266 104.631 96.5266 103.664V101.136C96.5266 100.122 96.8291 99.3082 97.4343 98.6951C98.0395 98.0702 98.8404 97.7578 99.8371 97.7578H101.297C102.246 97.7578 103.011 98.0584 103.593 98.6597C104.174 99.261 104.465 100.057 104.465 101.047V102.603H97.8081V103.664C97.8081 104.278 97.992 104.779 98.3598 105.168C98.7395 105.545 99.232 105.734 99.8371 105.734H101.19C101.783 105.734 102.264 105.574 102.632 105.256C102.999 104.926 103.183 104.49 103.183 103.947H104.429C104.429 104.82 104.133 105.527 103.539 106.07C102.946 106.6 102.163 106.865 101.19 106.865H99.8371ZM103.183 101.507V101.047C103.183 100.399 103.011 99.88 102.667 99.4909C102.323 99.0901 101.866 98.8896 101.297 98.8896H99.8371C99.232 98.8896 98.7395 99.0959 98.3598 99.5086C97.992 99.9212 97.8081 100.464 97.8081 101.136V101.507H103.183Z" fill="#B6D6FF"/>
<path d="M106.703 97.8993H107.949V99.261C108.186 98.8484 108.542 98.5124 109.017 98.253C109.504 97.9936 110.008 97.8639 110.53 97.8639H111.313V99.0134H110.53C109.77 99.0134 109.153 99.2551 108.679 99.7385C108.216 100.21 107.985 100.841 107.985 101.631V106.724H106.703V97.8993Z" fill="#B6D6FF"/>
<path d="M113.03 97.8993H114.276V99.1018C114.525 98.701 114.851 98.3768 115.255 98.1292C115.67 97.8816 116.086 97.7578 116.501 97.7578H117.782C118.732 97.7578 119.497 98.0584 120.078 98.6597C120.672 99.261 120.968 100.057 120.968 101.047V103.222C120.968 104.319 120.666 105.203 120.061 105.875C119.467 106.535 118.678 106.865 117.693 106.865H116.412C116.044 106.865 115.658 106.765 115.255 106.565C114.851 106.353 114.537 106.081 114.312 105.751V110.243H113.03V97.8993ZM117.658 105.734C118.275 105.734 118.767 105.504 119.135 105.044C119.503 104.584 119.687 103.977 119.687 103.222V101.047C119.687 100.399 119.509 99.88 119.153 99.4909C118.797 99.0901 118.328 98.8896 117.747 98.8896H116.501C116.002 98.8896 115.552 99.0842 115.148 99.4732C114.745 99.8505 114.466 100.34 114.312 100.941V103.594C114.395 104.219 114.638 104.731 115.041 105.132C115.445 105.533 115.925 105.734 116.483 105.734H117.658Z" fill="#B6D6FF"/>
<path d="M123.32 97.8993H124.566V99.261C124.803 98.8484 125.159 98.5124 125.634 98.253C126.12 97.9936 126.625 97.8639 127.147 97.8639H127.93V99.0134H127.147C126.387 99.0134 125.77 99.2551 125.296 99.7385C124.833 100.21 124.602 100.841 124.602 101.631V106.724H123.32V97.8993Z" fill="#B6D6FF"/>
<path d="M130.608 96.5729C130.323 96.5729 130.092 96.4845 129.914 96.3077C129.736 96.1308 129.647 95.9009 129.647 95.618C129.647 95.335 129.736 95.1051 129.914 94.9283C130.092 94.7514 130.323 94.663 130.608 94.663C130.893 94.663 131.124 94.7514 131.302 94.9283C131.48 95.1051 131.569 95.335 131.569 95.618C131.569 95.9009 131.48 96.1308 131.302 96.3077C131.124 96.4845 130.893 96.5729 130.608 96.5729ZM129.967 97.8993H131.249V106.724H129.967V97.8993Z" fill="#B6D6FF"/>
<path d="M136.798 106.865C135.896 106.865 135.172 106.612 134.626 106.105C134.081 105.598 133.808 104.932 133.808 104.107H135.054C135.054 104.602 135.214 105.003 135.534 105.309C135.855 105.616 136.276 105.769 136.798 105.769H138.346C138.857 105.769 139.272 105.669 139.592 105.468C139.913 105.256 140.073 104.985 140.073 104.655V104.054C140.073 103.83 139.984 103.635 139.806 103.47C139.628 103.293 139.397 103.175 139.112 103.116L136.033 102.586C135.416 102.48 134.917 102.25 134.537 101.896C134.17 101.531 133.986 101.106 133.986 100.623V100.039C133.986 99.3553 134.247 98.8071 134.769 98.3945C135.291 97.97 135.979 97.7578 136.833 97.7578H138.364C139.195 97.7578 139.865 97.9936 140.375 98.4652C140.886 98.925 141.141 99.5381 141.141 100.304H139.895C139.883 99.8682 139.735 99.5204 139.45 99.261C139.177 98.9898 138.815 98.8543 138.364 98.8543H136.833C136.359 98.8543 135.979 98.9663 135.694 99.1903C135.41 99.4025 135.267 99.6854 135.267 100.039V100.552C135.267 100.776 135.362 100.976 135.552 101.153C135.754 101.33 136.009 101.442 136.317 101.489L139.379 102.02C139.972 102.126 140.447 102.356 140.803 102.71C141.17 103.063 141.354 103.488 141.354 103.983V104.69C141.354 105.339 141.076 105.863 140.518 106.264C139.972 106.665 139.248 106.865 138.346 106.865H136.798Z" fill="#B6D6FF"/>
<path d="M146.472 106.865C145.475 106.865 144.674 106.577 144.069 105.999C143.464 105.409 143.162 104.631 143.162 103.664V101.136C143.162 100.122 143.464 99.3082 144.069 98.6951C144.674 98.0702 145.475 97.7578 146.472 97.7578H147.932C148.881 97.7578 149.646 98.0584 150.228 98.6597C150.809 99.261 151.1 100.057 151.1 101.047V102.603H144.443V103.664C144.443 104.278 144.627 104.779 144.995 105.168C145.375 105.545 145.867 105.734 146.472 105.734H147.825C148.418 105.734 148.899 105.574 149.267 105.256C149.634 104.926 149.818 104.49 149.818 103.947H151.064C151.064 104.82 150.768 105.527 150.174 106.07C149.581 106.6 148.798 106.865 147.825 106.865H146.472ZM149.818 101.507V101.047C149.818 100.399 149.646 99.88 149.302 99.4909C148.958 99.0901 148.501 98.8896 147.932 98.8896H146.472C145.867 98.8896 145.375 99.0959 144.995 99.5086C144.627 99.9212 144.443 100.464 144.443 101.136V101.507H149.818Z" fill="#B6D6FF"/>
<defs>
<linearGradient id="paint0_linear_7610_2020" x1="108.3" y1="17.2897" x2="111.751" y2="56.6977" gradientUnits="userSpaceOnUse">
<stop stop-color="#2C2AD2"/>
<stop offset="1" stop-color="#2BBAFE"/>
</linearGradient>
<linearGradient id="paint1_linear_7610_2020" x1="100.488" y1="46.6328" x2="100.488" y2="65.6086" gradientUnits="userSpaceOnUse">
<stop stop-color="#2863E4"/>
<stop offset="1" stop-color="#3A87F4"/>
</linearGradient>
<linearGradient id="paint2_linear_7610_2020" x1="118.684" y1="46.4286" x2="118.684" y2="65.6067" gradientUnits="userSpaceOnUse">
<stop stop-color="#2863E4"/>
<stop offset="1" stop-color="#3A87F4"/>
</linearGradient>
</defs>
</svg>
