<svg width="192" height="25" viewBox="0 0 192 25" fill="none" xmlns="http://www.w3.org/2000/svg">
<path d="M12 9.44318C12.5304 9.44318 13.0391 9.65389 13.4142 10.029C13.7893 10.404 14 10.9127 14 11.4432C14 12.5532 13.1 13.4432 12 13.4432C11.4696 13.4432 10.9609 13.2325 10.5858 12.8574C10.2107 12.4823 10 11.9736 10 11.4432C10 10.9127 10.2107 10.404 10.5858 10.029C10.9609 9.65389 11.4696 9.44318 12 9.44318ZM17 17.4432C17 18.5532 16.11 19.4432 15 19.4432C14.4696 19.4432 13.9609 19.2325 13.5858 18.8574C13.2107 18.4823 13 17.9736 13 17.4432C13 16.9127 13.2107 16.404 13.5858 16.029C13.9609 15.6539 14.4696 15.4432 15 15.4432C16.11 15.4432 17 16.3432 17 17.4432ZM12 22.4432C15.3116 22.4432 18.3048 21.118 20.5008 18.9627C20.8079 18.6612 20.8577 18.1902 20.6467 17.8152L12.8716 3.99265C12.4893 3.31299 11.5107 3.31299 11.1284 3.99264L3.35243 17.8166C3.14186 18.191 3.19103 18.661 3.49708 18.9624C5.6863 21.1179 8.68825 22.4432 12 22.4432Z" fill="#D9DAE6"/>
<path d="M35.682 17.5552C34.7767 17.5552 34.0533 17.2845 33.512 16.7432C32.9707 16.2018 32.7 15.4738 32.7 14.5592H34.002C34.002 15.1098 34.156 15.5485 34.464 15.8752C34.7813 16.2018 35.1967 16.3652 35.71 16.3652H37.264C37.7773 16.3652 38.188 16.2578 38.496 16.0432C38.804 15.8192 38.958 15.5252 38.958 15.1612V14.4052C38.958 14.1158 38.846 13.8732 38.622 13.6772C38.4073 13.4812 38.0993 13.3505 37.698 13.2852L35.15 12.8652C34.4033 12.7438 33.8247 12.4872 33.414 12.0952C33.0127 11.7032 32.812 11.2132 32.812 10.6252V9.85518C32.812 9.15518 33.078 8.59518 33.61 8.17518C34.1513 7.74584 34.8607 7.53118 35.738 7.53118H37.32C37.8707 7.53118 38.356 7.64784 38.776 7.88118C39.2053 8.10518 39.5367 8.42718 39.77 8.84718C40.0033 9.25784 40.12 9.73384 40.12 10.2752H38.804C38.804 9.80851 38.6687 9.43518 38.398 9.15518C38.1273 8.86584 37.768 8.72118 37.32 8.72118H35.738C35.262 8.72118 34.8747 8.82851 34.576 9.04318C34.2867 9.24851 34.142 9.53318 34.142 9.89718V10.5272C34.142 10.8258 34.2447 11.0732 34.45 11.2692C34.6647 11.4652 34.968 11.6005 35.36 11.6752L37.88 12.1092C38.6547 12.2398 39.2473 12.4965 39.658 12.8792C40.078 13.2525 40.288 13.7238 40.288 14.2932V15.2032C40.288 15.9125 40.0127 16.4818 39.462 16.9112C38.9207 17.3405 38.1973 17.5552 37.292 17.5552H35.682ZM43.9801 17.4432C43.2427 17.4432 42.7107 17.2892 42.3841 16.9812C42.0574 16.6638 41.8941 16.1552 41.8941 15.4552V7.64318H43.1961V15.4132C43.1961 15.7305 43.2614 15.9592 43.3921 16.0992C43.5227 16.2392 43.7374 16.3092 44.0361 16.3092H44.5961V17.4432H43.9801ZM46.6869 9.53318C46.4162 9.53318 46.1969 9.45384 46.0289 9.29518C45.8609 9.12718 45.7769 8.91251 45.7769 8.65118C45.7769 8.38984 45.8609 8.17984 46.0289 8.02118C46.1969 7.85318 46.4162 7.76918 46.6869 7.76918C46.9575 7.76918 47.1722 7.85318 47.3309 8.02118C47.4989 8.17984 47.5829 8.38984 47.5829 8.65118C47.5829 8.91251 47.4989 9.12718 47.3309 9.29518C47.1722 9.45384 46.9575 9.53318 46.6869 9.53318ZM46.0289 10.4572H47.3309V17.4432H46.0289V10.4572ZM51.9446 17.5552C51.142 17.5552 50.4933 17.3172 49.9986 16.8412C49.504 16.3558 49.2566 15.7212 49.2566 14.9372V13.0612C49.2566 12.2398 49.4993 11.5818 49.9846 11.0872C50.4793 10.5925 51.128 10.3452 51.9306 10.3452H53.0646C53.83 10.3452 54.446 10.5598 54.9126 10.9892C55.3793 11.4185 55.6126 11.9878 55.6126 12.6972H54.3246C54.3246 12.3332 54.208 12.0438 53.9746 11.8292C53.7506 11.6052 53.4473 11.4932 53.0646 11.4932H51.9446C51.534 11.4932 51.198 11.6425 50.9366 11.9412C50.6846 12.2305 50.5586 12.6178 50.5586 13.1032V14.8952C50.5586 15.3525 50.6893 15.7212 50.9506 16.0012C51.212 16.2718 51.548 16.4072 51.9586 16.4072H53.0786C53.4706 16.4072 53.7833 16.2718 54.0166 16.0012C54.2593 15.7212 54.3806 15.3525 54.3806 14.8952H55.6686C55.6686 15.6885 55.4306 16.3325 54.9546 16.8272C54.4786 17.3125 53.8533 17.5552 53.0786 17.5552H51.9446ZM59.6019 17.5552C58.7805 17.5552 58.1179 17.3218 57.6139 16.8552C57.1192 16.3792 56.8719 15.7585 56.8719 14.9932V13.0612C56.8719 12.2398 57.1192 11.5818 57.6139 11.0872C58.1179 10.5925 58.7805 10.3452 59.6019 10.3452H60.7499C61.5432 10.3452 62.1825 10.5878 62.6679 11.0732C63.1532 11.5585 63.3959 12.2025 63.3959 13.0052V14.3212H58.1739V14.9932C58.1739 15.4225 58.3045 15.7678 58.5659 16.0292C58.8272 16.2905 59.1725 16.4212 59.6019 16.4212H60.6799C61.0999 16.4212 61.4405 16.3138 61.7019 16.0992C61.9632 15.8752 62.0939 15.5812 62.0939 15.2172H63.3679C63.3679 15.9172 63.1205 16.4818 62.6259 16.9112C62.1312 17.3405 61.4779 17.5552 60.6659 17.5552H59.6019ZM62.0939 13.2852V13.0052C62.0939 12.5385 61.9679 12.1652 61.7159 11.8852C61.4732 11.6052 61.1512 11.4652 60.7499 11.4652H59.6019C59.1725 11.4652 58.8272 11.6145 58.5659 11.9132C58.3045 12.2025 58.1739 12.5898 58.1739 13.0752V13.2852H62.0939ZM67.1555 17.5552C66.3995 17.5552 65.7929 17.3498 65.3355 16.9392C64.8782 16.5192 64.6495 15.9685 64.6495 15.2872H65.9235C65.9235 15.6325 66.0355 15.9125 66.2595 16.1272C66.4835 16.3418 66.7822 16.4492 67.1555 16.4492H68.3875C68.7422 16.4492 69.0269 16.3838 69.2415 16.2532C69.4562 16.1132 69.5635 15.9312 69.5635 15.7072V15.3012C69.5635 15.1518 69.4982 15.0212 69.3675 14.9092C69.2462 14.7878 69.0875 14.7085 68.8915 14.6712L66.4695 14.2512C65.9562 14.1578 65.5455 13.9665 65.2375 13.6772C64.9295 13.3785 64.7755 13.0332 64.7755 12.6412V12.1792C64.7755 11.6285 64.9949 11.1852 65.4335 10.8492C65.8722 10.5132 66.4602 10.3452 67.1975 10.3452H68.3735C69.0735 10.3452 69.6335 10.5365 70.0535 10.9192C70.4829 11.3018 70.6975 11.8105 70.6975 12.4452H69.4235C69.4142 12.1465 69.3115 11.9085 69.1155 11.7312C68.9289 11.5445 68.6815 11.4512 68.3735 11.4512H67.2115C66.8662 11.4512 66.5909 11.5212 66.3855 11.6612C66.1895 11.8012 66.0915 11.9878 66.0915 12.2212V12.5712C66.0915 12.7205 66.1569 12.8512 66.2875 12.9632C66.4182 13.0752 66.5862 13.1545 66.7915 13.2012L69.2415 13.6352C69.7269 13.7192 70.1189 13.9058 70.4175 14.1952C70.7255 14.4845 70.8795 14.8205 70.8795 15.2032V15.7492C70.8795 16.2905 70.6509 16.7292 70.1935 17.0652C69.7362 17.3918 69.1342 17.5552 68.3875 17.5552H67.1555Z" fill="#D9DAE6"/>
</svg>
