<svg width="69" height="30" viewBox="0 0 69 30" fill="none" xmlns="http://www.w3.org/2000/svg">
<path d="M6.432 24.192C4.768 24.192 3.456 23.712 2.496 22.752C1.536 21.792 1.056 20.48 1.056 18.816H3.816C3.816 19.712 4.048 20.424 4.512 20.952C4.992 21.464 5.648 21.72 6.48 21.72H9.144C9.928 21.72 10.56 21.552 11.04 21.216C11.52 20.864 11.76 20.408 11.76 19.848V18.792C11.76 18.36 11.592 18 11.256 17.712C10.92 17.424 10.44 17.224 9.816 17.112L5.448 16.368C4.088 16.144 3.04 15.696 2.304 15.024C1.584 14.352 1.224 13.496 1.224 12.456V11.136C1.224 10.32 1.44 9.6 1.872 8.976C2.32 8.352 2.944 7.872 3.744 7.536C4.544 7.184 5.472 7.008 6.528 7.008H9.24C10.232 7.008 11.104 7.216 11.856 7.632C12.624 8.032 13.216 8.608 13.632 9.36C14.048 10.112 14.256 10.976 14.256 11.952H11.52C11.52 11.216 11.304 10.624 10.872 10.176C10.456 9.712 9.912 9.48 9.24 9.48H6.528C5.776 9.48 5.168 9.648 4.704 9.984C4.256 10.304 4.032 10.744 4.032 11.304V12.168C4.032 12.616 4.192 12.992 4.512 13.296C4.832 13.584 5.296 13.776 5.904 13.872L10.272 14.64C11.648 14.88 12.704 15.328 13.44 15.984C14.192 16.624 14.568 17.448 14.568 18.456V20.016C14.568 20.832 14.344 21.56 13.896 22.2C13.448 22.824 12.816 23.312 12 23.664C11.184 24.016 10.248 24.192 9.192 24.192H6.432ZM20.9156 24C19.5716 24 18.5876 23.72 17.9636 23.16C17.3556 22.584 17.0516 21.68 17.0516 20.448V7.2H19.8116V20.328C19.8116 20.792 19.9076 21.128 20.0996 21.336C20.2916 21.528 20.6116 21.624 21.0596 21.624H22.2116V24H20.9156ZM25.7423 10.68C25.1983 10.68 24.7583 10.52 24.4223 10.2C24.1023 9.864 23.9423 9.44 23.9423 8.928C23.9423 8.416 24.1023 8 24.4223 7.68C24.7583 7.344 25.1983 7.176 25.7423 7.176C26.2863 7.176 26.7263 7.344 27.0623 7.68C27.3983 8 27.5663 8.416 27.5663 8.928C27.5663 9.44 27.3983 9.864 27.0623 10.2C26.7263 10.52 26.2863 10.68 25.7423 10.68ZM24.3743 12.024H27.1343V24H24.3743V12.024ZM35.0374 24.192C33.5654 24.192 32.3814 23.768 31.4854 22.92C30.6054 22.072 30.1654 20.952 30.1654 19.56V16.536C30.1654 15.608 30.3654 14.792 30.7654 14.088C31.1654 13.368 31.7334 12.816 32.4694 12.432C33.2054 12.032 34.0534 11.832 35.0134 11.832H36.9334C38.3094 11.832 39.4134 12.232 40.2454 13.032C41.0934 13.816 41.5174 14.856 41.5174 16.152H38.8054C38.8054 15.576 38.6294 15.112 38.2774 14.76C37.9414 14.392 37.4934 14.208 36.9334 14.208H35.0374C34.4134 14.208 33.9014 14.44 33.5014 14.904C33.1174 15.368 32.9254 15.968 32.9254 16.704V19.392C32.9254 20.112 33.1174 20.696 33.5014 21.144C33.9014 21.592 34.4214 21.816 35.0614 21.816H36.9574C37.5494 21.816 38.0214 21.6 38.3734 21.168C38.7414 20.736 38.9254 20.176 38.9254 19.488H41.6374C41.6374 20.896 41.2054 22.032 40.3414 22.896C39.4934 23.76 38.3654 24.192 36.9574 24.192H35.0374ZM48.3276 24.192C47.3516 24.192 46.4876 24.008 45.7356 23.64C44.9996 23.272 44.4236 22.752 44.0076 22.08C43.6076 21.408 43.4076 20.632 43.4076 19.752V16.536C43.4076 15.608 43.6076 14.792 44.0076 14.088C44.4236 13.368 44.9996 12.816 45.7356 12.432C46.4876 12.032 47.3516 11.832 48.3276 11.832H50.2476C51.7036 11.832 52.8716 12.256 53.7516 13.104C54.6316 13.952 55.0716 15.08 55.0716 16.488V18.888H46.1676V19.752C46.1676 20.392 46.3596 20.904 46.7436 21.288C47.1436 21.672 47.6716 21.864 48.3276 21.864H50.1756C50.8156 21.864 51.3276 21.712 51.7116 21.408C52.1116 21.088 52.3116 20.672 52.3116 20.16H55.0236C55.0236 21.376 54.5756 22.352 53.6796 23.088C52.7836 23.824 51.6076 24.192 50.1516 24.192H48.3276ZM52.3596 16.824V16.488C52.3596 15.784 52.1676 15.216 51.7836 14.784C51.3996 14.352 50.8956 14.136 50.2716 14.136H48.3276C47.6716 14.136 47.1356 14.368 46.7196 14.832C46.3196 15.28 46.1196 15.872 46.1196 16.608V16.824H52.3596ZM61.5116 24.192C60.1356 24.192 59.0316 23.824 58.1996 23.088C57.3676 22.352 56.9516 21.376 56.9516 20.16H59.6636C59.6636 20.672 59.8316 21.088 60.1676 21.408C60.5036 21.712 60.9516 21.864 61.5116 21.864H63.6476C64.1916 21.864 64.6156 21.776 64.9196 21.6C65.2396 21.408 65.3996 21.152 65.3996 20.832V20.304C65.3996 20.08 65.3036 19.888 65.1116 19.728C64.9356 19.568 64.6876 19.456 64.3676 19.392L60.2156 18.672C59.2876 18.512 58.5516 18.176 58.0076 17.664C57.4636 17.136 57.1916 16.528 57.1916 15.84V15.048C57.1916 14.056 57.5836 13.272 58.3676 12.696C59.1676 12.12 60.2636 11.832 61.6556 11.832H63.5756C64.8396 11.832 65.8636 12.176 66.6476 12.864C67.4316 13.552 67.8236 14.456 67.8236 15.576H65.1116C65.1116 15.144 64.9676 14.8 64.6796 14.544C64.4076 14.288 64.0396 14.16 63.5756 14.16H61.6796C61.1196 14.16 60.6876 14.248 60.3836 14.424C60.0796 14.6 59.9276 14.848 59.9276 15.168V15.648C59.9276 15.872 60.0156 16.064 60.1916 16.224C60.3836 16.384 60.6316 16.488 60.9356 16.536L65.2316 17.304C66.1116 17.48 66.8156 17.816 67.3436 18.312C67.8716 18.808 68.1356 19.392 68.1356 20.064V20.952C68.1356 21.944 67.7276 22.736 66.9116 23.328C66.0956 23.904 65.0076 24.192 63.6476 24.192H61.5116Z" fill="#12153E"/>
</svg>
