<svg width="188" height="44" viewBox="0 0 188 44" fill="none" xmlns="http://www.w3.org/2000/svg">
<rect width="188" height="44" rx="4" fill="#DEE8FF"/>
<g clip-path="url(#clip0_7610_2061)">
<path fill-rule="evenodd" clip-rule="evenodd" d="M27.4673 24.1438C26.0147 24.1438 24.8372 25.3214 24.8372 26.774C24.8372 28.2265 26.0147 29.4041 27.4673 29.4041C28.9199 29.4041 30.0974 28.2265 30.0974 26.774C30.0974 25.3214 28.9199 24.1438 27.4673 24.1438ZM22.207 26.774C22.207 23.8688 24.5621 21.5137 27.4673 21.5137C30.3725 21.5137 32.7276 23.8688 32.7276 26.774C32.7276 29.6791 30.3725 32.0342 27.4673 32.0342C24.5621 32.0342 22.207 29.6791 22.207 26.774Z" fill="#2868F3"/>
<path fill-rule="evenodd" clip-rule="evenodd" d="M41.8904 12.3509C42.404 12.8645 42.404 13.6972 41.8904 14.2107L41.5053 14.5959L44.7929 17.8836L42.9331 19.7434L41.6181 18.4283L40.8477 19.1986L41.5053 19.8562L39.6455 21.716L37.0153 19.0858L32.0274 24.0737C31.5139 24.5873 30.6812 24.5873 30.1676 24.0737C29.6541 23.5602 29.6541 22.7275 30.1676 22.214L40.0306 12.3509C40.5442 11.8374 41.3769 11.8374 41.8904 12.3509Z" fill="#2868F3"/>
<path d="M58.0067 27.112C57.3534 27.112 56.7747 26.972 56.2707 26.692C55.7667 26.4027 55.3747 26.0013 55.0947 25.488C54.8241 24.9653 54.6887 24.3633 54.6887 23.682V17.2H56.3267V23.654C56.3267 24.2607 56.4807 24.7507 56.7887 25.124C57.0967 25.488 57.5027 25.67 58.0067 25.67H59.5047C60.0181 25.67 60.4287 25.488 60.7367 25.124C61.0541 24.7507 61.2127 24.2607 61.2127 23.654V17.2H62.8507V23.682C62.8507 24.3633 62.7107 24.9653 62.4307 25.488C62.1507 26.0013 61.7587 26.4027 61.2547 26.692C60.7507 26.972 60.1674 27.112 59.5047 27.112H58.0067ZM64.6418 20.014H66.1398V20.84C66.3358 20.56 66.5878 20.336 66.8958 20.168C67.2132 19.9907 67.5212 19.902 67.8198 19.902H68.7438C69.5559 19.902 70.2092 20.1493 70.7038 20.644C71.2078 21.1293 71.4598 21.7733 71.4598 22.576V24.2C71.4598 25.0773 71.2125 25.782 70.7178 26.314C70.2232 26.846 69.5652 27.112 68.7438 27.112H67.8058C67.5352 27.112 67.2552 27.0467 66.9658 26.916C66.6765 26.776 66.4385 26.594 66.2518 26.37V29.8H64.6418V20.014ZM68.5759 25.726C68.9585 25.726 69.2665 25.5767 69.4998 25.278C69.7425 24.9793 69.8638 24.5873 69.8638 24.102V22.674C69.8638 22.2633 69.7472 21.932 69.5139 21.68C69.2805 21.4187 68.9725 21.288 68.5898 21.288H67.6938C67.3765 21.288 67.0825 21.414 66.8118 21.666C66.5505 21.9087 66.3638 22.226 66.2518 22.618V24.242C66.2985 24.6807 66.4525 25.04 66.7138 25.32C66.9845 25.5907 67.3065 25.726 67.6798 25.726H68.5759ZM75.53 29.842C74.83 29.842 74.2467 29.646 73.78 29.254C73.3134 28.862 73.0567 28.344 73.01 27.7H74.592C74.62 27.9333 74.718 28.12 74.886 28.26C75.0634 28.4 75.278 28.47 75.53 28.47H76.762C77.1167 28.47 77.3967 28.3347 77.602 28.064C77.8167 27.8027 77.924 27.448 77.924 27V26.202C77.728 26.426 77.4854 26.608 77.196 26.748C76.916 26.888 76.6407 26.958 76.37 26.958H75.39C74.5874 26.958 73.934 26.7107 73.43 26.216C72.9354 25.712 72.688 25.054 72.688 24.242V22.744C72.688 22.184 72.8047 21.6893 73.038 21.26C73.2714 20.8307 73.598 20.4993 74.018 20.266C74.4474 20.0233 74.9374 19.902 75.488 19.902H76.356C76.6734 19.902 76.986 19.9813 77.294 20.14C77.602 20.2893 77.8447 20.49 78.022 20.742V20.014H79.534V27C79.534 27.868 79.282 28.5587 78.778 29.072C78.2834 29.5853 77.6114 29.842 76.762 29.842H75.53ZM76.454 25.586C76.8554 25.586 77.1914 25.4273 77.462 25.11C77.7327 24.7927 77.8867 24.382 77.924 23.878V22.66C77.8867 22.2587 77.742 21.932 77.49 21.68C77.238 21.4187 76.9347 21.288 76.58 21.288H75.614C75.222 21.288 74.9047 21.4327 74.662 21.722C74.4194 22.002 74.298 22.3753 74.298 22.842V24.144C74.298 24.5733 74.4054 24.9233 74.62 25.194C74.844 25.4553 75.1334 25.586 75.488 25.586H76.454ZM81.3215 20.014H82.8195V20.966C83.0062 20.6767 83.2722 20.4433 83.6175 20.266C83.9722 20.0793 84.3362 19.986 84.7095 19.986H85.5495V21.386H84.7095C84.1775 21.386 83.7482 21.5493 83.4215 21.876C83.0949 22.2027 82.9315 22.6273 82.9315 23.15V27H81.3215V20.014ZM88.4811 27.112C87.7718 27.112 87.1978 26.9347 86.7591 26.58C86.3298 26.216 86.1151 25.7353 86.1151 25.138V24.634C86.1151 24.046 86.3391 23.5747 86.7871 23.22C87.2444 22.8653 87.8418 22.688 88.5791 22.688H89.4471C89.7084 22.688 89.9884 22.7253 90.2871 22.8C90.5858 22.8747 90.8518 22.9727 91.0851 23.094V22.226C91.0851 21.9367 90.9918 21.7033 90.8051 21.526C90.6184 21.3487 90.3758 21.26 90.0771 21.26H88.9011C88.5931 21.26 88.3458 21.3347 88.1591 21.484C87.9724 21.624 87.8791 21.8107 87.8791 22.044H86.3111C86.3111 21.4 86.5491 20.882 87.0251 20.49C87.5011 20.098 88.1264 19.902 88.9011 19.902H90.0771C90.8611 19.902 91.4911 20.1167 91.9671 20.546C92.4431 20.966 92.6811 21.526 92.6811 22.226V27H91.1831V26.118C90.9591 26.4167 90.6791 26.6593 90.3431 26.846C90.0071 27.0233 89.6758 27.112 89.3491 27.112H88.4811ZM89.4471 25.852C89.8204 25.852 90.1564 25.7493 90.4551 25.544C90.7538 25.3293 90.9638 25.0493 91.0851 24.704V24.368C90.9264 24.2373 90.7024 24.1347 90.4131 24.06C90.1238 23.976 89.8204 23.934 89.5031 23.934H88.6211C88.3411 23.934 88.1124 24.004 87.9351 24.144C87.7671 24.284 87.6831 24.466 87.6831 24.69V25.082C87.6831 25.3153 87.7718 25.502 87.9491 25.642C88.1264 25.782 88.3598 25.852 88.6491 25.852H89.4471ZM96.7718 27.112C95.9785 27.112 95.3345 26.8647 94.8398 26.37C94.3545 25.866 94.1118 25.208 94.1118 24.396V22.772C94.1118 22.2027 94.2285 21.7033 94.4618 21.274C94.6952 20.8353 95.0218 20.4993 95.4418 20.266C95.8712 20.0233 96.3612 19.902 96.9118 19.902H97.7658C98.0552 19.902 98.3398 19.9673 98.6198 20.098C98.9092 20.2287 99.1472 20.4013 99.3338 20.616V17.2H100.93V27H99.4318V26.034C99.2358 26.3607 98.9745 26.622 98.6479 26.818C98.3212 27.014 97.9898 27.112 97.6538 27.112H96.7718ZM97.7798 25.726C98.1812 25.726 98.5265 25.5673 98.8158 25.25C99.1145 24.9233 99.2872 24.522 99.3338 24.046V22.646C99.2685 22.2447 99.1098 21.918 98.8578 21.666C98.6152 21.414 98.3212 21.288 97.9758 21.288H97.0798C96.6692 21.288 96.3378 21.4327 96.0858 21.722C95.8432 22.0113 95.7218 22.3893 95.7218 22.856V24.298C95.7218 24.7273 95.8338 25.0727 96.0578 25.334C96.2912 25.5953 96.5852 25.726 96.9398 25.726H97.7798ZM105.308 27.112C104.739 27.112 104.235 27.0047 103.796 26.79C103.367 26.5753 103.031 26.272 102.788 25.88C102.555 25.488 102.438 25.0353 102.438 24.522V22.646C102.438 22.1047 102.555 21.6287 102.788 21.218C103.031 20.798 103.367 20.476 103.796 20.252C104.235 20.0187 104.739 19.902 105.308 19.902H106.428C107.277 19.902 107.959 20.1493 108.472 20.644C108.985 21.1387 109.242 21.7967 109.242 22.618V24.018H104.048V24.522C104.048 24.8953 104.16 25.194 104.384 25.418C104.617 25.642 104.925 25.754 105.308 25.754H106.386C106.759 25.754 107.058 25.6653 107.282 25.488C107.515 25.3013 107.632 25.0587 107.632 24.76H109.214C109.214 25.4693 108.953 26.0387 108.43 26.468C107.907 26.8973 107.221 27.112 106.372 27.112H105.308ZM107.66 22.814V22.618C107.66 22.2073 107.548 21.876 107.324 21.624C107.1 21.372 106.806 21.246 106.442 21.246H105.308C104.925 21.246 104.613 21.3813 104.37 21.652C104.137 21.9133 104.02 22.2587 104.02 22.688V22.814H107.66ZM115.859 27C115.486 27 115.192 26.8927 114.977 26.678C114.762 26.4633 114.655 26.1787 114.655 25.824V17.2H116.293V25.572H121.613V27H115.859ZM123.756 19.23C123.439 19.23 123.182 19.1367 122.986 18.95C122.8 18.754 122.706 18.5067 122.706 18.208C122.706 17.9093 122.8 17.6667 122.986 17.48C123.182 17.284 123.439 17.186 123.756 17.186C124.074 17.186 124.33 17.284 124.526 17.48C124.722 17.6667 124.82 17.9093 124.82 18.208C124.82 18.5067 124.722 18.754 124.526 18.95C124.33 19.1367 124.074 19.23 123.756 19.23ZM122.958 20.014H124.568V27H122.958V20.014ZM129.178 27.112C128.32 27.112 127.629 26.8647 127.106 26.37C126.593 25.8753 126.336 25.222 126.336 24.41V22.646C126.336 22.1047 126.453 21.6287 126.686 21.218C126.92 20.798 127.251 20.476 127.68 20.252C128.11 20.0187 128.604 19.902 129.164 19.902H130.284C131.087 19.902 131.731 20.1353 132.216 20.602C132.711 21.0593 132.958 21.666 132.958 22.422H131.376C131.376 22.086 131.274 21.8153 131.068 21.61C130.872 21.3953 130.611 21.288 130.284 21.288H129.178C128.814 21.288 128.516 21.4233 128.282 21.694C128.058 21.9647 127.946 22.3147 127.946 22.744V24.312C127.946 24.732 128.058 25.0727 128.282 25.334C128.516 25.5953 128.819 25.726 129.192 25.726H130.298C130.644 25.726 130.919 25.6 131.124 25.348C131.339 25.096 131.446 24.7693 131.446 24.368H133.028C133.028 25.1893 132.776 25.852 132.272 26.356C131.778 26.86 131.12 27.112 130.298 27.112H129.178ZM136.931 27.112C136.362 27.112 135.858 27.0047 135.419 26.79C134.99 26.5753 134.654 26.272 134.411 25.88C134.178 25.488 134.061 25.0353 134.061 24.522V22.646C134.061 22.1047 134.178 21.6287 134.411 21.218C134.654 20.798 134.99 20.476 135.419 20.252C135.858 20.0187 136.362 19.902 136.931 19.902H138.051C138.9 19.902 139.582 20.1493 140.095 20.644C140.608 21.1387 140.865 21.7967 140.865 22.618V24.018H135.671V24.522C135.671 24.8953 135.783 25.194 136.007 25.418C136.24 25.642 136.548 25.754 136.931 25.754H138.009C138.382 25.754 138.681 25.6653 138.905 25.488C139.138 25.3013 139.255 25.0587 139.255 24.76H140.837C140.837 25.4693 140.576 26.0387 140.053 26.468C139.53 26.8973 138.844 27.112 137.995 27.112H136.931ZM139.283 22.814V22.618C139.283 22.2073 139.171 21.876 138.947 21.624C138.723 21.372 138.429 21.246 138.065 21.246H136.931C136.548 21.246 136.236 21.3813 135.993 21.652C135.76 21.9133 135.643 22.2587 135.643 22.688V22.814H139.283ZM142.312 20.014H143.81V20.924C144.015 20.616 144.286 20.3687 144.622 20.182C144.958 19.9953 145.294 19.902 145.63 19.902H146.498C147.216 19.902 147.79 20.1307 148.22 20.588C148.658 21.0453 148.878 21.6473 148.878 22.394V27H147.268V22.436C147.268 22.1 147.179 21.8293 147.002 21.624C146.834 21.4093 146.61 21.302 146.33 21.302H145.462C145.098 21.302 144.771 21.442 144.482 21.722C144.192 21.9927 144.006 22.3427 143.922 22.772V27H142.312V20.014ZM152.893 27.112C152.091 27.112 151.447 26.8973 150.961 26.468C150.476 26.0387 150.233 25.4693 150.233 24.76H151.815C151.815 25.0587 151.913 25.3013 152.109 25.488C152.305 25.6653 152.567 25.754 152.893 25.754H154.139C154.457 25.754 154.704 25.7027 154.881 25.6C155.068 25.488 155.161 25.3387 155.161 25.152V24.844C155.161 24.7133 155.105 24.6013 154.993 24.508C154.891 24.4147 154.746 24.3493 154.559 24.312L152.137 23.892C151.596 23.7987 151.167 23.6027 150.849 23.304C150.532 22.996 150.373 22.6413 150.373 22.24V21.778C150.373 21.1993 150.602 20.742 151.059 20.406C151.526 20.07 152.165 19.902 152.977 19.902H154.097C154.835 19.902 155.432 20.1027 155.889 20.504C156.347 20.9053 156.575 21.4327 156.575 22.086H154.993C154.993 21.834 154.909 21.6333 154.741 21.484C154.583 21.3347 154.368 21.26 154.097 21.26H152.991C152.665 21.26 152.413 21.3113 152.235 21.414C152.058 21.5167 151.969 21.6613 151.969 21.848V22.128C151.969 22.2587 152.021 22.3707 152.123 22.464C152.235 22.5573 152.38 22.618 152.557 22.646L155.063 23.094C155.577 23.1967 155.987 23.3927 156.295 23.682C156.603 23.9713 156.757 24.312 156.757 24.704V25.222C156.757 25.8007 156.519 26.2627 156.043 26.608C155.567 26.944 154.933 27.112 154.139 27.112H152.893ZM160.72 27.112C160.151 27.112 159.647 27.0047 159.208 26.79C158.779 26.5753 158.443 26.272 158.2 25.88C157.967 25.488 157.85 25.0353 157.85 24.522V22.646C157.85 22.1047 157.967 21.6287 158.2 21.218C158.443 20.798 158.779 20.476 159.208 20.252C159.647 20.0187 160.151 19.902 160.72 19.902H161.84C162.689 19.902 163.371 20.1493 163.884 20.644C164.397 21.1387 164.654 21.7967 164.654 22.618V24.018H159.46V24.522C159.46 24.8953 159.572 25.194 159.796 25.418C160.029 25.642 160.337 25.754 160.72 25.754H161.798C162.171 25.754 162.47 25.6653 162.694 25.488C162.927 25.3013 163.044 25.0587 163.044 24.76H164.626C164.626 25.4693 164.365 26.0387 163.842 26.468C163.319 26.8973 162.633 27.112 161.784 27.112H160.72ZM163.072 22.814V22.618C163.072 22.2073 162.96 21.876 162.736 21.624C162.512 21.372 162.218 21.246 161.854 21.246H160.72C160.337 21.246 160.025 21.3813 159.782 21.652C159.549 21.9133 159.432 22.2587 159.432 22.688V22.814H163.072Z" fill="#2868F3"/>
</g>
<defs>
<clipPath id="clip0_7610_2061">
<rect width="143.586" height="24" fill="white" transform="translate(22.207 10)"/>
</clipPath>
</defs>
</svg>
