<svg width="391" height="24" viewBox="0 0 391 24" fill="none" xmlns="http://www.w3.org/2000/svg">
<rect y="0.5" width="110" height="23" rx="11.5" fill="#E1EBFF"/>
<path d="M18.472 10.512L17.212 15.72C17.148 15.992 17.048 16.192 16.912 16.32C16.776 16.44 16.6 16.5 16.384 16.5H15.868L14.416 12.216L12.928 16.5H12.412C12.196 16.5 12.02 16.44 11.884 16.32C11.748 16.192 11.648 15.992 11.584 15.72L10.312 10.512H11.488L12.472 15.12L13.996 10.668H14.416C14.56 10.668 14.676 10.704 14.764 10.776C14.852 10.84 14.92 10.944 14.968 11.088L16.312 15.132L17.296 10.512H18.472ZM21.5884 16.596C20.8844 16.596 20.3164 16.384 19.8844 15.96C19.4604 15.536 19.2484 14.98 19.2484 14.292V12.732C19.2484 12.036 19.4644 11.476 19.8964 11.052C20.3284 10.628 20.9004 10.416 21.6124 10.416H22.6204C23.3324 10.416 23.9044 10.628 24.3364 11.052C24.7684 11.476 24.9844 12.036 24.9844 12.732V14.292C24.9844 14.98 24.7644 15.536 24.3244 15.96C23.8924 16.384 23.3204 16.596 22.6084 16.596H21.5884ZM22.5964 15.612C22.9804 15.612 23.2884 15.488 23.5204 15.24C23.7524 14.992 23.8684 14.66 23.8684 14.244V12.768C23.8684 12.352 23.7524 12.02 23.5204 11.772C23.2964 11.524 22.9964 11.4 22.6204 11.4H21.6124C21.2364 11.4 20.9324 11.524 20.7004 11.772C20.4764 12.02 20.3644 12.352 20.3644 12.768V14.244C20.3644 14.66 20.4764 14.992 20.7004 15.24C20.9244 15.488 21.2244 15.612 21.6004 15.612H22.5964ZM26.4259 10.512H27.4939V11.388C27.6539 11.124 27.8859 10.908 28.1899 10.74C28.5019 10.572 28.8259 10.488 29.1619 10.488H29.7859V11.484H29.1619C28.6739 11.484 28.2819 11.636 27.9859 11.94C27.6899 12.236 27.5419 12.628 27.5419 13.116V16.5H26.4259V10.512ZM34.877 16.5L32.693 13.812L31.913 14.58V16.5H30.797V8.1H31.913V13.26L34.685 10.512H36.017L33.425 13.08L36.173 16.5H34.877ZM38.897 16.596C38.193 16.596 37.625 16.396 37.193 15.996C36.769 15.588 36.557 15.056 36.557 14.4V12.744C36.557 12.04 36.769 11.476 37.193 11.052C37.625 10.628 38.193 10.416 38.897 10.416H39.881C40.561 10.416 41.109 10.624 41.525 11.04C41.941 11.456 42.149 12.008 42.149 12.696V13.824H37.673V14.4C37.673 14.768 37.785 15.064 38.009 15.288C38.233 15.512 38.529 15.624 38.897 15.624H39.821C40.181 15.624 40.473 15.532 40.697 15.348C40.921 15.156 41.033 14.904 41.033 14.592H42.125C42.125 15.192 41.913 15.676 41.489 16.044C41.065 16.412 40.505 16.596 39.809 16.596H38.897ZM41.033 12.936V12.696C41.033 12.296 40.925 11.976 40.709 11.736C40.501 11.496 40.225 11.376 39.881 11.376H38.897C38.529 11.376 38.233 11.504 38.009 11.76C37.785 12.008 37.673 12.34 37.673 12.756V12.936H41.033ZM43.5236 10.512H44.5916V11.388C44.7516 11.124 44.9836 10.908 45.2876 10.74C45.5996 10.572 45.9236 10.488 46.2596 10.488H46.8836V11.484H46.2596C45.7716 11.484 45.3796 11.636 45.0836 11.94C44.7876 12.236 44.6396 12.628 44.6396 13.116V16.5H43.5236V10.512ZM47.6547 12.936H51.0867V13.92H47.6547V12.936ZM54.5876 16.596C53.8996 16.596 53.3436 16.392 52.9196 15.984C52.4956 15.568 52.2836 15.024 52.2836 14.352V12.744C52.2836 12.04 52.4916 11.476 52.9076 11.052C53.3316 10.628 53.8876 10.416 54.5756 10.416H55.5476C56.2036 10.416 56.7316 10.6 57.1316 10.968C57.5316 11.336 57.7316 11.824 57.7316 12.432H56.6276C56.6276 12.12 56.5276 11.872 56.3276 11.688C56.1356 11.496 55.8756 11.4 55.5476 11.4H54.5876C54.2356 11.4 53.9476 11.528 53.7236 11.784C53.5076 12.032 53.3996 12.364 53.3996 12.78V14.316C53.3996 14.708 53.5116 15.024 53.7356 15.264C53.9596 15.496 54.2476 15.612 54.5996 15.612H55.5596C55.8956 15.612 56.1636 15.496 56.3636 15.264C56.5716 15.024 56.6756 14.708 56.6756 14.316H57.7796C57.7796 14.996 57.5756 15.548 57.1676 15.972C56.7596 16.388 56.2236 16.596 55.5596 16.596H54.5876ZM60.8389 16.5C60.2069 16.5 59.7509 16.368 59.4709 16.104C59.1909 15.832 59.0509 15.396 59.0509 14.796V8.1H60.1669V14.76C60.1669 15.032 60.2229 15.228 60.3349 15.348C60.4469 15.468 60.6309 15.528 60.8869 15.528H61.3669V16.5H60.8389ZM64.2511 16.596C63.6671 16.596 63.1951 16.4 62.8351 16.008C62.4831 15.616 62.3071 15.1 62.3071 14.46V10.512H63.4231V14.484C63.4231 14.82 63.5071 15.092 63.6751 15.3C63.8431 15.508 64.0631 15.612 64.3351 15.612H65.0551C65.3911 15.612 65.6991 15.476 65.9791 15.204C66.2591 14.932 66.4431 14.588 66.5311 14.172V10.512H67.6471V16.5H66.5911V15.636C66.3991 15.916 66.1591 16.148 65.8711 16.332C65.5831 16.508 65.2991 16.596 65.0191 16.596H64.2511ZM71.1763 16.596C70.5283 16.596 70.0083 16.42 69.6163 16.068C69.2243 15.708 69.0283 15.236 69.0283 14.652H70.1203C70.1203 14.948 70.2163 15.188 70.4083 15.372C70.6003 15.556 70.8563 15.648 71.1763 15.648H72.2323C72.5363 15.648 72.7803 15.592 72.9643 15.48C73.1483 15.36 73.2403 15.204 73.2403 15.012V14.664C73.2403 14.536 73.1843 14.424 73.0723 14.328C72.9683 14.224 72.8323 14.156 72.6643 14.124L70.5883 13.764C70.1483 13.684 69.7963 13.52 69.5323 13.272C69.2683 13.016 69.1363 12.72 69.1363 12.384V11.988C69.1363 11.516 69.3243 11.136 69.7003 10.848C70.0763 10.56 70.5803 10.416 71.2123 10.416H72.2203C72.8203 10.416 73.3003 10.58 73.6603 10.908C74.0283 11.236 74.2123 11.672 74.2123 12.216H73.1203C73.1123 11.96 73.0243 11.756 72.8563 11.604C72.6963 11.444 72.4843 11.364 72.2203 11.364H71.2243C70.9283 11.364 70.6923 11.424 70.5163 11.544C70.3483 11.664 70.2643 11.824 70.2643 12.024V12.324C70.2643 12.452 70.3203 12.564 70.4323 12.66C70.5443 12.756 70.6883 12.824 70.8643 12.864L72.9643 13.236C73.3803 13.308 73.7163 13.468 73.9723 13.716C74.2363 13.964 74.3683 14.252 74.3683 14.58V15.048C74.3683 15.512 74.1723 15.888 73.7803 16.176C73.3883 16.456 72.8723 16.596 72.2323 16.596H71.1763ZM78.0573 16.5C77.4013 16.5 76.9253 16.356 76.6293 16.068C76.3413 15.78 76.1973 15.316 76.1973 14.676V11.484H75.1413V10.512H76.2093V8.7H77.3133V10.512H78.8733V11.484H77.3133V14.652C77.3133 14.964 77.3733 15.188 77.4933 15.324C77.6213 15.46 77.8253 15.528 78.1053 15.528H78.8733V16.5H78.0573ZM82.2213 16.596C81.5173 16.596 80.9493 16.396 80.5173 15.996C80.0933 15.588 79.8813 15.056 79.8813 14.4V12.744C79.8813 12.04 80.0933 11.476 80.5173 11.052C80.9493 10.628 81.5173 10.416 82.2213 10.416H83.2053C83.8853 10.416 84.4333 10.624 84.8493 11.04C85.2653 11.456 85.4733 12.008 85.4733 12.696V13.824H80.9973V14.4C80.9973 14.768 81.1093 15.064 81.3333 15.288C81.5573 15.512 81.8533 15.624 82.2213 15.624H83.1453C83.5053 15.624 83.7973 15.532 84.0213 15.348C84.2453 15.156 84.3573 14.904 84.3573 14.592H85.4492C85.4492 15.192 85.2373 15.676 84.8133 16.044C84.3893 16.412 83.8293 16.596 83.1333 16.596H82.2213ZM84.3573 12.936V12.696C84.3573 12.296 84.2493 11.976 84.0333 11.736C83.8253 11.496 83.5493 11.376 83.2053 11.376H82.2213C81.8533 11.376 81.5573 11.504 81.3333 11.76C81.1093 12.008 80.9973 12.34 80.9973 12.756V12.936H84.3573ZM86.8478 10.512H87.9158V11.388C88.0758 11.124 88.3078 10.908 88.6118 10.74C88.9238 10.572 89.2478 10.488 89.5838 10.488H90.2078V11.484H89.5838C89.0958 11.484 88.7038 11.636 88.4078 11.94C88.1118 12.236 87.9638 12.628 87.9638 13.116V16.5H86.8478V10.512ZM90.9789 12.936H94.4109V13.92H90.9789V12.936ZM97.2998 9.336L95.3678 10.308V9.24L97.5158 8.1H98.4398V16.5H97.2998V9.336Z" fill="#3A87F4"/>
<rect x="120" y="0.5" width="112" height="23" rx="11.5" fill="#E1EBFF"/>
<path d="M138.472 10.512L137.212 15.72C137.148 15.992 137.048 16.192 136.912 16.32C136.776 16.44 136.6 16.5 136.384 16.5H135.868L134.416 12.216L132.928 16.5H132.412C132.196 16.5 132.02 16.44 131.884 16.32C131.748 16.192 131.648 15.992 131.584 15.72L130.312 10.512H131.488L132.472 15.12L133.996 10.668H134.416C134.56 10.668 134.676 10.704 134.764 10.776C134.852 10.84 134.92 10.944 134.968 11.088L136.312 15.132L137.296 10.512H138.472ZM141.588 16.596C140.884 16.596 140.316 16.384 139.884 15.96C139.46 15.536 139.248 14.98 139.248 14.292V12.732C139.248 12.036 139.464 11.476 139.896 11.052C140.328 10.628 140.9 10.416 141.612 10.416H142.62C143.332 10.416 143.904 10.628 144.336 11.052C144.768 11.476 144.984 12.036 144.984 12.732V14.292C144.984 14.98 144.764 15.536 144.324 15.96C143.892 16.384 143.32 16.596 142.608 16.596H141.588ZM142.596 15.612C142.98 15.612 143.288 15.488 143.52 15.24C143.752 14.992 143.868 14.66 143.868 14.244V12.768C143.868 12.352 143.752 12.02 143.52 11.772C143.296 11.524 142.996 11.4 142.62 11.4H141.612C141.236 11.4 140.932 11.524 140.7 11.772C140.476 12.02 140.364 12.352 140.364 12.768V14.244C140.364 14.66 140.476 14.992 140.7 15.24C140.924 15.488 141.224 15.612 141.6 15.612H142.596ZM146.426 10.512H147.494V11.388C147.654 11.124 147.886 10.908 148.19 10.74C148.502 10.572 148.826 10.488 149.162 10.488H149.786V11.484H149.162C148.674 11.484 148.282 11.636 147.986 11.94C147.69 12.236 147.542 12.628 147.542 13.116V16.5H146.426V10.512ZM154.877 16.5L152.693 13.812L151.913 14.58V16.5H150.797V8.1H151.913V13.26L154.685 10.512H156.017L153.425 13.08L156.173 16.5H154.877ZM158.897 16.596C158.193 16.596 157.625 16.396 157.193 15.996C156.769 15.588 156.557 15.056 156.557 14.4V12.744C156.557 12.04 156.769 11.476 157.193 11.052C157.625 10.628 158.193 10.416 158.897 10.416H159.881C160.561 10.416 161.109 10.624 161.525 11.04C161.941 11.456 162.149 12.008 162.149 12.696V13.824H157.673V14.4C157.673 14.768 157.785 15.064 158.009 15.288C158.233 15.512 158.529 15.624 158.897 15.624H159.821C160.181 15.624 160.473 15.532 160.697 15.348C160.921 15.156 161.033 14.904 161.033 14.592H162.125C162.125 15.192 161.913 15.676 161.489 16.044C161.065 16.412 160.505 16.596 159.809 16.596H158.897ZM161.033 12.936V12.696C161.033 12.296 160.925 11.976 160.709 11.736C160.501 11.496 160.225 11.376 159.881 11.376H158.897C158.529 11.376 158.233 11.504 158.009 11.76C157.785 12.008 157.673 12.34 157.673 12.756V12.936H161.033ZM163.524 10.512H164.592V11.388C164.752 11.124 164.984 10.908 165.288 10.74C165.6 10.572 165.924 10.488 166.26 10.488H166.884V11.484H166.26C165.772 11.484 165.38 11.636 165.084 11.94C164.788 12.236 164.64 12.628 164.64 13.116V16.5H163.524V10.512ZM167.655 12.936H171.087V13.92H167.655V12.936ZM174.588 16.596C173.9 16.596 173.344 16.392 172.92 15.984C172.496 15.568 172.284 15.024 172.284 14.352V12.744C172.284 12.04 172.492 11.476 172.908 11.052C173.332 10.628 173.888 10.416 174.576 10.416H175.548C176.204 10.416 176.732 10.6 177.132 10.968C177.532 11.336 177.732 11.824 177.732 12.432H176.628C176.628 12.12 176.528 11.872 176.328 11.688C176.136 11.496 175.876 11.4 175.548 11.4H174.588C174.236 11.4 173.948 11.528 173.724 11.784C173.508 12.032 173.4 12.364 173.4 12.78V14.316C173.4 14.708 173.512 15.024 173.736 15.264C173.96 15.496 174.248 15.612 174.6 15.612H175.56C175.896 15.612 176.164 15.496 176.364 15.264C176.572 15.024 176.676 14.708 176.676 14.316H177.78C177.78 14.996 177.576 15.548 177.168 15.972C176.76 16.388 176.224 16.596 175.56 16.596H174.588ZM180.839 16.5C180.207 16.5 179.751 16.368 179.471 16.104C179.191 15.832 179.051 15.396 179.051 14.796V8.1H180.167V14.76C180.167 15.032 180.223 15.228 180.335 15.348C180.447 15.468 180.631 15.528 180.887 15.528H181.367V16.5H180.839ZM184.251 16.596C183.667 16.596 183.195 16.4 182.835 16.008C182.483 15.616 182.307 15.1 182.307 14.46V10.512H183.423V14.484C183.423 14.82 183.507 15.092 183.675 15.3C183.843 15.508 184.063 15.612 184.335 15.612H185.055C185.391 15.612 185.699 15.476 185.979 15.204C186.259 14.932 186.443 14.588 186.531 14.172V10.512H187.647V16.5H186.591V15.636C186.399 15.916 186.159 16.148 185.871 16.332C185.583 16.508 185.299 16.596 185.019 16.596H184.251ZM191.176 16.596C190.528 16.596 190.008 16.42 189.616 16.068C189.224 15.708 189.028 15.236 189.028 14.652H190.12C190.12 14.948 190.216 15.188 190.408 15.372C190.6 15.556 190.856 15.648 191.176 15.648H192.232C192.536 15.648 192.78 15.592 192.964 15.48C193.148 15.36 193.24 15.204 193.24 15.012V14.664C193.24 14.536 193.184 14.424 193.072 14.328C192.968 14.224 192.832 14.156 192.664 14.124L190.588 13.764C190.148 13.684 189.796 13.52 189.532 13.272C189.268 13.016 189.136 12.72 189.136 12.384V11.988C189.136 11.516 189.324 11.136 189.7 10.848C190.076 10.56 190.58 10.416 191.212 10.416H192.22C192.82 10.416 193.3 10.58 193.66 10.908C194.028 11.236 194.212 11.672 194.212 12.216H193.12C193.112 11.96 193.024 11.756 192.856 11.604C192.696 11.444 192.484 11.364 192.22 11.364H191.224C190.928 11.364 190.692 11.424 190.516 11.544C190.348 11.664 190.264 11.824 190.264 12.024V12.324C190.264 12.452 190.32 12.564 190.432 12.66C190.544 12.756 190.688 12.824 190.864 12.864L192.964 13.236C193.38 13.308 193.716 13.468 193.972 13.716C194.236 13.964 194.368 14.252 194.368 14.58V15.048C194.368 15.512 194.172 15.888 193.78 16.176C193.388 16.456 192.872 16.596 192.232 16.596H191.176ZM198.057 16.5C197.401 16.5 196.925 16.356 196.629 16.068C196.341 15.78 196.197 15.316 196.197 14.676V11.484H195.141V10.512H196.209V8.7H197.313V10.512H198.873V11.484H197.313V14.652C197.313 14.964 197.373 15.188 197.493 15.324C197.621 15.46 197.825 15.528 198.105 15.528H198.873V16.5H198.057ZM202.221 16.596C201.517 16.596 200.949 16.396 200.517 15.996C200.093 15.588 199.881 15.056 199.881 14.4V12.744C199.881 12.04 200.093 11.476 200.517 11.052C200.949 10.628 201.517 10.416 202.221 10.416H203.205C203.885 10.416 204.433 10.624 204.849 11.04C205.265 11.456 205.473 12.008 205.473 12.696V13.824H200.997V14.4C200.997 14.768 201.109 15.064 201.333 15.288C201.557 15.512 201.853 15.624 202.221 15.624H203.145C203.505 15.624 203.797 15.532 204.021 15.348C204.245 15.156 204.357 14.904 204.357 14.592H205.449C205.449 15.192 205.237 15.676 204.813 16.044C204.389 16.412 203.829 16.596 203.133 16.596H202.221ZM204.357 12.936V12.696C204.357 12.296 204.249 11.976 204.033 11.736C203.825 11.496 203.549 11.376 203.205 11.376H202.221C201.853 11.376 201.557 11.504 201.333 11.76C201.109 12.008 200.997 12.34 200.997 12.756V12.936H204.357ZM206.848 10.512H207.916V11.388C208.076 11.124 208.308 10.908 208.612 10.74C208.924 10.572 209.248 10.488 209.584 10.488H210.208V11.484H209.584C209.096 11.484 208.704 11.636 208.408 11.94C208.112 12.236 207.964 12.628 207.964 13.116V16.5H206.848V10.512ZM210.979 12.936H214.411V13.92H210.979V12.936ZM215.56 15.576C215.56 15.12 215.64 14.724 215.8 14.388C215.968 14.052 216.24 13.756 216.616 13.5L219.592 11.4C219.776 11.272 219.916 11.124 220.012 10.956C220.116 10.78 220.168 10.6 220.168 10.416V10.032C220.168 9.728 220.064 9.484 219.856 9.3C219.648 9.116 219.368 9.024 219.016 9.024H217.912C217.528 9.024 217.22 9.16 216.988 9.432C216.764 9.696 216.652 10.06 216.652 10.524H215.512C215.512 9.748 215.724 9.136 216.148 8.688C216.58 8.232 217.16 8.004 217.888 8.004H219.016C219.704 8.004 220.256 8.192 220.672 8.568C221.096 8.936 221.308 9.424 221.308 10.032V10.416C221.308 11.144 220.972 11.736 220.3 12.192L217.408 14.184C217.152 14.36 216.968 14.544 216.856 14.736C216.752 14.928 216.7 15.18 216.7 15.492H221.404V16.5H215.56V15.576Z" fill="#3A87F4"/>
<rect x="242" y="0.5" width="113" height="23" rx="11.5" fill="#E1EBFF"/>
<path d="M260.472 10.512L259.212 15.72C259.148 15.992 259.048 16.192 258.912 16.32C258.776 16.44 258.6 16.5 258.384 16.5H257.868L256.416 12.216L254.928 16.5H254.412C254.196 16.5 254.02 16.44 253.884 16.32C253.748 16.192 253.648 15.992 253.584 15.72L252.312 10.512H253.488L254.472 15.12L255.996 10.668H256.416C256.56 10.668 256.676 10.704 256.764 10.776C256.852 10.84 256.92 10.944 256.968 11.088L258.312 15.132L259.296 10.512H260.472ZM263.588 16.596C262.884 16.596 262.316 16.384 261.884 15.96C261.46 15.536 261.248 14.98 261.248 14.292V12.732C261.248 12.036 261.464 11.476 261.896 11.052C262.328 10.628 262.9 10.416 263.612 10.416H264.62C265.332 10.416 265.904 10.628 266.336 11.052C266.768 11.476 266.984 12.036 266.984 12.732V14.292C266.984 14.98 266.764 15.536 266.324 15.96C265.892 16.384 265.32 16.596 264.608 16.596H263.588ZM264.596 15.612C264.98 15.612 265.288 15.488 265.52 15.24C265.752 14.992 265.868 14.66 265.868 14.244V12.768C265.868 12.352 265.752 12.02 265.52 11.772C265.296 11.524 264.996 11.4 264.62 11.4H263.612C263.236 11.4 262.932 11.524 262.7 11.772C262.476 12.02 262.364 12.352 262.364 12.768V14.244C262.364 14.66 262.476 14.992 262.7 15.24C262.924 15.488 263.224 15.612 263.6 15.612H264.596ZM268.426 10.512H269.494V11.388C269.654 11.124 269.886 10.908 270.19 10.74C270.502 10.572 270.826 10.488 271.162 10.488H271.786V11.484H271.162C270.674 11.484 270.282 11.636 269.986 11.94C269.69 12.236 269.542 12.628 269.542 13.116V16.5H268.426V10.512ZM276.877 16.5L274.693 13.812L273.913 14.58V16.5H272.797V8.1H273.913V13.26L276.685 10.512H278.017L275.425 13.08L278.173 16.5H276.877ZM280.897 16.596C280.193 16.596 279.625 16.396 279.193 15.996C278.769 15.588 278.557 15.056 278.557 14.4V12.744C278.557 12.04 278.769 11.476 279.193 11.052C279.625 10.628 280.193 10.416 280.897 10.416H281.881C282.561 10.416 283.109 10.624 283.525 11.04C283.941 11.456 284.149 12.008 284.149 12.696V13.824H279.673V14.4C279.673 14.768 279.785 15.064 280.009 15.288C280.233 15.512 280.529 15.624 280.897 15.624H281.821C282.181 15.624 282.473 15.532 282.697 15.348C282.921 15.156 283.033 14.904 283.033 14.592H284.125C284.125 15.192 283.913 15.676 283.489 16.044C283.065 16.412 282.505 16.596 281.809 16.596H280.897ZM283.033 12.936V12.696C283.033 12.296 282.925 11.976 282.709 11.736C282.501 11.496 282.225 11.376 281.881 11.376H280.897C280.529 11.376 280.233 11.504 280.009 11.76C279.785 12.008 279.673 12.34 279.673 12.756V12.936H283.033ZM285.524 10.512H286.592V11.388C286.752 11.124 286.984 10.908 287.288 10.74C287.6 10.572 287.924 10.488 288.26 10.488H288.884V11.484H288.26C287.772 11.484 287.38 11.636 287.084 11.94C286.788 12.236 286.64 12.628 286.64 13.116V16.5H285.524V10.512ZM289.655 12.936H293.087V13.92H289.655V12.936ZM296.588 16.596C295.9 16.596 295.344 16.392 294.92 15.984C294.496 15.568 294.284 15.024 294.284 14.352V12.744C294.284 12.04 294.492 11.476 294.908 11.052C295.332 10.628 295.888 10.416 296.576 10.416H297.548C298.204 10.416 298.732 10.6 299.132 10.968C299.532 11.336 299.732 11.824 299.732 12.432H298.628C298.628 12.12 298.528 11.872 298.328 11.688C298.136 11.496 297.876 11.4 297.548 11.4H296.588C296.236 11.4 295.948 11.528 295.724 11.784C295.508 12.032 295.4 12.364 295.4 12.78V14.316C295.4 14.708 295.512 15.024 295.736 15.264C295.96 15.496 296.248 15.612 296.6 15.612H297.56C297.896 15.612 298.164 15.496 298.364 15.264C298.572 15.024 298.676 14.708 298.676 14.316H299.78C299.78 14.996 299.576 15.548 299.168 15.972C298.76 16.388 298.224 16.596 297.56 16.596H296.588ZM302.839 16.5C302.207 16.5 301.751 16.368 301.471 16.104C301.191 15.832 301.051 15.396 301.051 14.796V8.1H302.167V14.76C302.167 15.032 302.223 15.228 302.335 15.348C302.447 15.468 302.631 15.528 302.887 15.528H303.367V16.5H302.839ZM306.251 16.596C305.667 16.596 305.195 16.4 304.835 16.008C304.483 15.616 304.307 15.1 304.307 14.46V10.512H305.423V14.484C305.423 14.82 305.507 15.092 305.675 15.3C305.843 15.508 306.063 15.612 306.335 15.612H307.055C307.391 15.612 307.699 15.476 307.979 15.204C308.259 14.932 308.443 14.588 308.531 14.172V10.512H309.647V16.5H308.591V15.636C308.399 15.916 308.159 16.148 307.871 16.332C307.583 16.508 307.299 16.596 307.019 16.596H306.251ZM313.176 16.596C312.528 16.596 312.008 16.42 311.616 16.068C311.224 15.708 311.028 15.236 311.028 14.652H312.12C312.12 14.948 312.216 15.188 312.408 15.372C312.6 15.556 312.856 15.648 313.176 15.648H314.232C314.536 15.648 314.78 15.592 314.964 15.48C315.148 15.36 315.24 15.204 315.24 15.012V14.664C315.24 14.536 315.184 14.424 315.072 14.328C314.968 14.224 314.832 14.156 314.664 14.124L312.588 13.764C312.148 13.684 311.796 13.52 311.532 13.272C311.268 13.016 311.136 12.72 311.136 12.384V11.988C311.136 11.516 311.324 11.136 311.7 10.848C312.076 10.56 312.58 10.416 313.212 10.416H314.22C314.82 10.416 315.3 10.58 315.66 10.908C316.028 11.236 316.212 11.672 316.212 12.216H315.12C315.112 11.96 315.024 11.756 314.856 11.604C314.696 11.444 314.484 11.364 314.22 11.364H313.224C312.928 11.364 312.692 11.424 312.516 11.544C312.348 11.664 312.264 11.824 312.264 12.024V12.324C312.264 12.452 312.32 12.564 312.432 12.66C312.544 12.756 312.688 12.824 312.864 12.864L314.964 13.236C315.38 13.308 315.716 13.468 315.972 13.716C316.236 13.964 316.368 14.252 316.368 14.58V15.048C316.368 15.512 316.172 15.888 315.78 16.176C315.388 16.456 314.872 16.596 314.232 16.596H313.176ZM320.057 16.5C319.401 16.5 318.925 16.356 318.629 16.068C318.341 15.78 318.197 15.316 318.197 14.676V11.484H317.141V10.512H318.209V8.7H319.313V10.512H320.873V11.484H319.313V14.652C319.313 14.964 319.373 15.188 319.493 15.324C319.621 15.46 319.825 15.528 320.105 15.528H320.873V16.5H320.057ZM324.221 16.596C323.517 16.596 322.949 16.396 322.517 15.996C322.093 15.588 321.881 15.056 321.881 14.4V12.744C321.881 12.04 322.093 11.476 322.517 11.052C322.949 10.628 323.517 10.416 324.221 10.416H325.205C325.885 10.416 326.433 10.624 326.849 11.04C327.265 11.456 327.473 12.008 327.473 12.696V13.824H322.997V14.4C322.997 14.768 323.109 15.064 323.333 15.288C323.557 15.512 323.853 15.624 324.221 15.624H325.145C325.505 15.624 325.797 15.532 326.021 15.348C326.245 15.156 326.357 14.904 326.357 14.592H327.449C327.449 15.192 327.237 15.676 326.813 16.044C326.389 16.412 325.829 16.596 325.133 16.596H324.221ZM326.357 12.936V12.696C326.357 12.296 326.249 11.976 326.033 11.736C325.825 11.496 325.549 11.376 325.205 11.376H324.221C323.853 11.376 323.557 11.504 323.333 11.76C323.109 12.008 322.997 12.34 322.997 12.756V12.936H326.357ZM328.848 10.512H329.916V11.388C330.076 11.124 330.308 10.908 330.612 10.74C330.924 10.572 331.248 10.488 331.584 10.488H332.208V11.484H331.584C331.096 11.484 330.704 11.636 330.408 11.94C330.112 12.236 329.964 12.628 329.964 13.116V16.5H328.848V10.512ZM332.979 12.936H336.411V13.92H332.979V12.936ZM342.564 12.18C342.908 12.356 343.176 12.592 343.368 12.888C343.568 13.176 343.668 13.5 343.668 13.86V14.34C343.668 14.788 343.564 15.184 343.356 15.528C343.148 15.864 342.852 16.128 342.468 16.32C342.084 16.504 341.64 16.596 341.136 16.596H339.972C339.22 16.596 338.616 16.368 338.16 15.912C337.712 15.448 337.488 14.828 337.488 14.052H338.604C338.604 14.516 338.728 14.888 338.976 15.168C339.224 15.44 339.556 15.576 339.972 15.576H341.136C341.552 15.576 341.888 15.464 342.144 15.24C342.4 15.016 342.528 14.716 342.528 14.34V13.86C342.528 13.484 342.4 13.196 342.144 12.996C341.896 12.796 341.548 12.696 341.1 12.696H339.744V11.712H341.1C341.5 11.712 341.812 11.612 342.036 11.412C342.26 11.212 342.372 10.932 342.372 10.572V10.092C342.372 9.764 342.26 9.504 342.036 9.312C341.82 9.12 341.528 9.024 341.16 9.024H339.996C339.604 9.024 339.288 9.164 339.048 9.444C338.816 9.716 338.7 10.084 338.7 10.548H337.548C337.548 9.772 337.768 9.156 338.208 8.7C338.656 8.236 339.252 8.004 339.996 8.004H341.16C341.872 8.004 342.44 8.196 342.864 8.58C343.296 8.956 343.512 9.46 343.512 10.092V10.572C343.512 10.908 343.428 11.22 343.26 11.508C343.092 11.788 342.86 12.012 342.564 12.18Z" fill="#3A87F4"/>
</svg>
